<?xml version="1.0" encoding="utf-8"?>
<!-- Generator: Adobe Illustrator 27.9.0, SVG Export Plug-In . SVG Version: 6.00 Build 0)  -->
<svg version="1.1" xmlns="http://www.w3.org/2000/svg" xmlns:xlink="http://www.w3.org/1999/xlink" x="0px" y="0px"
	 viewBox="0 0 1040 414" style="enable-background:new 0 0 1040 414;" xml:space="preserve">
<style type="text/css">
	.st0{clip-path:url(#SVGID_00000004531951598711268180000009250499875207531680_);}
	.st1{fill:#3042FB;stroke:#000000;stroke-width:2;stroke-linecap:round;stroke-linejoin:round;}
	.st2{fill:#F7FAEF;stroke:#000000;stroke-width:2;stroke-linecap:round;stroke-linejoin:round;}
	.st3{fill:#3042FB;}
	.st4{fill:none;stroke:#000000;stroke-width:2;stroke-linecap:round;stroke-linejoin:round;}
	.st5{fill:#3042FB;stroke:#000000;stroke-width:1.8;stroke-linecap:round;stroke-linejoin:round;}
	.st6{fill:none;stroke:#000000;stroke-width:1.8;stroke-linecap:round;stroke-linejoin:round;}
	.st7{fill:#F7FAEF;stroke:#000000;stroke-width:1.8;stroke-linecap:round;stroke-linejoin:round;}
	.st8{fill:none;stroke:#000000;stroke-width:1.8;stroke-miterlimit:10;}
	.st9{clip-path:url(#SVGID_00000075874506147846209220000012685255402107973778_);}
	.st10{clip-path:url(#SVGID_00000067936270366033773340000002543075701234512295_);}
</style>
<g id="Layer_1">
	<g>
		<defs>
			<rect id="SVGID_1_" x="1" y="0.8" width="583.6" height="267.3"/>
		</defs>
		<clipPath id="SVGID_00000173878977440452536370000016135242456948797337_">
			<use xlink:href="#SVGID_1_"  style="overflow:visible;"/>
		</clipPath>
		<g style="clip-path:url(#SVGID_00000173878977440452536370000016135242456948797337_);">
			<path class="st1" d="M66.5,259.9l-2.5-78.4l-25.5-26.3l2.5,78.4L66.5,259.9z"/>
			<path class="st1" d="M32.3,248.4c11.1,4.7,22.5,8.6,34.2,11.6l-25.5-26.3c-11.7-3-23.1-6.9-34.2-11.6L32.3,248.4z"/>
			<path class="st1" d="M77.7,185.3c-5.4-26.9-10.8-53.8-16.1-80.7L36.1,78.3c5.4,26.9,10.7,53.8,16.1,80.7L77.7,185.3z"/>
			<path class="st1" d="M109.9,266.8l4.2,0.2l-25.5-26.3c-11.4-0.6-22.7-1.9-33.9-4L80.2,263C90,264.8,99.9,266.1,109.9,266.8
				L109.9,266.8z"/>
			<path class="st1" d="M114.1,267c-1.7-51.8-3.3-103.6-5-155.3L83.6,85.4c1.7,51.8,3.3,103.5,5,155.3L114.1,267z"/>
			<path class="st2" d="M88.6,240.7c-1.7-51.8-3.3-103.5-5-155.3c-11.4-0.6-22.7-1.9-33.9-4l2.5,77.7c-5.4-26.9-10.8-53.8-16.1-80.7
				c-11.7-3-23.2-6.9-34.3-11.6l5,155.3c11.1,4.7,22.5,8.6,34.2,11.6l-2.5-78.4c5.4,27.2,10.8,54.3,16.3,81.5
				C65.9,238.8,77.2,240.1,88.6,240.7L88.6,240.7z"/>
			<path class="st1" d="M190.7,143.5l-1.2-38.8L164,78.4l1.2,38.8L190.7,143.5z"/>
			<path class="st1" d="M185.9,144.5l4.9-1l-25.5-26.3c-12.9,2.6-25.9,4.6-39,5.9l25.5,26.3C163.2,148.3,174.6,146.6,185.9,144.5z"
				/>
			<path class="st1" d="M152.3,165.7l-0.5-16.3l-25.5-26.3l0.5,16.3L152.3,165.7z"/>
			<path class="st1" d="M152.4,168.2c2.2,11.9,4.3,23.9,6.5,35.8l-25.5-26.3c-2.2-11.9-4.3-23.9-6.5-35.8L152.4,168.2z"/>
			<path class="st1" d="M154.3,227.1l-1.9-58.9l-25.5-26.3l1.9,58.9L154.3,227.1z"/>
			<path class="st1" d="M158.9,204c8.7-1,17.3-2.3,25.9-3.9l-25.5-26.3c-8.6,1.6-17.2,2.9-25.9,3.9L158.9,204z"/>
			<path class="st1" d="M193.2,221.2c-12.9,2.6-25.9,4.6-39,5.9l-25.5-26.3c13.1-1.3,26.1-3.3,39-5.9L193.2,221.2z"/>
			<path class="st1" d="M194.5,260l-1.2-38.8l-25.5-26.3l1.2,38.8L194.5,260z"/>
			<path class="st1" d="M121.8,267.3c24.5,0.4,48.7-2.6,72.7-7.3L169,233.7c-24,4.7-48.2,7.7-72.7,7.3L121.8,267.3z"/>
			<path class="st2" d="M165.2,117.2L164,78.4c-24,4.7-48.2,7.7-72.7,7.3c1.7,51.8,3.3,103.5,5,155.3c24.5,0.4,48.7-2.6,72.7-7.3
				l-1.2-38.8c-12.9,2.6-25.9,4.6-39,5.9l-1.9-58.9c2.2,11.9,4.3,23.9,6.5,35.8c8.7-1,17.3-2.3,25.9-3.9L158,135
				c-10.3,1.9-20.8,3.4-31.2,4.4l-0.5-16.3C139.4,121.8,152.3,119.8,165.2,117.2L165.2,117.2z"/>
			<path class="st1" d="M184.8,200.1l-1.2-38.8L158,135l1.2,38.8L184.8,200.1z"/>
			<path class="st1" d="M263.9,241.3c0.9-46.6,1.9-93.2,2.8-139.8l-25.5-26.3c-0.9,46.6-1.9,93.2-2.8,139.8L263.9,241.3z"/>
			<path class="st1" d="M239.5,216.5c-3.4-40.5-6.8-81-10.2-121.6l-25.5-26.3c3.4,40.5,6.8,81,10.2,121.6L239.5,216.5z"/>
			<path class="st1" d="M300.7,196.7c-3-40.5-6-81-9-121.5l-25.5-26.3c3,40.5,6,81,9,121.5L300.7,196.7z"/>
			<path class="st1" d="M335.2,139l3.6-79.7L313.3,33c-2.4,53.1-4.8,106.2-7.1,159.3l25.5,26.3L335.2,139L335.2,139z"/>
			<path class="st2" d="M309.7,112.7l3.6-79.7c-12,4-24,8-36,12.1c-0.7,41.7-1.4,83.5-2.1,125.2c-3-40.5-6-81-9-121.5
				c-17,5.7-34,11.3-51.1,16.5c-0.4,41.6-0.7,83.2-1.1,124.8c-3.4-40.5-6.8-81-10.2-121.6c-11.9,3.3-23.9,6.4-36.1,9
				c5.8,50.9,11.5,101.7,17.3,152.6c18-4.4,35.7-9.5,53.3-15.1c0.9-46.6,1.9-93.2,2.8-139.8c3.9,45,7.8,90.1,11.7,135.1
				c17.8-5.9,35.5-12,53.2-18L309.7,112.7L309.7,112.7z"/>
			<path class="st1" d="M210.6,256.4c18-4.4,35.7-9.5,53.3-15.1l-25.5-26.3c-17.6,5.6-35.4,10.7-53.3,15.1L210.6,256.4z"/>
			<path class="st1" d="M278.4,236.6c17.8-5.9,35.5-12,53.2-18l-25.5-26.3c-17.7,6-35.5,12-53.2,18L278.4,236.6z"/>
			<path class="st1" d="M379.1,102.5l-0.5-16.3L353,59.9l0.5,16.3L379.1,102.5z"/>
			<path class="st1" d="M410.2,94.5c-10.4,2.5-20.8,5.2-31.1,8.1l-25.5-26.3c10.3-2.9,20.7-5.6,31.1-8.1L410.2,94.5z"/>
			<path class="st1" d="M379.1,105c2.2,11.6,4.3,23.2,6.5,34.8l-25.5-26.3c-2.2-11.6-4.3-23.2-6.5-34.8L379.1,105z"/>
			<path class="st1" d="M381,163.9l-1.9-58.9l-25.5-26.3l1.9,58.9L381,163.9z"/>
			<path class="st1" d="M419.9,154.1c-13.1,2.8-26,6.1-38.8,9.8l-25.5-26.3c12.8-3.6,25.8-7,38.8-9.8L419.9,154.1z"/>
			<path class="st1" d="M421.1,192.9l-1.2-38.8l-25.5-26.3l1.2,38.8L421.1,192.9z"/>
			<path class="st1" d="M348.8,213c23.8-7.7,47.8-14.8,72.3-20.1l-25.5-26.3c-24.5,5.2-48.5,12.4-72.3,20.1L348.8,213z"/>
			<path class="st1" d="M412.5,77.5l4.9-1.1l-25.5-26.3c-13.1,2.8-26,6.1-38.8,9.8l25.5,26.3C389.8,83,401.1,80.1,412.5,77.5
				L412.5,77.5z"/>
			<path class="st1" d="M417.4,76.5l-1.2-38.8l-25.5-26.3l1.2,38.8L417.4,76.5z"/>
			<path class="st1" d="M385.6,139.9c8.6-2.3,17.2-4.5,25.8-6.6L385.9,107c-8.6,2-17.2,4.2-25.8,6.6L385.6,139.9z"/>
			<path class="st1" d="M411.4,133.3l-1.2-38.8l-25.5-26.3l1.2,38.8L411.4,133.3z"/>
			<path class="st2" d="M391.9,50.2l-1.2-38.8c-24.5,5.2-48.5,12.4-72.3,20.1l5,155.3c23.8-7.7,47.8-14.8,72.3-20l-1.2-38.8
				c-13.1,2.8-26,6.1-38.8,9.8l-1.9-58.9c2.2,11.6,4.3,23.2,6.5,34.8c8.6-2.3,17.2-4.5,25.8-6.6l-1.2-38.8
				c-10.4,2.5-20.8,5.2-31.1,8.1L353,59.9C365.9,56.3,378.8,53,391.9,50.2L391.9,50.2z"/>
			<path class="st1" d="M459.2,129.6c-11.1,1.2-22.2,2.9-33.1,5.1l-25.5-26.3c11-2.1,22-3.9,33.1-5.1L459.2,129.6z"/>
			<path class="st1" d="M508.4,143.6c-0.5-23.9-12.4-40.5-32-52.9c-4.6-2.9-35.2-22.6-15.2-27.7c10.8-2.8,10.6,12.3,10,18.9
				l-25.5-26.3c0.5-6.5,0-24.2-10.3-22.6c-8.7,1.4-11.4,14.1-7.2,19c5.3,6.2,19.2,10.1,25.9,14.5c8.9,5.9,16.9,13,22,22.5
				c8.1,15.1,10.7,41.1,2.4,57.1c-7,13.5-22.3,13.8-35.6,14.9c-12.6,1.1-35.8-7.3-35.8-7.3c4.3,6.6,15.7,15.9,25.5,23.5
				c12.2,9.5,19.5,11.6,31.8,10.5c14.8-1.4,32.9-0.6,40.2-16.4C508.5,162.8,508.6,152.7,508.4,143.6L508.4,143.6z"/>
			<path class="st3" d="M427.8,95.1c-9.2-4.9-18.1-10.4-23.8-19.4c-14.6-22.9-8.9-64.8,20.9-71.5c12.3-2.8,31-5.1,41.8,3.2
				c13.5,10.3,13.3,32.8,11.7,48l25.5,26.3c1.5-14.3,1.7-33.7-8.6-45.1C486,26.3,472.1,5.2,453.1,2.2c-14.1-2.2-26.2,29.5-32,43.3
				c-5.5,13-0.4,35,4.4,48.3"/>
			<path class="st4" d="M427.8,95.1c-9.2-4.9-18.1-10.4-23.8-19.4c-14.6-22.9-8.9-64.8,20.9-71.5c12.3-2.8,31-5.1,41.8,3.2
				c13.5,10.3,13.3,32.8,11.7,48l25.5,26.3c1.5-14.3,1.7-33.7-8.6-45.1C486,26.3,472.1,5.2,453.1,2.2c-14.1-2.2-26.2,29.5-32,43.3
				c-5.5,13-0.4,35,4.4,48.3"/>
			<path class="st1" d="M471.2,81.9c10.9-0.7,21.8-0.8,32.6-0.2l-25.5-26.3c-10.9-0.6-21.8-0.5-32.6,0.2L471.2,81.9z"/>
			<path class="st2" d="M482.9,117.3c-0.5-23.9-12.4-40.5-32-52.9c-4.6-2.9-35.2-22.6-15.2-27.7c10.8-2.8,10.6,12.3,10,18.9
				c10.9-0.7,21.8-0.8,32.6-0.2c1.5-14.3,1.7-33.7-8.6-45.1c-9.2-10.2-24.2-8.5-36.5-7.2c-14.3,1.5-26.5,6.9-32.3,20.8
				c-5.5,13-5.7,30.4-1,43.7c3.9,10.9,12.1,18.6,21.8,24.4c7.4,4.4,16.8,7.4,23,13.7c4.8,4.9,8.4,17.6-0.1,20.9
				c-12.7,5-11.6-16.7-10.9-23.1c-11.1,1.2-22.2,2.9-33.1,5.1c-0.6,13.9-1.9,31.6,5.7,44.1c7.5,12.2,20.3,10.1,32.5,8.9
				c14.8-1.4,32.9-0.6,40.2-16.4C483,136.6,483.1,126.5,482.9,117.3L482.9,117.3z"/>
			<path class="st1" d="M568.1,196.4c-1.2-37.8-2.4-75.6-3.6-113.4L539,56.8c1.2,37.8,2.4,75.6,3.6,113.4L568.1,196.4z"/>
			<path class="st1" d="M509.9,30.4l1.3,41.9L485.7,46l-1.3-41.9L509.9,30.4z"/>
			<path class="st1" d="M579,88.3l4.8,2L558.3,64c-6.4-2.7-12.8-5.1-19.4-7.3L564.5,83C569.4,84.7,574.2,86.4,579,88.3L579,88.3z"/>
			<path class="st1" d="M583.8,90.3l-1.3-41.9L557,22.1l1.3,41.9L583.8,90.3z"/>
			<path class="st2" d="M558.3,64L557,22.1c-23.2-9.7-47.6-15.9-72.6-18l1.3,41.9c6.4,0.6,12.8,1.4,19.2,2.4l3.6,113.4
				c11.5,1.9,22.9,4.7,34.1,8.3c-1.2-37.8-2.4-75.6-3.6-113.4C545.5,58.9,552,61.4,558.3,64L558.3,64z"/>
			<path class="st1" d="M534.1,188.1c11.5,1.9,22.9,4.7,34.1,8.3l-25.5-26.3c-11.1-3.6-22.5-6.4-34.1-8.3L534.1,188.1z"/>
		</g>
	</g>
	<path class="st5" d="M425.4,404.4l-2.4-73.5l-25.5-26.3l2.4,73.5L425.4,404.4z"/>
	<path class="st5" d="M392,395.1c11,3.7,22.1,6.8,33.5,9.3l-25.5-26.3c-11.3-2.5-22.5-5.6-33.5-9.3L392,395.1z"/>
	<path class="st3" d="M432.3,304.6c-1.8,8.3,6.5,26.2-0.2,31.7c-7.1,5.8-20.1,9.1-28.3,3.3c-2.1-11.7-4.1-23.3-6.2-35l25.5,26.3
		c2.1,11.7,4.1,23.3,6.2,35c8.4,6.1,21.8,2.4,28.9-3.8c8.2-7.1,11.4-18.2,12.6-28.6c1.4-13,0-26.4-0.4-39.5
		c-0.7-34.1-28-58.2-44.8-64"/>
	<path class="st6" d="M432.3,304.6c-1.8,8.3,6.5,26.2-0.2,31.7c-7.1,5.8-20.1,9.1-28.3,3.3c-2.1-11.7-4.1-23.3-6.2-35l25.5,26.3
		c2.1,11.7,4.1,23.3,6.2,35c8.4,6.1,21.8,2.4,28.9-3.8c8.2-7.1,11.4-18.2,12.6-28.6c1.4-13,0-26.4-0.4-39.5
		c-0.7-34.1-28-58.2-44.8-64"/>
	<path class="st7" d="M444.8,267.7c-0.6-16.6-7.2-33.9-24-39.8c-9.1-3.2-19.4-3.7-28.9-5.9c-10.3-2.4-20.5-5.3-30.5-8.6l5,155.4
		c11,3.7,22.1,6.8,33.5,9.3l-2.4-73.5c2.1,11.7,4.2,23.3,6.2,35c8.4,6.1,21.8,2.4,28.9-3.8c8.2-7.1,11.4-18.2,12.6-28.6
		C446.7,294.2,445.3,280.7,444.8,267.7L444.8,267.7z"/>
	<path class="st5" d="M411.8,272.3c0.3,8.4,0.6,16.2,0.1,30.1c-0.2,7.2-11,5.5-14.5,0.5l-1.5-46
		C406.8,259.2,411.6,260.3,411.8,272.3L411.8,272.3z"/>
	<path class="st5" d="M514.9,411.5l-1.9-59.8l-25.5-26.3l1.9,59.8L514.9,411.5z"/>
	<path class="st5" d="M696.8,290.6c11,0.5,22.1,0.4,33.1-0.1l-25.5-26.3c-11,0.5-22.1,0.5-33.1,0.1L696.8,290.6z"/>
	<path class="st5" d="M564,406.6c-4.7-16.5-9.3-33.1-14-49.6c-1.4-4.9-2.4-12.2-8.3-13.6L516.2,317c5.9,1.4,6.9,8.7,8.3,13.6
		c4.7,16.5,9.3,33.1,14,49.6L564,406.6z"/>
	<path class="st5" d="M528.2,410.7c12-0.9,23.9-2.3,35.8-4.1l-25.5-26.3c-11.9,1.8-23.8,3.2-35.8,4.1L528.2,410.7z"/>
	<path class="st3" d="M495.5,240.6c7.8,7.3,19.8,9.9,20.3,20.1c0.6,11.4-5.8,20.2-10,31.1c-3,7.8,17.4,20.9,10.3,25.2l25.5,26.3
		c12.3-7.6,18.8-20.7,18.4-35.2c-0.5-17-3.7-38.8-16.2-56c-7.5-10.3-23.5-23.3-34.8-23.8"/>
	<path class="st6" d="M495.5,240.6c7.8,7.3,19.8,9.9,20.3,20.1c0.6,11.4-5.8,20.2-10,31.1c-3,7.8,17.4,20.9,10.3,25.2l25.5,26.3
		c12.3-7.6,18.8-20.7,18.4-35.2c-0.5-17-3.7-38.8-16.2-56c-7.5-10.3-23.5-23.3-34.8-23.8"/>
	<path class="st7" d="M534.6,281.9c-0.5-17,1.8-43.8-17.9-51.7c-9-3.6-19.7-1-29-0.5c-12.1,0.6-24.2,0.6-36.4,0.2l5,155.4
		c11,0.5,22.1,0.4,33.1-0.1l-1.9-59.8h0.1c5,19.7,10,39.4,15,59c12-0.9,23.9-2.3,35.8-4.1c-4.7-16.5-9.3-33.1-14-49.6
		c-1.4-4.9-2.4-12.2-8.3-13.6C528.5,309.4,535,296.3,534.6,281.9L534.6,281.9z"/>
	<path class="st5" d="M501.2,275.5c0.4,12.3-1.2,18.9-14.7,19.5l-1-30.9C496.4,263.5,500.9,263.4,501.2,275.5z"/>
	<path class="st5" d="M646.8,268.6c1,21.8,1.4,43.7,2.1,65.5c0.4,13.4,1.7,27-3.2,39.8c-4.4,11.3-12.5,19.5-24.2,22.8
		s-27.6,9.3-38.7,2.5c-9-5.5-36.1-33.6-37.1-43.5c-2.2-20.7,22.2-25.4,21.6-46.2c-0.8-23.7,0.9-89,29.5-97.7
		c11-3.4,23.7,14.3,35.6,27.5C640.2,248.2,646.1,257.8,646.8,268.6L646.8,268.6z"/>
	<path class="st7" d="M621.3,244.3c-0.3-10-2.5-22.1-10.7-28.8c-9.1-7.3-20.1-3.4-30.2-1.1c-13,2.9-24.6,5.1-32.2,17.1
		c-6.5,10.2-7.3,22.2-7,33.9c0.7,24,1.5,47.9,2.3,71.9c0.4,10.4,1.2,21.9,8,30.4c7.4,9.3,17.4,8.8,28.1,6.5c13.8-3,27.2-5,35.8-17.3
		c7.9-11.3,8.8-25.1,8.3-38.5C622.9,293.7,622.1,269,621.3,244.3L621.3,244.3z"/>
	<path class="st5" d="M582.2,338.8c-4.7,0.9-8.7-2.5-8.8-7.7l-1.8-71.2c-0.1-5.2,3.6-10.1,8.3-11.1s8.7,2.5,8.8,7.7l1.8,71.2
		C590.6,332.9,586.9,337.8,582.2,338.8z"/>
	<path class="st5" d="M704.6,325.3l-3.5-108.8l-25.5-26.3c1.1,34.7,2.3,69.5,3.3,104.2c0.6,20.2-0.2,45.2-19.3,57.3
		c-7.6,4.8-19.5,8.6-28.3,5.2l25.5,26.3c11.4,4.4,27.1-2.4,35-10.7C703.6,360.2,705,341.4,704.6,325.3L704.6,325.3z"/>
	<path class="st7" d="M679.1,299l-3.5-108.8c-10.9,3.2-21.9,6.4-32.9,9.5c1,31,2,62.1,3,93.1c0.4,12,0.9,27.2-15.6,25.3l1.2,38.7
		c11.4,4.4,27.1-2.4,35-10.7C678.1,333.9,679.5,315.1,679.1,299L679.1,299z"/>
	<path class="st5" d="M743.9,259.7l-0.5-16.3L717.9,217l0.5,16.3L743.9,259.7z"/>
	<path class="st5" d="M744,262.1c2.2,11.6,4.3,23.2,6.5,34.8L725,270.7c-2.2-11.6-4.3-23.2-6.5-34.8L744,262.1z"/>
	<path class="st5" d="M745.9,321l-1.9-58.9l-25.5-26.3l1.9,58.9L745.9,321z"/>
	<path class="st5" d="M713.7,369.7c24-7.1,48.1-14.1,72.3-20.6l-25.5-26.3c-24.2,6.5-48.2,13.5-72.3,20.6L713.7,369.7z"/>
	<path class="st5" d="M772.5,235.1l9.7-2.6l-25.5-26.3c-13,3.5-25.9,7.1-38.8,10.8l25.5,26.3C753.1,240.6,762.8,237.8,772.5,235.1z"
		/>
	<path class="st5" d="M782.2,232.5l-1.2-38.8l-25.5-26.3l1.2,38.9L782.2,232.5z"/>
	<path class="st5" d="M750.5,297c8.6-2.4,17.2-4.8,25.8-7.2l-25.5-26.3c-8.6,2.4-17.2,4.8-25.8,7.2L750.5,297z"/>
	<path class="st7" d="M756.7,206.2l-1.2-38.9c-24.2,6.5-48.2,13.5-72.3,20.6l5,155.4c24-7.1,48.1-14.1,72.3-20.6l-1.2-38.9
		c-13,3.5-25.9,7.1-38.8,10.8l-1.9-58.9c2.2,11.6,4.3,23.2,6.5,34.8c8.6-2.4,17.2-4.8,25.8-7.2l-1.2-38.9
		c-10.4,2.8-20.7,5.8-31.1,8.7l-0.5-16.3C730.8,213.3,743.7,209.7,756.7,206.2L756.7,206.2z"/>
	<path class="st5" d="M776.3,289.8l-1.2-38.9l-25.5-26.3l1.2,38.9L776.3,289.8z"/>
	<path class="st5" d="M785.9,349.1l-1.2-38.9l-25.5-26.3l1.2,38.9L785.9,349.1z"/>
	<path class="st8" d="M838.5,278c0.2,7,3.1,20.6-4.7,24.9c-8.7,4.7-10.5-4.9-10.9-11.1c-1.1-18.9-1.2-37.8-1.8-56.7
		c-0.2-6.3-1.1-17.1,7.4-18.4c10.6-1.5,8.6,16.3,8.8,22.5l-25.5-26.3c-0.2-5.6,1.7-20.5-6-22.5c-9.3-2.4-10.3,10-10.3,15.9
		c0.2,18.9,1.2,37.8,1.8,56.7c0.2,5.7-0.3,15.3,7.8,14.7c11.4-0.9,8.1-18.7,7.9-25.8L838.5,278z"/>
	<path class="st5" d="M868.8,213.6l0.6,20c-10.8,1.6-21.5,3.5-32.2,5.5c-0.2-5.6,1.7-20.5-6-22.5c-9.3-2.4-10.3,10-10.3,15.9
		c0.2,18.9,1.2,37.8,1.8,56.7c0.2,5.7-4.3,7.1,3.8,6.4c11.4-0.9,12.1-10.4,11.9-17.6c4.7-0.9,6.7-31.8,6.7-31.8l25.5,26.3
		c0,0,3.2,53.6-30.1,63c-17.9,5-32.2,12.2-48.4-3.9c-7.4-7.4-19.6-21.4-24.7-34.5c-6.7-17.5,21.6-45,21.1-63.8
		c-0.7-24.1,1.7-79.3,27.5-81.3c18.1-1.4,31.5,18.8,40.8,30.8C863.9,191.8,868.5,202.7,868.8,213.6L868.8,213.6z"/>
	<path class="st5" d="M861.4,234.8l8.1-1.2l-25.5-26.3c-10.8,1.6-21.5,3.5-32.2,5.5l25.5,26.3C845.3,237.6,853.3,236.2,861.4,234.8z
		"/>
	<path class="st7" d="M843.9,207.3c-0.6-18.4,1.5-54.9-25.6-55.4c-27.1-0.5-50,11.4-54.5,38.4c-2.8,16.9-0.2,35.1,0.4,52.1
		c0.5,15.9-0.4,32.4,2,48.1c1.3,8.8,4.7,18.6,12.9,23.2c9.5,5.4,20.8,0.9,30.6-1.1c13.6-2.8,24.6-6.4,31.2-19.7
		c7.1-14.4,4.8-31.3,4.3-46.8c-10.8,1.6-21.5,3.5-32.2,5.5c0.2,7,3.1,20.6-4.7,24.9c-8.7,4.7-10.5-4.9-10.9-11.1
		c-1.1-18.9-1.2-37.8-1.8-56.7c-0.2-6.3-1.1-17.1,7.4-18.4c10.6-1.5,8.6,16.3,8.8,22.5C822.5,210.8,833.2,208.9,843.9,207.3
		L843.9,207.3z"/>
	<path class="st5" d="M873.9,174.5l1.3,42l-25.5-26.3l-1.3-42L873.9,174.5z"/>
	<path class="st5" d="M942.4,212.8l4.8,0.2l-25.5-26.3c-6.4-0.3-12.8-0.4-19.1-0.3l25.5,26.3C932.9,212.6,937.6,212.6,942.4,212.8z"
		/>
	<path class="st5" d="M947.2,212.9l-1.4-42l-25.5-26.3l1.3,42L947.2,212.9z"/>
	<path class="st5" d="M931.7,326.1l-3.6-113.4l-25.5-26.3l3.6,113.4L931.7,326.1z"/>
	<path class="st5" d="M898,327.8c11.2-1,22.5-1.6,33.7-1.7l-25.5-26.3c-11.3,0.1-22.5,0.7-33.7,1.7L898,327.8z"/>
	<path class="st7" d="M921.7,186.6l-1.3-42c-24.1-0.8-48,0.5-71.9,3.5l1.3,42c6.3-0.8,12.7-1.5,19.1-2.1l3.6,113.4
		c11.2-1,22.5-1.6,33.7-1.7l-3.6-113.4C908.9,186.3,915.3,186.4,921.7,186.6L921.7,186.6z"/>
	<path class="st8" d="M989.3,273.7c-11.1-1.8-22.2-3.1-33.4-3.8l-25.5-26.3c11.2,0.7,22.3,2,33.4,3.8L989.3,273.7z"/>
	<path class="st3" d="M969.8,227.3c9.9,18.7,19.1,36,31.2,52.2c3.4,4.6,8.4,18.1-0.3,20c-12.8,2.9-12-19.3-11.3-25.9l-25.5-26.3
		c-0.8,7.6-2,23.5,8.4,25.6c9.3,1.9,8.4-9.9,5.8-15.5c-7.5-16.4-29.4-24.4-40.1-38.9c-11.8-16-18.4-48.2-3.5-64.7
		c10.8-12,32.3-6.7,45.8-2.3"/>
	<path class="st6" d="M969.8,227.3c9.9,18.7,19.1,36,31.2,52.2c3.4,4.6,8.4,18.1-0.3,20c-12.8,2.9-12-19.3-11.3-25.9l-25.5-26.3
		c-0.8,7.6-2,23.5,8.4,25.6c9.3,1.9,8.4-9.9,5.8-15.5c-7.5-16.4-29.4-24.4-40.1-38.9c-11.8-16-18.4-48.2-3.5-64.7
		c10.8-12,32.3-6.7,45.8-2.3"/>
	<path class="st5" d="M1008.9,212.2l25.5,26.3c2.3-20.7-0.9-52.2-40.9-80.3L1008.9,212.2L1008.9,212.2z"/>
	<path class="st3" d="M980.6,194.9c0.6-6.6-6.6-16.7-13.6-20.2c-7.4-3.7-16.5,3.4-14.2,9.9c2.4,6.5,7.6,17.4,12.6,21.8
		c7.3,6.4,24.3,14.6,30.5,22.1c14.9,17.9,21.6,43.1,16.1,66c-5.5,22.9-30.3,14-47.5,11.2c-13.1-2.2-23.7-6.3-29.4-19.1
		c-5.9-13.1-5.3-28.9-4.7-43l0.7,28.9c3.5,19.5,15.9,43.5,31.3,53.6c9.6,6.3,39.1,8.8,50.5,10c7.2,0.8,15,0.5,20.1-5.4
		c6.3-7.4,6.1-19.6,5.9-28.7c-0.4-26-24.3-56.9-43-73.6c-2.9-2.6-26.1-30-4.4-20.3"/>
	<path class="st6" d="M980.6,194.9c0.6-6.6-6.6-16.7-13.6-20.2c-7.4-3.7-16.5,3.4-14.2,9.9c2.4,6.5,7.6,17.4,12.6,21.8
		c7.3,6.4,24.3,14.6,30.5,22.1 M995.9,228.4c14.9,17.9,21.6,43.1,16.1,66c-5.5,22.9-30.3,14-47.5,11.2c-13.1-2.2-23.7-6.3-29.4-19.1
		c-5.9-13.1-5.3-28.9-4.7-43l0.7,28.9c3.5,19.5,15.9,43.5,31.3,53.6c9.6,6.3,39.1,8.8,50.5,10c7.2,0.8,15,0.5,20.1-5.4
		c6.3-7.4,6.1-19.6,5.9-28.7C1038.6,276.1,1014.6,245.2,995.9,228.4z M995.9,228.4c-2.9-2.6-26.1-30-4.4-20.3"/>
	<path class="st7" d="M1013.4,275.7c-0.4-26-13.6-45.5-32.3-62.2c-2.9-2.6-34.8-31.5-15.1-31.7c10.4-0.1,10.5,14.5,9.9,21.5
		c11.1,2.4,22.1,5.4,32.9,8.9c2.3-20.7-0.5-46.9-20.9-57.6c-11.7-6.2-35.4-12-47.8-5.2c-19.5,10.7-15.3,45.6-6.7,61.7
		c9.9,18.7,30,25.8,42.1,42c3.4,4.6,8.4,18.1-0.3,20c-12.8,2.9-12-19.3-11.3-25.9c-11.1-1.8-22.2-3.1-33.4-3.8
		c-0.8,20-1.8,49.3,20.3,58.8c10.5,4.5,25.3,6.2,36.7,7.4c7.2,0.8,15,0.5,20.1-5.4C1013.8,297.1,1013.6,284.8,1013.4,275.7
		L1013.4,275.7z"/>
	<path class="st5" d="M1001.4,229.6c11.1,2.4,22.1,5.4,32.9,8.9l-25.5-26.3c-10.8-3.6-21.8-6.5-32.9-8.9L1001.4,229.6z"/>
	<path class="st5" d="M481.8,412c11,0.5,22.1,0.4,33.1-0.1l-25.5-26.3c-11,0.5-22.1,0.5-33.1,0.1L481.8,412z"/>
</g>
<g id="Layer_2">
	<g>
		<defs>
			<rect id="SVGID_00000002365242731211728500000018048494661945343160_" x="36.1" y="39.2" width="124.7" height="26.1"/>
		</defs>
		<clipPath id="SVGID_00000109743977132081872330000004709482756825021346_">
			<use xlink:href="#SVGID_00000002365242731211728500000018048494661945343160_"  style="overflow:visible;"/>
		</clipPath>
		<g style="clip-path:url(#SVGID_00000109743977132081872330000004709482756825021346_);">
			<path d="M39.4,39.2l11.5,2.3l-0.4,2.1l-9.4-1.8l-1,5.2l8.3,1.6l-0.4,2l-8.3-1.6l-1,5.3l9.7,1.9l-0.4,2.1l-11.8-2.3L39.4,39.2z"/>
			<path d="M55.3,52.8l-3.7-6.3l2.7,0.4l2.7,4.7l3.8-3.8l2.3,0.3l-5.2,5.1l4.2,6.9l-2.7-0.4l-3.1-5.3l-4.5,4.3l-2.5-0.3L55.3,52.8
				L55.3,52.8z"/>
			<path d="M65.1,48.4l2.1,0.2l-0.3,4.1l-0.5,0c0.2-0.7,0.5-1.4,1-2c0.5-0.6,1.1-1.2,1.9-1.5c0.8-0.4,1.7-0.5,2.7-0.4
				c1,0.1,1.8,0.4,2.6,1c0.8,0.6,1.4,1.4,1.8,2.4c0.4,1,0.6,2.2,0.4,3.5c-0.1,1.3-0.4,2.4-1,3.3c-0.6,0.9-1.3,1.6-2.2,2
				c-0.9,0.4-1.8,0.6-2.8,0.5c-1-0.1-1.8-0.4-2.5-0.9c-0.7-0.5-1.2-1.1-1.5-1.8c-0.3-0.7-0.5-1.4-0.5-2.1l0.3,1.2l-0.7,7.7l-2.1-0.2
				L65.1,48.4L65.1,48.4z M72.3,59c0.6-0.3,1.1-0.8,1.5-1.5c0.4-0.6,0.6-1.4,0.7-2.3c0.1-0.9,0-1.7-0.3-2.4
				c-0.3-0.7-0.7-1.3-1.2-1.7c-0.6-0.4-1.2-0.7-2-0.7c-0.8-0.1-1.5,0.1-2.1,0.4c-0.6,0.3-1.2,0.8-1.6,1.5c-0.4,0.7-0.6,1.4-0.7,2.3
				c-0.1,0.9,0,1.7,0.3,2.4c0.3,0.7,0.7,1.3,1.3,1.7c0.6,0.4,1.2,0.7,2,0.7C71,59.4,71.6,59.3,72.3,59L72.3,59z"/>
			<path d="M79.8,44.6l2.1,0.1L81,61.6l-2.1-0.1L79.8,44.6z"/>
			<path d="M86.9,61.3c-0.9-0.5-1.6-1.3-2.2-2.3c-0.5-1-0.8-2.1-0.8-3.4c0-1.3,0.3-2.4,0.9-3.3c0.6-1,1.3-1.7,2.2-2.2
				c0.9-0.5,1.9-0.8,3-0.7c1.1,0,2.1,0.3,3,0.8c0.9,0.5,1.6,1.3,2.2,2.3c0.5,1,0.8,2.1,0.8,3.4c0,1.3-0.3,2.4-0.9,3.3
				c-0.6,1-1.3,1.7-2.2,2.2c-0.9,0.5-1.9,0.8-3,0.7C88.8,62.2,87.8,61.9,86.9,61.3L86.9,61.3z M91.9,59.7c0.6-0.4,1-0.9,1.4-1.6
				c0.3-0.7,0.5-1.5,0.5-2.3s-0.1-1.7-0.4-2.4c-0.3-0.7-0.8-1.2-1.3-1.6c-0.6-0.4-1.3-0.6-2-0.6c-0.8,0-1.5,0.2-2,0.5
				c-0.6,0.4-1,0.9-1.4,1.6c-0.3,0.7-0.5,1.5-0.5,2.4s0.1,1.7,0.4,2.4c0.3,0.7,0.8,1.2,1.3,1.6c0.6,0.4,1.2,0.6,2,0.6
				C90.6,60.3,91.3,60.1,91.9,59.7z"/>
			<path d="M98.4,49.8l2.1-0.1l0.1,3c0.4-1.1,0.9-1.9,1.5-2.5c0.6-0.6,1.4-0.9,2.4-0.9c0.3,0,0.7,0,1,0.1l0.1,2.2
				c-0.3,0-0.6-0.1-1,0c-0.8,0-1.5,0.2-2,0.6c-0.6,0.4-1,1-1.3,1.8c-0.3,0.8-0.4,1.9-0.4,3.3l0.1,4.6l-2.1,0.1L98.4,49.8z"/>
			<path d="M109.7,60.9c-0.9-0.5-1.7-1.2-2.2-2.1c-0.5-0.9-0.8-2-0.9-3.3c-0.1-1.2,0.1-2.3,0.6-3.3c0.4-1,1.1-1.8,1.9-2.4
				c0.8-0.6,1.8-0.9,2.9-1c1.2-0.1,2.3,0.1,3.2,0.6c0.9,0.5,1.6,1.2,2.1,2.1c0.5,0.9,0.8,2.1,0.9,3.4l0,0.3L107.7,56l0.9-1.1
				c0,0.1,0,0.2,0,0.3c0,0.1,0,0.2,0,0.3c0.1,0.9,0.3,1.7,0.6,2.3c0.3,0.6,0.8,1.1,1.4,1.5c0.6,0.3,1.4,0.5,2.2,0.4
				c0.8-0.1,1.5-0.3,2.2-0.8c0.6-0.5,1.1-1.1,1.5-1.9l1.6,1.1c-0.4,0.9-1.1,1.6-2,2.3c-0.9,0.7-1.9,1-3.2,1.1
				C111.7,61.6,110.6,61.4,109.7,60.9L109.7,60.9z M115.4,52.1c-0.3-0.5-0.8-0.9-1.3-1.2c-0.6-0.2-1.2-0.3-2-0.3
				c-0.7,0-1.2,0.2-1.7,0.5c-0.5,0.3-0.9,0.7-1.2,1.2c-0.3,0.5-0.5,1.1-0.5,1.7l8.4-0.6l-1,1l0-0.4
				C115.9,53.3,115.7,52.6,115.4,52.1L115.4,52.1z"/>
			<path d="M124.1,48.1l2.5-0.3l-0.5-3.6l2.1-0.3l0.5,3.6l3.2-0.4l0.2,1.7l-3.2,0.4l0.9,6.8c0.1,0.6,0.3,1,0.6,1.3
				c0.3,0.2,0.8,0.3,1.4,0.2c0.3,0,0.6-0.1,0.8-0.2c0.2-0.1,0.5-0.2,0.7-0.3l0.2,1.8c-0.2,0.2-0.5,0.3-0.9,0.4
				c-0.3,0.1-0.7,0.2-1.1,0.3c-1.1,0.1-2,0-2.7-0.6c-0.7-0.5-1.1-1.4-1.2-2.6l-0.9-6.8l-2.5,0.3L124.1,48.1L124.1,48.1z"/>
			<path d="M133.3,41.9l2.1-0.4l1.8,9.8l-0.4,0.1c-0.1-1,0-2,0.2-2.9c0.3-0.9,0.7-1.6,1.3-2.2c0.6-0.6,1.4-1,2.3-1.1
				c0.9-0.2,1.8-0.1,2.5,0.2c0.8,0.3,1.4,0.8,1.9,1.5c0.5,0.7,0.9,1.6,1.1,2.7l1.3,6.9l-2.1,0.4l-1.2-6.6c-0.1-0.8-0.4-1.5-0.7-1.9
				c-0.3-0.5-0.8-0.8-1.2-1c-0.5-0.2-1.1-0.2-1.7-0.1c-0.7,0.1-1.3,0.4-1.8,0.9c-0.5,0.5-0.9,1.1-1.1,1.9c-0.2,0.8-0.2,1.7-0.1,2.6
				l1,5.4l-2.1,0.4L133.3,41.9L133.3,41.9z"/>
			<path d="M152.8,54.7c-1-0.3-1.8-0.9-2.5-1.7c-0.7-0.8-1.2-1.9-1.5-3.1c-0.3-1.2-0.3-2.3,0-3.3s0.8-1.9,1.5-2.7
				c0.7-0.7,1.6-1.2,2.7-1.5c1.2-0.3,2.3-0.3,3.2,0c1,0.3,1.8,0.9,2.5,1.7c0.7,0.8,1.2,1.9,1.5,3.2l0.1,0.3l-10.2,2.5l0.7-1.2
				c0,0.1,0.1,0.2,0.1,0.3c0,0.1,0,0.2,0.1,0.3c0.2,0.9,0.6,1.6,1,2.2s1,1,1.7,1.2c0.7,0.2,1.4,0.2,2.2,0c0.8-0.2,1.5-0.6,2-1.2
				c0.5-0.6,0.9-1.3,1.2-2.1l1.8,0.8c-0.3,0.9-0.8,1.8-1.5,2.6c-0.7,0.8-1.7,1.3-3,1.7C155,55,153.8,55,152.8,54.7L152.8,54.7z
				 M156.9,45.1c-0.4-0.5-0.9-0.8-1.5-0.9c-0.6-0.1-1.3-0.1-2,0.1c-0.6,0.2-1.2,0.4-1.6,0.8c-0.4,0.4-0.8,0.9-1,1.4
				c-0.2,0.6-0.3,1.1-0.2,1.8l8.2-2l-0.8,1.2l-0.1-0.4C157.7,46.2,157.4,45.5,156.9,45.1L156.9,45.1z"/>
		</g>
	</g>
	<g>
		<defs>
			<rect id="SVGID_00000088844806971525760090000005424616348340712876_" x="732.2" y="349.1" width="248.2" height="52.7"/>
		</defs>
		<clipPath id="SVGID_00000134968646691136680660000009201669055791477947_">
			<use xlink:href="#SVGID_00000088844806971525760090000005424616348340712876_"  style="overflow:visible;"/>
		</clipPath>
		<g style="clip-path:url(#SVGID_00000134968646691136680660000009201669055791477947_);">
			<path d="M732.2,385.5l2.1-0.8l0.9,2.6l-2.1,0.8L732.2,385.5z M734,390.3l2-0.7l4.1,11.5l-2,0.7L734,390.3z"/>
			<path d="M738.9,388.5l2-0.7l1.7,4.8l-0.4,0.1c-0.3-1-0.4-2-0.2-2.9c0.1-0.9,0.5-1.7,1-2.4c0.5-0.7,1.2-1.2,2.1-1.5
				c0.9-0.3,1.7-0.4,2.5-0.2c0.8,0.2,1.5,0.6,2.1,1.2c0.6,0.6,1.1,1.5,1.5,2.5l2.3,6.8l-2,0.7l-2.2-6.4c-0.3-0.8-0.6-1.4-1-1.8
				c-0.4-0.4-0.9-0.7-1.4-0.8c-0.5-0.1-1.1,0-1.7,0.2c-0.7,0.2-1.2,0.7-1.7,1.2c-0.4,0.6-0.7,1.3-0.8,2.1c-0.1,0.8,0,1.7,0.4,2.7
				l1.8,5.2l-2,0.7L738.9,388.5L738.9,388.5z"/>
			<path d="M760.6,388.1l0.2,0.3c0.7,1,1.5,1.6,2.4,1.9s1.9,0.2,3-0.1c0.7-0.2,1.3-0.6,1.7-1c0.4-0.4,0.7-0.8,0.9-1.3
				c0.1-0.5,0.1-1,0-1.5c-0.3-0.8-0.7-1.4-1.3-1.6s-1.5-0.4-2.7-0.3l-1.9,0.1c-0.9,0-1.7-0.1-2.4-0.2c-0.7-0.2-1.3-0.5-1.8-1
				c-0.5-0.5-0.9-1.1-1.2-1.9c-0.3-0.9-0.3-1.8-0.1-2.6c0.2-0.8,0.7-1.6,1.3-2.2c0.7-0.6,1.5-1.1,2.4-1.4c1.4-0.5,2.6-0.5,3.8-0.1
				c1.2,0.4,2.1,1.1,2.9,2.3l0.1,0.1l-1.6,1.3l-0.1-0.1c-0.6-0.8-1.2-1.3-2-1.6s-1.6-0.2-2.6,0.1c-0.6,0.2-1.1,0.5-1.5,0.8
				c-0.4,0.3-0.7,0.7-0.8,1.2c-0.2,0.4-0.2,0.9,0,1.4c0.2,0.7,0.6,1.2,1.2,1.4c0.6,0.3,1.4,0.4,2.3,0.3l2.2-0.1
				c1.5-0.1,2.8,0.2,3.7,0.7c1,0.5,1.6,1.4,2,2.7c0.3,0.9,0.3,1.8,0.1,2.7c-0.2,0.9-0.7,1.7-1.4,2.3c-0.7,0.7-1.6,1.2-2.7,1.6
				c-1.6,0.5-3,0.6-4.2,0.2c-1.2-0.4-2.3-1.2-3.1-2.3l-0.3-0.4L760.6,388.1L760.6,388.1z"/>
			<path d="M769.5,372.7l2-0.6l3,9.7l-0.4,0.1c-0.2-1-0.3-2-0.1-2.9c0.2-0.9,0.5-1.7,1.1-2.4c0.6-0.7,1.3-1.1,2.1-1.4
				c0.9-0.3,1.7-0.3,2.5-0.1c0.8,0.2,1.5,0.7,2.1,1.3c0.6,0.7,1,1.5,1.4,2.6l2.1,6.8l-2,0.6l-2-6.5c-0.2-0.8-0.6-1.4-1-1.9
				c-0.4-0.5-0.8-0.7-1.4-0.9s-1.1-0.1-1.7,0.1c-0.7,0.2-1.3,0.6-1.7,1.2c-0.5,0.6-0.7,1.3-0.9,2.1c-0.1,0.8,0,1.7,0.3,2.7l1.6,5.3
				l-2,0.6L769.5,372.7L769.5,372.7z"/>
			<path d="M788.4,384.2c-0.9-0.4-1.5-1.2-1.8-2.4c-0.4-1.5-0.2-2.7,0.6-3.6c0.8-0.9,2.1-1.6,3.8-2.2c0.7-0.2,1.4-0.4,2-0.5l0.5-0.1
				l-0.1-0.4c-0.3-0.9-0.7-1.6-1.4-1.9c-0.6-0.3-1.5-0.3-2.5,0c-0.5,0.2-0.9,0.4-1.3,0.7c-0.4,0.3-0.7,0.6-0.8,1
				c-0.2,0.4-0.2,0.8-0.2,1.3l-2,0.2c-0.1-0.7-0.1-1.4,0.2-2c0.3-0.7,0.7-1.2,1.4-1.8c0.6-0.5,1.4-0.9,2.2-1.1c1.6-0.5,3-0.5,4,0.1
				c1.1,0.5,1.8,1.6,2.3,3.2l1.3,4.6c0.1,0.5,0.3,0.8,0.5,0.9c0.2,0.1,0.5,0.1,0.9,0c0.3-0.1,0.5-0.2,0.7-0.4l0.5,1.6l-0.1,0.1
				c-0.1,0.1-0.3,0.2-0.5,0.4c-0.2,0.1-0.4,0.2-0.7,0.3c-0.7,0.2-1.4,0.1-1.9-0.2c-0.5-0.4-0.9-1-1.2-2l-0.3-1.1l0.4,0.1
				c0.1,0.7,0.1,1.4-0.1,2.1c-0.2,0.7-0.6,1.4-1.1,1.9c-0.5,0.6-1.3,1-2.1,1.2C790.3,384.6,789.3,384.6,788.4,384.2L788.4,384.2z
				 M793.9,380.5c0.4-0.8,0.5-1.8,0.2-2.9l-0.5-1.7l1.2,0.9c-1,0.2-2,0.4-3,0.7c-1.4,0.4-2.4,0.9-2.9,1.5c-0.5,0.6-0.7,1.2-0.5,2.1
				c0.2,0.6,0.5,1.1,1.1,1.3c0.5,0.2,1.2,0.2,2,0C792.7,381.9,793.4,381.4,793.9,380.5L793.9,380.5z"/>
			<path d="M797.5,369.4l2-0.6l0.8,3c0.1-1.2,0.4-2.1,0.9-2.8c0.5-0.7,1.2-1.2,2.1-1.5c0.3-0.1,0.7-0.1,1-0.2l0.6,2.1
				c-0.3,0-0.6,0.1-1,0.2c-0.8,0.2-1.4,0.6-1.9,1.1c-0.5,0.5-0.8,1.2-0.9,2.1c-0.1,0.9,0,2,0.4,3.3l1.2,4.5l-2,0.6L797.5,369.4z"/>
			<path d="M810.6,377.9c-1-0.3-1.8-0.9-2.5-1.7c-0.7-0.8-1.2-1.9-1.5-3.2c-0.3-1.2-0.3-2.3-0.1-3.4c0.3-1.1,0.8-2,1.5-2.7
				s1.6-1.2,2.6-1.5c1.2-0.3,2.2-0.3,3.2,0c1,0.3,1.8,0.9,2.5,1.7c0.7,0.9,1.2,1.9,1.5,3.2l0.1,0.3l-10.2,2.7l0.7-1.3
				c0,0.1,0.1,0.2,0.1,0.3s0,0.2,0.1,0.3c0.2,0.9,0.6,1.6,1,2.2c0.5,0.6,1,1,1.7,1.2c0.7,0.2,1.4,0.2,2.3,0c0.8-0.2,1.5-0.6,2-1.2
				c0.5-0.6,0.9-1.3,1.2-2.1l1.8,0.8c-0.3,1-0.8,1.8-1.5,2.6c-0.7,0.8-1.7,1.4-3,1.7C812.8,378.2,811.7,378.2,810.6,377.9
				L810.6,377.9z M814.7,368c-0.4-0.5-0.9-0.8-1.5-0.9c-0.6-0.1-1.3-0.1-2,0.1c-0.6,0.2-1.2,0.4-1.6,0.9c-0.4,0.4-0.8,0.9-1,1.4
				s-0.3,1.2-0.2,1.8l8.2-2.1l-0.8,1.2l-0.1-0.4C815.4,369.1,815.1,368.5,814.7,368L814.7,368z"/>
			<path d="M823.3,374.9c-0.7-0.3-1.3-0.8-1.8-1.4c-0.5-0.7-0.9-1.6-1.1-2.7l-1.6-7.1l2-0.5l1.5,6.6c0.3,1.2,0.7,2.1,1.3,2.6
				c0.6,0.5,1.3,0.7,2.2,0.5c0.7-0.2,1.3-0.5,1.8-1c0.5-0.5,0.8-1.2,1-2.1c0.2-0.9,0.1-1.9-0.2-3.1l-1.1-5l2.1-0.5l2.7,11.9l-2,0.5
				l-0.7-3.1c-0.1,0.7-0.3,1.4-0.6,2c-0.3,0.6-0.7,1.1-1.2,1.5c-0.5,0.4-1.1,0.7-1.8,0.9C824.8,375.2,824,375.1,823.3,374.9
				L823.3,374.9z"/>
			<path d="M832.8,360.4l2-0.4l0.6,3.1c0.1-0.7,0.3-1.4,0.7-2c0.3-0.6,0.8-1.1,1.3-1.5c0.5-0.4,1.2-0.6,1.8-0.8
				c1.1-0.2,2.1-0.1,2.9,0.4c0.8,0.5,1.5,1.2,1.9,2.3c0.1-0.7,0.4-1.4,0.7-2c0.3-0.6,0.8-1.1,1.3-1.5c0.5-0.4,1.2-0.7,1.9-0.8
				c0.9-0.2,1.7-0.1,2.5,0.2c0.7,0.3,1.4,0.8,1.8,1.5c0.5,0.7,0.8,1.6,1,2.7l1.3,7.1l-2.1,0.4l-1.2-6.6c-0.1-0.8-0.4-1.5-0.7-2
				c-0.3-0.5-0.7-0.9-1.2-1.1c-0.5-0.2-1-0.2-1.7-0.1c-0.7,0.1-1.3,0.5-1.8,1c-0.5,0.5-0.9,1.2-1.1,2c-0.2,0.8-0.2,1.7-0.1,2.7
				l1,5.5l-2.1,0.4l-1.2-6.6c-0.1-0.8-0.4-1.5-0.7-2c-0.3-0.5-0.7-0.9-1.2-1.1c-0.5-0.2-1-0.2-1.7-0.1c-0.7,0.1-1.3,0.5-1.8,1
				c-0.5,0.5-0.9,1.2-1.1,2c-0.2,0.8-0.2,1.7-0.1,2.7l1,5.5l-2.1,0.4L832.8,360.4L832.8,360.4z"/>
			<path d="M861.1,350.5l11.6-1.4l0.3,2.1l-9.5,1.2l0.6,5.3l8.4-1l0.3,2.1l-8.4,1l0.7,5.4l9.8-1.2l0.3,2.1l-12,1.5L861.1,350.5
				L861.1,350.5z"/>
			<path d="M879.3,365.3c-1-0.4-1.7-1.1-2.3-2c-0.6-0.9-0.9-2.1-1.1-3.4c-0.1-1.3,0.1-2.5,0.5-3.5c0.5-1,1.1-1.8,2-2.4
				c0.9-0.6,1.8-0.9,2.9-1c1.2-0.1,2.3,0.1,3.2,0.6c1,0.5,1.7,1.2,2.2,2.1l-1.7,1.2c-0.4-0.7-0.9-1.3-1.5-1.6
				c-0.6-0.3-1.3-0.5-2.1-0.4c-0.7,0.1-1.3,0.3-1.9,0.7c-0.5,0.4-1,1-1.2,1.7c-0.3,0.7-0.4,1.6-0.3,2.5c0.1,1,0.3,1.8,0.7,2.4
				c0.4,0.7,0.9,1.1,1.5,1.4c0.6,0.3,1.3,0.4,2,0.4c0.8-0.1,1.5-0.3,2.1-0.8c0.6-0.5,1-1.1,1.3-2l1.8,1c-0.4,1.1-1.1,1.9-1.9,2.6
				c-0.8,0.7-1.9,1-3.1,1.2C881.3,365.9,880.3,365.8,879.3,365.3L879.3,365.3z"/>
			<path d="M892.1,364.3c-0.9-0.5-1.7-1.2-2.3-2.2c-0.6-0.9-0.9-2.1-1-3.3c-0.1-1.3,0.2-2.4,0.7-3.4c0.5-1,1.2-1.8,2.1-2.4
				c0.9-0.6,1.9-0.9,2.9-1c1.1-0.1,2.1,0.2,3,0.6c0.9,0.5,1.7,1.2,2.3,2.2c0.6,0.9,0.9,2.1,1,3.3c0.1,1.3-0.2,2.4-0.7,3.4
				c-0.5,1-1.2,1.8-2.1,2.4c-0.9,0.6-1.9,0.9-2.9,0.9C894,365,893,364.8,892.1,364.3z M897,362.3c0.6-0.4,1-1,1.3-1.7
				c0.3-0.7,0.4-1.5,0.4-2.4c0-0.9-0.2-1.7-0.6-2.4c-0.4-0.7-0.8-1.2-1.4-1.5c-0.6-0.4-1.3-0.5-2.1-0.5c-0.8,0-1.4,0.3-2,0.7
				c-0.6,0.4-1,1-1.3,1.7c-0.3,0.7-0.4,1.5-0.4,2.4c0,0.9,0.2,1.7,0.6,2.4c0.4,0.7,0.8,1.2,1.4,1.5c0.6,0.3,1.3,0.5,2.1,0.4
				C895.8,362.9,896.4,362.7,897,362.3L897,362.3z"/>
			<path d="M905.5,362.1c0.6,0.5,1.4,0.7,2.3,0.7c0.9,0,1.6-0.2,2.1-0.6c0.5-0.4,0.7-0.8,0.7-1.4c0-0.5-0.2-0.9-0.5-1.2
				c-0.3-0.3-0.9-0.5-1.8-0.6l-1.8-0.3c-1.2-0.2-2-0.6-2.6-1.1c-0.6-0.6-0.9-1.3-0.9-2.2c0-0.7,0.2-1.4,0.5-2c0.4-0.6,0.9-1,1.6-1.3
				c0.7-0.3,1.5-0.5,2.3-0.5c0.7,0,1.4,0.1,2.1,0.3c0.6,0.2,1.2,0.6,1.7,1c0.5,0.4,0.8,0.9,1.1,1.5l-1.8,1c-0.2-0.6-0.5-1.1-1.1-1.5
				c-0.5-0.4-1.2-0.6-2-0.6c-0.8,0-1.4,0.2-1.9,0.5c-0.4,0.3-0.7,0.7-0.7,1.2c0,0.5,0.2,0.8,0.5,1c0.3,0.2,0.9,0.4,1.7,0.5l2.1,0.4
				c1.2,0.2,2,0.6,2.6,1.2c0.6,0.6,0.9,1.4,0.9,2.3c0,0.8-0.2,1.5-0.6,2.1c-0.4,0.6-1,1.1-1.7,1.4c-0.7,0.3-1.6,0.5-2.5,0.5
				c-0.9,0-1.7-0.1-2.4-0.4c-0.7-0.3-1.3-0.7-1.8-1.2c-0.5-0.5-0.8-1.1-1.1-1.7l1.8-1C904.4,361,904.8,361.6,905.5,362.1
				L905.5,362.1z"/>
			<path d="M913.9,366.9l1.4,0c0.7,0,1.2-0.1,1.6-0.5c0.4-0.3,0.7-0.9,1.1-1.7l0.6-1.7l0.1,1.8l-5.3-13.1l2.4,0l4.2,11.1l-1.1,0
				l4.2-10.9l2.3,0l-5.7,14c-0.3,0.9-0.7,1.5-1.2,2c-0.4,0.4-0.9,0.7-1.4,0.9c-0.5,0.1-1.1,0.2-1.8,0.2c-0.3,0-0.7,0-1.3-0.1
				L913.9,366.9L913.9,366.9z"/>
			<path d="M928.8,362.3c0.6,0.5,1.3,0.8,2.2,0.9c0.9,0,1.6-0.1,2.1-0.4c0.5-0.3,0.8-0.8,0.8-1.4c0-0.5-0.1-0.9-0.4-1.2
				c-0.3-0.3-0.9-0.5-1.8-0.7L930,359c-1.2-0.3-2-0.7-2.5-1.3c-0.5-0.6-0.8-1.4-0.7-2.3c0-0.7,0.3-1.4,0.7-1.9
				c0.4-0.5,1-0.9,1.6-1.2c0.7-0.3,1.5-0.4,2.4-0.3c0.7,0,1.4,0.2,2.1,0.5c0.6,0.3,1.2,0.6,1.6,1.1c0.4,0.5,0.8,1,1,1.6l-1.9,0.9
				c-0.2-0.6-0.5-1.1-1-1.6c-0.5-0.4-1.2-0.7-2-0.7c-0.8,0-1.4,0.1-1.9,0.4c-0.5,0.3-0.7,0.7-0.7,1.2c0,0.5,0.1,0.8,0.5,1.1
				c0.3,0.2,0.9,0.5,1.6,0.7l2.1,0.5c1.1,0.3,2,0.7,2.5,1.4c0.6,0.7,0.8,1.4,0.8,2.4c0,0.8-0.3,1.5-0.7,2.1c-0.5,0.6-1.1,1-1.8,1.3
				c-0.8,0.3-1.6,0.4-2.5,0.3c-0.9,0-1.7-0.2-2.4-0.5c-0.7-0.3-1.3-0.7-1.8-1.3s-0.8-1.1-1-1.8l1.9-0.9
				C927.8,361.1,928.2,361.8,928.8,362.3z"/>
			<path d="M937.3,352.6l2.5,0.2l0.3-3.6l2.1,0.1l-0.3,3.6l3.2,0.2l-0.1,1.8l-3.2-0.2l-0.5,6.9c0,0.6,0.1,1.1,0.3,1.4
				c0.3,0.3,0.7,0.5,1.3,0.5c0.3,0,0.6,0,0.9,0c0.2,0,0.5-0.1,0.8-0.1l-0.1,1.8c-0.3,0.1-0.6,0.2-0.9,0.2c-0.3,0-0.7,0.1-1.1,0
				c-1.1-0.1-2-0.4-2.5-1.1c-0.5-0.7-0.8-1.6-0.7-2.9l0.5-7l-2.5-0.2L937.3,352.6L937.3,352.6z"/>
			<path d="M948.5,365.2c-0.8-0.6-1.4-1.5-1.8-2.5c-0.4-1-0.5-2.2-0.4-3.5c0.1-1.2,0.5-2.3,1.1-3.2c0.6-0.9,1.4-1.6,2.3-2
				c0.9-0.4,1.9-0.6,3-0.5c1.2,0.1,2.2,0.5,3,1.1c0.8,0.6,1.4,1.4,1.8,2.5c0.4,1,0.5,2.2,0.4,3.6l0,0.3l-10.5-1l1-1
				c0,0.1,0,0.2,0,0.3c0,0.1,0,0.2,0,0.3c-0.1,0.9,0,1.7,0.2,2.4c0.2,0.7,0.6,1.3,1.2,1.7c0.6,0.4,1.3,0.7,2.1,0.8
				c0.8,0.1,1.6-0.1,2.3-0.4c0.7-0.4,1.3-0.9,1.8-1.6l1.4,1.4c-0.6,0.8-1.3,1.5-2.3,2c-1,0.5-2.1,0.7-3.4,0.6
				C950.4,366.2,949.4,365.8,948.5,365.2L948.5,365.2z M955.6,357.3c-0.2-0.6-0.6-1.1-1.1-1.4c-0.5-0.3-1.1-0.5-1.9-0.6
				c-0.7-0.1-1.3,0-1.8,0.2c-0.6,0.2-1,0.6-1.4,1c-0.4,0.5-0.6,1-0.8,1.6l8.4,0.8l-1.1,0.9l0-0.4
				C955.9,358.6,955.8,357.9,955.6,357.3L955.6,357.3z"/>
			<path d="M961,354.6l2.1,0.2l-0.4,3.1c0.3-0.7,0.7-1.2,1.2-1.7c0.5-0.5,1-0.8,1.7-1c0.6-0.2,1.3-0.3,2-0.2c1.1,0.1,2,0.6,2.7,1.3
				c0.7,0.7,1.1,1.6,1.2,2.8c0.3-0.7,0.8-1.3,1.3-1.7c0.5-0.5,1.1-0.8,1.7-1c0.6-0.2,1.3-0.3,2.1-0.2c0.9,0.1,1.7,0.4,2.3,0.9
				c0.6,0.5,1.1,1.2,1.3,2c0.3,0.8,0.3,1.8,0.2,2.9l-0.9,7.2l-2.1-0.3l0.8-6.7c0.1-0.8,0.1-1.6-0.1-2.1c-0.1-0.6-0.4-1-0.8-1.4
				c-0.4-0.3-0.9-0.5-1.6-0.6c-0.7-0.1-1.4,0-2,0.4c-0.6,0.3-1.2,0.8-1.6,1.5c-0.4,0.7-0.7,1.5-0.8,2.5l-0.6,5.5l-2.1-0.3l0.8-6.7
				c0.1-0.8,0.1-1.6-0.1-2.1c-0.1-0.6-0.4-1-0.8-1.4c-0.4-0.3-0.9-0.5-1.5-0.6c-0.7-0.1-1.4,0-2,0.4c-0.6,0.3-1.2,0.8-1.6,1.5
				c-0.4,0.7-0.7,1.5-0.8,2.5l-0.6,5.5l-2.1-0.3L961,354.6L961,354.6z"/>
		</g>
	</g>
</g>
</svg>
