<?xml version="1.0" encoding="utf-8"?>
<!-- Generator: Adobe Illustrator 27.8.1, SVG Export Plug-In . SVG Version: 6.00 Build 0)  -->
<svg version="1.1" id="Layer_1" xmlns="http://www.w3.org/2000/svg" xmlns:xlink="http://www.w3.org/1999/xlink" x="0px" y="0px"
	 viewBox="0 0 768 491" style="enable-background:new 0 0 768 491;" xml:space="preserve">
<style type="text/css">
	.st0{fill:#D9D6CB;}
	.st1{fill:#A4FF00;}
	.st2{fill:#E1FDAF;}
	.st3{fill:#E9FFC2;}
	.st4{fill:#FFE6DE;}
	.st5{fill:none;stroke:#000000;stroke-width:2;stroke-linejoin:round;}
	.st6{fill:none;stroke:#000000;stroke-width:2;stroke-linecap:round;stroke-linejoin:round;}
	.st7{fill:#FF4C0F;}
	.st8{fill:#3042FB;stroke:#000000;stroke-width:2;stroke-linejoin:round;}
	.st9{fill:#3042FB;stroke:#000000;stroke-width:2;stroke-linecap:round;stroke-linejoin:round;}
</style>
<path class="st0" d="M11.2,397.6h734v17H36.7L11.2,397.6z"/>
<path d="M686,450.6v-11.4h7.9v1.3h-6.4v3.6h5.9v1.3h-5.9v4h6.4v1.3H686z M702.6,445h-1.4c-0.2-1-0.9-1.6-2-1.6c-2,0-2.6,1.6-2.6,3.2
	c0,1.5,0.7,3,2.4,3c1.3,0,2.1-0.8,2.3-2h1.4c-0.3,2-1.6,3.2-3.6,3.2c-2.5,0-3.9-1.7-3.9-4.2s1.3-4.4,3.9-4.4
	C700.9,442.1,702.4,443,702.6,445z M705.1,446.5c0,2,1.2,3.1,2.6,3.1s2.6-1.1,2.6-3.1s-1.2-3.1-2.6-3.1S705.1,444.5,705.1,446.5z
	 M703.7,446.5c0-2.4,1.4-4.3,4-4.3c2.6,0,4,1.9,4,4.3c0,2.4-1.4,4.3-4,4.3C705.1,450.8,703.7,448.9,703.7,446.5z M712.8,448h1.4
	c0,1.2,1.1,1.6,2.2,1.6c0.8,0,2-0.2,2-1.2c0-2.1-5.4-0.7-5.4-3.9c0-1.7,1.6-2.4,3.1-2.4c1.9,0,3.3,0.6,3.4,2.6h-1.4
	c-0.1-1.1-1-1.4-1.9-1.4c-0.8,0-1.8,0.2-1.8,1.1c0,1,1.4,1.2,2.7,1.4c1.4,0.3,2.7,0.8,2.7,2.4c0,2-1.8,2.6-3.5,2.6
	C714.5,450.8,712.9,450,712.8,448z M728.2,442.3l-3.6,9.4c-0.6,1.6-1.2,2.2-2.4,2.2c-0.3,0-0.6,0-0.9-0.1v-1.2
	c0.3,0.1,0.5,0.2,0.8,0.2c0.6,0,0.9-0.3,1.1-0.8l0.6-1.4l-3.3-8.2h1.5l2.4,6.8h0l2.3-6.8H728.2z M728.8,448h1.4
	c0,1.2,1.1,1.6,2.2,1.6c0.8,0,2-0.2,2-1.2c0-2.1-5.4-0.7-5.4-3.9c0-1.7,1.6-2.4,3.1-2.4c1.9,0,3.3,0.6,3.4,2.6h-1.4
	c-0.1-1.1-1-1.4-1.9-1.4c-0.8,0-1.8,0.2-1.8,1.1c0,1,1.4,1.2,2.7,1.4c1.4,0.3,2.7,0.8,2.7,2.4c0,2-1.8,2.6-3.5,2.6
	C730.5,450.8,728.9,450,728.8,448z M739.2,439.8v2.5h1.6v1.2h-1.6v5.1c0,0.6,0.2,0.7,1,0.7h0.6v1.2h-1c-1.4,0-2-0.3-2-1.8v-5.3h-1.4
	v-1.2h1.4v-2.5H739.2z M743.4,445.7h4.8c-0.1-1.3-1-2.3-2.4-2.3C744.3,443.3,743.5,444.4,743.4,445.7z M748.1,448h1.3
	c-0.4,1.8-1.7,2.8-3.5,2.8c-2.6,0-3.9-1.8-4-4.4c0-2.5,1.6-4.3,3.9-4.3c2.9,0,3.8,2.7,3.7,4.7h-6.2c0,1.4,0.8,2.7,2.6,2.7
	C747.1,449.6,747.9,449,748.1,448z M751,450.6v-8.3h1.3v1.2h0c0.6-0.9,1.5-1.4,2.7-1.4c1,0,1.9,0.4,2.3,1.4c0.6-0.9,1.5-1.4,2.6-1.4
	c1.6,0,2.8,0.7,2.8,2.4v6.1h-1.4v-5.4c0-1-0.3-1.8-1.6-1.8s-2.2,0.8-2.2,2.1v5.2h-1.4v-5.4c0-1.1-0.3-1.8-1.6-1.8
	c-1.6,0-2.2,1.5-2.2,2.1v5.2H751z M690.9,465.6c0.7-0.4,1.5-1,1.5-2c0-0.7-0.5-1.2-1.3-1.2c-0.6,0-1.3,0.4-1.3,1.2
	C689.8,464.3,690.4,464.9,690.9,465.6z M695.1,472.6l-1.2-1.4c-0.7,1.1-2,1.6-3.2,1.6c-3.1,0-3.6-2.2-3.6-3.1c0-1.8,1.2-2.7,2.7-3.5
	c-0.6-0.9-1.3-1.5-1.3-2.7c0-1.2,0.9-2.4,2.6-2.4c1.4,0,2.8,0.8,2.8,2.3c0,1.4-1,2.3-2.1,3l2.1,2.5c0.2-0.6,0.3-1.2,0.4-1.8h1.3
	c-0.1,1.4-0.3,1.8-0.8,2.8l2.2,2.6H695.1z M693.1,470.2l-2.6-3.2c-1.1,0.6-2,1.2-2,2.6c0,1.2,1.1,1.9,2.2,1.9
	C691.7,471.6,692.6,471,693.1,470.2z M706.2,462.5l-1.9,5.3h3.9L706.2,462.5L706.2,462.5z M701,472.6l4.5-11.4h1.7l4.5,11.4h-1.7
	l-1.2-3.4h-4.8l-1.3,3.4H701z M713.9,461.2v1.7h-1.4v-1.7H713.9z M712.5,472.6v-8.3h1.4v8.3H712.5z M716,472.6v-8.3h1.3v1.7h0
	c0.7-1.3,1.6-2,3-1.9v1.4c-2.2,0-3,1.2-3,3.3v3.7H716z M722.3,468.5c0,1.6,0.8,3.1,2.6,3.1c1.8,0,2.5-1.6,2.5-3.1
	c0-1.6-0.7-3.1-2.6-3.1C723,465.3,722.3,466.9,722.3,468.5z M728.7,461.2v11.4h-1.4v-1.1h0c-0.4,0.9-1.5,1.3-2.6,1.3
	c-2.5,0-3.8-2-3.8-4.4s1.2-4.3,3.8-4.3c0.8,0,2.1,0.3,2.7,1.3h0v-4.3H728.7z M730.8,472.6v-8.3h1.3v1.7h0c0.7-1.3,1.6-2,3-1.9v1.4
	c-2.2,0-3,1.2-3,3.3v3.7H730.8z M737.1,468.5c0,2,1.2,3.1,2.6,3.1s2.6-1.1,2.6-3.1s-1.2-3.1-2.6-3.1S737.1,466.5,737.1,468.5z
	 M735.7,468.5c0-2.4,1.4-4.3,4-4.3c2.6,0,4,1.9,4,4.3c0,2.4-1.4,4.3-4,4.3C737.1,472.8,735.7,470.9,735.7,468.5z M745.4,475.8v-11.4
	h1.4v1.1h0c0.4-0.9,1.5-1.3,2.6-1.3c2.5,0,3.8,2,3.8,4.4c0,2.4-1.2,4.3-3.8,4.3c-0.8,0-2.1-0.3-2.7-1.3h0v4.3H745.4z M751.8,468.4
	c0-1.6-0.8-3.1-2.6-3.1c-1.8,0-2.5,1.6-2.5,3.1c0,1.6,0.7,3.1,2.6,3.1C751.2,471.6,751.8,470,751.8,468.4z M754.3,470h1.4
	c0,1.2,1.1,1.6,2.2,1.6c0.8,0,2-0.2,2-1.2c0-2.1-5.4-0.7-5.4-3.9c0-1.7,1.6-2.4,3.1-2.4c1.9,0,3.3,0.6,3.4,2.6h-1.4
	c-0.1-1.1-1-1.4-1.9-1.4c-0.8,0-1.8,0.2-1.8,1.1c0,1,1.4,1.2,2.7,1.4c1.4,0.3,2.7,0.8,2.7,2.4c0,2-1.8,2.6-3.5,2.6
	C755.9,472.8,754.4,472,754.3,470z"/>
<path d="M708.9,46.7v2.2h-8.6l-1.1,6.1l0.1,0.1c0.9-1,2.5-1.5,4-1.5c3.8,0,6.9,2.4,6.9,7.3c0,3.6-2.5,7.1-7.4,7.1
	c-3.7,0-6.7-2.2-6.8-6.1h2.5c0.2,2.2,1.9,3.8,4.5,3.8c2.4,0,4.5-1.7,4.5-5c0-2.8-1.9-4.8-4.8-4.8c-1.7,0-3,0.8-4,2l-2.2-0.1l2-11
	H708.9z M716.5,52.3c0,1.8,0.3,4.3,2.5,4.3c2.3,0,2.6-2.5,2.6-4.4c0-1.8-0.3-4.4-2.5-4.4C716.9,48,716.5,50.5,716.5,52.3z
	 M714.3,52.4c0-3.2,1.2-6.1,4.9-6.1c3.7,0,4.8,2.7,4.8,6c0,3.1-1.3,6-4.8,6C715.5,58.3,714.3,55.7,714.3,52.4z M731.3,61.9
	c0,1.8,0.3,4.3,2.5,4.3c2.3,0,2.6-2.5,2.6-4.4c0-1.8-0.3-4.3-2.5-4.3C731.7,57.6,731.3,60.1,731.3,61.9z M729.1,62
	c0-3.2,1.2-6.1,4.9-6.1c3.7,0,4.8,2.7,4.8,6c0,3.1-1.3,6-4.8,6C730.3,67.9,729.1,65.3,729.1,62z M717.1,68.2l16.1-22.3h2.5
	l-16.1,22.3H717.1z"/>
<path class="st1" d="M706.2,384.1h39v30.5h-39l-25-16.5v-30.5L706.2,384.1z"/>
<path class="st2" d="M707.2,93.6h39v294h-39l-25-16.5v-260L707.2,93.6z"/>
<path class="st3" d="M572.2,91.6h39v294h-39l-25-16.5v-260L572.2,91.6z"/>
<path class="st4" d="M438.2,93.6h39v294h-39l-25-16.5v-260L438.2,93.6z"/>
<path class="st4" d="M304.2,93.6h39v294h-39l-25-16.5v-260L304.2,93.6z"/>
<path class="st4" d="M170.2,93.6h39v294h-39l-25-16.5v-260L170.2,93.6z"/>
<rect x="706.2" y="94.6" class="st5" width="39" height="320"/>
<path class="st6" d="M706.2,94.6l-25.1,14.5v289l25.1,16.5V94.6z"/>
<path class="st6" d="M681.2,367.6l25.1,16.5h38.9"/>
<path d="M549,450.6v-11.4h7.5v1.3h-6v3.6h5.2v1.3h-5.2v5.2H549z M558.9,446.5c0,2,1.2,3.1,2.6,3.1s2.6-1.1,2.6-3.1s-1.2-3.1-2.6-3.1
	S558.9,444.5,558.9,446.5z M557.5,446.5c0-2.4,1.4-4.3,4-4.3c2.6,0,4,1.9,4,4.3c0,2.4-1.4,4.3-4,4.3
	C558.9,450.8,557.5,448.9,557.5,446.5z M574,442.3v8.3h-1.3v-1.3h0c-0.6,1-1.5,1.5-2.7,1.5c-2.2,0-2.8-1.2-2.8-3v-5.4h1.4v5.6
	c0,1,0.6,1.7,1.7,1.7c1.6,0,2.4-1.1,2.4-2.6v-4.7H574z M576,450.6v-8.3h1.3v1.3h0c0.6-1,1.5-1.5,2.7-1.5c2.2,0,2.8,1.2,2.8,3v5.4
	h-1.4V445c0-1-0.6-1.7-1.7-1.7c-1.6,0-2.4,1.1-2.4,2.6v4.7H576z M585.9,446.5c0,1.6,0.8,3.1,2.6,3.1c1.8,0,2.5-1.6,2.5-3.1
	c0-1.6-0.7-3.1-2.6-3.1C586.5,443.3,585.9,444.9,585.9,446.5z M592.3,439.2v11.4h-1.4v-1.1h0c-0.4,0.9-1.5,1.3-2.6,1.3
	c-2.5,0-3.8-2-3.8-4.4s1.2-4.3,3.8-4.3c0.8,0,2.1,0.3,2.7,1.3h0v-4.3H592.3z M601.7,449.5v1.1c-0.2,0.1-0.6,0.2-1,0.2
	c-0.7,0-1.2-0.4-1.2-1.3c-0.8,0.9-1.8,1.3-2.9,1.3c-1.5,0-2.7-0.7-2.7-2.3c0-1.9,1.4-2.3,2.8-2.5c1.5-0.3,2.8-0.2,2.8-1.2
	c0-1.2-1-1.4-1.8-1.4c-1.2,0-2,0.4-2.1,1.6h-1.4c0.1-2,1.6-2.8,3.5-2.8c1.5,0,3.1,0.3,3.1,2.3v4.3c0,0.6,0,0.9,0.4,0.9
	C601.4,449.6,601.6,449.5,601.7,449.5z M599.5,447.7v-1.4c-1.1,0.8-4.1,0-4.1,2c0,0.9,0.8,1.2,1.6,1.2
	C598.8,449.6,599.5,448.5,599.5,447.7z M604.9,439.8v2.5h1.6v1.2h-1.6v5.1c0,0.6,0.2,0.7,1,0.7h0.6v1.2h-1c-1.4,0-2-0.3-2-1.8v-5.3
	h-1.4v-1.2h1.4v-2.5H604.9z M609.5,439.2v1.7h-1.4v-1.7H609.5z M608.1,450.6v-8.3h1.4v8.3H608.1z M612.6,446.5c0,2,1.2,3.1,2.6,3.1
	s2.6-1.1,2.6-3.1s-1.2-3.1-2.6-3.1S612.6,444.5,612.6,446.5z M611.1,446.5c0-2.4,1.4-4.3,4-4.3c2.6,0,4,1.9,4,4.3
	c0,2.4-1.4,4.3-4,4.3C612.5,450.8,611.1,448.9,611.1,446.5z M620.8,450.6v-8.3h1.3v1.3h0c0.6-1,1.5-1.5,2.7-1.5c2.2,0,2.8,1.2,2.8,3
	v5.4h-1.4V445c0-1-0.6-1.7-1.7-1.7c-1.6,0-2.4,1.1-2.4,2.6v4.7H620.8z"/>
<path d="M570.2,46.3v21.3h-2.5V52.3h-5.5v-2c2.9,0,5.6-0.8,6.1-4H570.2z M586.8,46.3v21.3h-2.6V52.3h-5.5v-2c2.9,0,5.5-0.8,6.1-4
	H586.8z M597.8,52.3c0,1.8,0.3,4.3,2.5,4.3c2.3,0,2.6-2.5,2.6-4.4c0-1.8-0.3-4.4-2.5-4.4C598.2,48,597.8,50.5,597.8,52.3z
	 M595.6,52.4c0-3.2,1.2-6.1,4.9-6.1c3.7,0,4.8,2.7,4.8,6c0,3.1-1.3,6-4.8,6C596.9,58.3,595.6,55.7,595.6,52.4z M612.7,61.9
	c0,1.8,0.3,4.3,2.5,4.3c2.3,0,2.6-2.5,2.6-4.4c0-1.8-0.3-4.3-2.5-4.3C613,57.6,612.7,60.1,612.7,61.9z M610.4,62
	c0-3.2,1.2-6.1,4.9-6.1c3.7,0,4.8,2.7,4.8,6c0,3.1-1.3,6-4.8,6C611.7,67.9,610.4,65.3,610.4,62z M598.5,68.2l16.1-22.3h2.6
	l-16.1,22.3H598.5z"/>
<path class="st1" d="M572.2,352.1h39v62.5h-39l-25-16.5v-62.5L572.2,352.1z"/>
<rect x="572.2" y="94.6" class="st5" width="39" height="320"/>
<path class="st6" d="M572.2,94.6l-25.1,14.5v289l25.1,16.5V94.6z"/>
<path class="st6" d="M547.2,334.6l25.1,16.5h38.9"/>
<path d="M436,450.6v-10.1h-3.8v-1.3h9.1v1.3h-3.8v10.1H436z M443.4,445.7h4.8c-0.1-1.3-1-2.3-2.4-2.3
	C444.3,443.3,443.4,444.4,443.4,445.7z M448.1,448h1.3c-0.4,1.8-1.7,2.8-3.5,2.8c-2.6,0-3.9-1.8-4-4.4c0-2.5,1.6-4.3,3.9-4.3
	c2.9,0,3.8,2.7,3.7,4.7h-6.2c0,1.4,0.8,2.7,2.6,2.7C447.1,449.6,447.8,449,448.1,448z M458.3,449.5v1.1c-0.2,0.1-0.6,0.2-1,0.2
	c-0.7,0-1.2-0.4-1.2-1.3c-0.8,0.9-1.8,1.3-2.9,1.3c-1.5,0-2.7-0.7-2.7-2.3c0-1.9,1.4-2.3,2.8-2.5c1.5-0.3,2.8-0.2,2.8-1.2
	c0-1.2-1-1.4-1.8-1.4c-1.2,0-2,0.4-2.1,1.6h-1.4c0.1-2,1.6-2.8,3.5-2.8c1.5,0,3.1,0.3,3.1,2.3v4.3c0,0.6,0,0.9,0.4,0.9
	C458,449.6,458.1,449.5,458.3,449.5z M456.1,447.7v-1.4c-1.1,0.8-4.1,0-4.1,2c0,0.9,0.8,1.2,1.6,1.2
	C455.3,449.6,456.1,448.5,456.1,447.7z M459.6,450.6v-8.3h1.3v1.2h0c0.6-0.9,1.5-1.4,2.7-1.4c1,0,1.9,0.4,2.3,1.4
	c0.6-0.9,1.5-1.4,2.6-1.4c1.6,0,2.8,0.7,2.8,2.4v6.1h-1.4v-5.4c0-1-0.3-1.8-1.6-1.8s-2.2,0.8-2.2,2.1v5.2h-1.4v-5.4
	c0-1.1-0.3-1.8-1.6-1.8c-1.6,0-2.2,1.5-2.2,2.1v5.2H459.6z"/>
<path d="M432.2,46.3v21.3h-2.6V52.3h-5.5v-2c2.9,0,5.5-0.8,6.1-4H432.2z M452.3,46.7v2.2h-8.6l-1.1,6.1l0.1,0.1c0.9-1,2.5-1.5,4-1.5
	c3.8,0,6.9,2.4,6.9,7.3c0,3.6-2.5,7.1-7.4,7.1c-3.7,0-6.7-2.2-6.8-6.1h2.6c0.1,2.2,1.9,3.8,4.5,3.8c2.4,0,4.5-1.7,4.5-5
	c0-2.8-1.9-4.8-4.8-4.8c-1.6,0-3,0.8-4,2l-2.2-0.1l2-11H452.3z M459.8,52.3c0,1.8,0.3,4.3,2.5,4.3c2.3,0,2.6-2.5,2.6-4.4
	c0-1.8-0.3-4.4-2.5-4.4C460.2,48,459.8,50.5,459.8,52.3z M457.6,52.4c0-3.2,1.2-6.1,4.9-6.1c3.7,0,4.8,2.7,4.8,6c0,3.1-1.3,6-4.8,6
	C458.9,58.3,457.6,55.7,457.6,52.4z M474.7,61.9c0,1.8,0.3,4.3,2.5,4.3c2.3,0,2.6-2.5,2.6-4.4c0-1.8-0.3-4.3-2.5-4.3
	C475,57.6,474.7,60.1,474.7,61.9z M472.4,62c0-3.2,1.2-6.1,4.9-6.1c3.7,0,4.8,2.7,4.8,6c0,3.1-1.3,6-4.8,6
	C473.7,67.9,472.4,65.3,472.4,62z M460.5,68.2l16.1-22.3h2.5l-16.1,22.3H460.5z"/>
<path class="st7" d="M438.2,325.1h39v89.5h-39l-25-16.5v-87L438.2,325.1z"/>
<rect x="438.2" y="94.6" class="st5" width="39" height="320"/>
<path class="st6" d="M438.2,94.6l-25.1,14.5v289l25.1,16.5V94.6z"/>
<path class="st6" d="M413.2,311.6l25.1,13.5h38.9"/>
<path d="M312.9,442.5h-1.4c-0.2-1.6-1.2-2.3-2.8-2.3c-1.3,0-2.6,0.5-2.6,2c0,2.8,7.3,0.8,7.3,5.3c0,2.4-2.4,3.4-4.5,3.4
	c-2.6,0-4.7-1.3-4.7-4h1.4c0,1.9,1.6,2.8,3.3,2.8c1.4,0,2.9-0.4,2.9-2.1c0-3.1-7.3-1.1-7.3-5.3c0-2.3,2-3.3,4.1-3.3
	C311,438.9,312.8,440,312.9,442.5z M322.3,449.5v1.1c-0.2,0.1-0.6,0.2-1,0.2c-0.7,0-1.2-0.4-1.2-1.3c-0.8,0.9-1.8,1.3-2.9,1.3
	c-1.5,0-2.7-0.7-2.7-2.3c0-1.9,1.4-2.3,2.8-2.5c1.5-0.3,2.8-0.2,2.8-1.2c0-1.2-1-1.4-1.8-1.4c-1.2,0-2,0.4-2.1,1.6h-1.4
	c0.1-2,1.6-2.8,3.5-2.8c1.5,0,3.1,0.3,3.1,2.3v4.3c0,0.6,0,0.9,0.4,0.9C322.1,449.6,322.2,449.5,322.3,449.5z M320.1,447.7v-1.4
	c-1.1,0.8-4.1,0-4.1,2c0,0.9,0.8,1.2,1.6,1.2C319.4,449.6,320.1,448.5,320.1,447.7z M323.7,450.6v-11.4h1.4v11.4H323.7z
	 M328.1,445.7h4.8c-0.1-1.3-1-2.3-2.4-2.3C329.1,443.3,328.2,444.4,328.1,445.7z M332.9,448h1.3c-0.4,1.8-1.7,2.8-3.5,2.8
	c-2.6,0-3.9-1.8-4-4.4c0-2.5,1.6-4.3,3.9-4.3c2.9,0,3.8,2.7,3.7,4.7h-6.2c0,1.4,0.8,2.7,2.6,2.7C331.9,449.6,332.6,449,332.9,448z"
	/>
<path d="M294.2,46.3v21.3h-2.6V52.3h-5.5v-2c2.9,0,5.5-0.8,6.1-4H294.2z M304.8,51.8c0,2.3,1.7,3.4,3.8,3.4c2,0,3.5-1.3,3.5-3.4
	c0-2.2-1.5-3.3-3.6-3.3C306.5,48.6,304.8,49.7,304.8,51.8z M302.1,51.7c0-3.5,3-5.4,6.2-5.4c4.6,0,6.5,2.7,6.5,5.4
	c0,1.9-1.2,3.6-2.9,4.4c2.5,0.8,3.8,2.7,3.8,5.3c0,4.1-3.1,6.5-7.1,6.5c-4.1,0-7.2-2.2-7.2-6.5c0-2.5,1.3-4.5,3.7-5.3
	C303.3,55.4,302.1,53.7,302.1,51.7z M304.1,61.6c0,2.5,1.9,4.1,4.5,4.1c2.6,0,4.4-1.8,4.4-4.1c0-2.3-2-4-4.4-4
	C306,57.5,304.1,59.1,304.1,61.6z M321.8,52.3c0,1.8,0.3,4.3,2.5,4.3c2.3,0,2.6-2.5,2.6-4.4c0-1.8-0.3-4.4-2.5-4.4
	C322.2,48,321.8,50.5,321.8,52.3z M319.6,52.4c0-3.2,1.2-6.1,4.9-6.1c3.7,0,4.8,2.7,4.8,6c0,3.1-1.3,6-4.8,6
	C320.9,58.3,319.6,55.7,319.6,52.4z M336.7,61.9c0,1.8,0.3,4.3,2.5,4.3c2.3,0,2.6-2.5,2.6-4.4c0-1.8-0.3-4.3-2.5-4.3
	C337,57.6,336.7,60.1,336.7,61.9z M334.4,62c0-3.2,1.2-6.1,4.9-6.1c3.7,0,4.8,2.7,4.8,6c0,3.1-1.3,6-4.8,6
	C335.7,67.9,334.4,65.3,334.4,62z M322.5,68.2l16.1-22.3h2.5l-16.1,22.3H322.5z"/>
<path class="st7" d="M304.2,302.6h39v112h-39l-25-16.5V290.6L304.2,302.6z"/>
<rect x="304.2" y="94.6" class="st5" width="39" height="320"/>
<path class="st6" d="M304.2,94.6l-25.1,14.5v289l25.1,16.5V94.6z"/>
<path class="st6" d="M279.2,290.6l25.1,11.5h38.9"/>
<path d="M165,450.6v-11.4h1.6l6,9.3h0v-9.3h1.4v11.4h-1.7l-6-9.2h0v9.2H165z M177.3,446.5c0,2,1.2,3.1,2.6,3.1s2.6-1.1,2.6-3.1
	s-1.2-3.1-2.6-3.1S177.3,444.5,177.3,446.5z M175.9,446.5c0-2.4,1.4-4.3,4-4.3c2.6,0,4,1.9,4,4.3c0,2.4-1.4,4.3-4,4.3
	C177.3,450.8,175.9,448.9,175.9,446.5z M186.5,446.5c0,1.6,0.8,3.1,2.6,3.1c1.8,0,2.5-1.6,2.5-3.1c0-1.6-0.7-3.1-2.6-3.1
	C187.1,443.3,186.5,444.9,186.5,446.5z M192.9,439.2v11.4h-1.4v-1.1h0c-0.4,0.9-1.5,1.3-2.6,1.3c-2.5,0-3.8-2-3.8-4.4
	s1.2-4.3,3.8-4.3c0.8,0,2.1,0.3,2.7,1.3h0v-4.3H192.9z M196,445.7h4.8c-0.1-1.3-1-2.3-2.4-2.3C197,443.3,196.1,444.4,196,445.7z
	 M200.7,448h1.3c-0.4,1.8-1.7,2.8-3.5,2.8c-2.6,0-3.9-1.8-4-4.4c0-2.5,1.6-4.3,3.9-4.3c2.9,0,3.8,2.7,3.7,4.7H196
	c0,1.4,0.8,2.7,2.6,2.7C199.7,449.6,200.5,449,200.7,448z M160.4,472.6v-11.4h2.1l3.6,9.6l3.6-9.6h2.1v11.4h-1.4v-9.5h0l-3.6,9.5
	h-1.3l-3.6-9.5h0v9.5H160.4z M175.6,461.2v1.7h-1.4v-1.7H175.6z M174.2,472.6v-8.3h1.4v8.3H174.2z M177.7,472.6v-8.3h1.3v1.3h0
	c0.6-1,1.5-1.5,2.7-1.5c2.2,0,2.8,1.2,2.8,3v5.4h-1.4V467c0-1-0.6-1.7-1.7-1.7c-1.6,0-2.4,1.1-2.4,2.6v4.7H177.7z M188,461.2v1.7
	h-1.4v-1.7H188z M186.6,472.6v-8.3h1.4v8.3H186.6z M190.1,472.6v-8.3h1.3v1.3h0c0.6-1,1.5-1.5,2.7-1.5c2.2,0,2.8,1.2,2.8,3v5.4h-1.4
	V467c0-1-0.6-1.7-1.7-1.7c-1.6,0-2.4,1.1-2.4,2.6v4.7H190.1z M206.1,464.3v7.6c0,2.7-1.2,4.1-3.8,4.1c-1.6,0-3.3-0.6-3.4-2.4h1.4
	c0,1,1.3,1.3,2.1,1.3c1.8,0,2.5-1.3,2.5-3.1v-0.5h0c-0.5,1-1.5,1.5-2.6,1.5c-2.5,0-3.7-1.9-3.7-4.2c0-2,0.9-4.4,3.8-4.4
	c1,0,2,0.5,2.5,1.4h0v-1.2H206.1z M202.3,471.5c1.8,0,2.5-1.6,2.5-3.2c0-1.5-0.6-3-2.4-3c-1.7,0-2.4,1.4-2.4,3
	C200,469.8,200.5,471.5,202.3,471.5z"/>
<path d="M170.6,46.7v2.2H162l-1.1,6.1l0.1,0.1c0.9-1,2.5-1.5,4-1.5c3.8,0,6.9,2.4,6.9,7.3c0,3.6-2.5,7.1-7.4,7.1
	c-3.7,0-6.7-2.2-6.8-6.1h2.6c0.1,2.2,1.9,3.8,4.5,3.8c2.4,0,4.5-1.7,4.5-5c0-2.8-1.9-4.8-4.8-4.8c-1.7,0-3,0.8-4,2l-2.2-0.1l2-11
	H170.6z M183.8,46.3v21.3h-2.6V52.3h-5.5v-2c2.9,0,5.6-0.8,6.1-4H183.8z M194.8,52.3c0,1.8,0.3,4.3,2.5,4.3c2.3,0,2.6-2.5,2.6-4.4
	c0-1.8-0.3-4.4-2.6-4.4C195.2,48,194.8,50.5,194.8,52.3z M192.6,52.4c0-3.2,1.2-6.1,4.9-6.1c3.7,0,4.8,2.7,4.8,6c0,3.1-1.3,6-4.8,6
	C193.9,58.3,192.6,55.7,192.6,52.4z M209.7,61.9c0,1.8,0.3,4.3,2.5,4.3c2.3,0,2.6-2.5,2.6-4.4c0-1.8-0.3-4.3-2.6-4.3
	C210,57.6,209.7,60.1,209.7,61.9z M207.4,62c0-3.2,1.2-6.1,4.9-6.1c3.7,0,4.8,2.7,4.8,6c0,3.1-1.3,6-4.8,6
	C208.7,67.9,207.4,65.3,207.4,62z M195.5,68.2l16.1-22.3h2.6l-16.1,22.3H195.5z"/>
<path d="M17.4,450.6v-11.4h7.5v1.3h-6v3.6h5.2v1.3h-5.2v5.2H17.4z M27.8,439.2v1.7h-1.4v-1.7H27.8z M26.4,450.6v-8.3h1.4v8.3H26.4z
	 M29,450.6l3.1-4.4l-2.9-3.9H31l2,2.9l2.1-2.9h1.6l-2.8,3.8l3.2,4.5h-1.7l-2.3-3.4l-2.3,3.4H29z M39.2,445.7h4.8
	c-0.1-1.3-1-2.3-2.4-2.3C40.1,443.3,39.2,444.4,39.2,445.7z M43.9,448h1.3c-0.4,1.8-1.7,2.8-3.5,2.8c-2.6,0-3.9-1.8-4-4.4
	c0-2.5,1.6-4.3,3.9-4.3c2.9,0,3.8,2.7,3.7,4.7h-6.2c0,1.4,0.8,2.7,2.6,2.7C42.9,449.6,43.6,449,43.9,448z M47.7,446.5
	c0,1.6,0.8,3.1,2.6,3.1c1.8,0,2.5-1.6,2.5-3.1c0-1.6-0.7-3.1-2.6-3.1C48.4,443.3,47.7,444.9,47.7,446.5z M54.1,439.2v11.4h-1.4v-1.1
	h0c-0.4,0.9-1.5,1.3-2.6,1.3c-2.5,0-3.8-2-3.8-4.4s1.2-4.3,3.8-4.3c0.8,0,2.1,0.3,2.7,1.3h0v-4.3H54.1z M12.5,470h1.4
	c0,1.2,1.1,1.6,2.2,1.6c0.8,0,2-0.2,2-1.2c0-2.1-5.4-0.7-5.4-3.9c0-1.7,1.6-2.4,3.1-2.4c1.9,0,3.3,0.6,3.4,2.6h-1.4
	c-0.1-1.1-1-1.4-1.9-1.4c-0.8,0-1.8,0.2-1.8,1.1c0,1,1.4,1.2,2.7,1.4c1.4,0.3,2.7,0.8,2.7,2.4c0,2-1.8,2.6-3.5,2.6
	C14.1,472.8,12.5,472,12.5,470z M27.8,464.3v8.3h-1.3v-1.3h0c-0.6,1-1.5,1.5-2.7,1.5c-2.2,0-2.8-1.2-2.8-3v-5.4h1.4v5.6
	c0,1,0.6,1.7,1.7,1.7c1.6,0,2.4-1.1,2.4-2.6v-4.7H27.8z M29.9,475.8v-11.4h1.4v1.1h0c0.4-0.9,1.5-1.3,2.6-1.3c2.5,0,3.8,2,3.8,4.4
	c0,2.4-1.2,4.3-3.8,4.3c-0.8,0-2.1-0.3-2.7-1.3h0v4.3H29.9z M36.3,468.4c0-1.6-0.8-3.1-2.6-3.1c-1.8,0-2.5,1.6-2.5,3.1
	c0,1.6,0.7,3.1,2.6,3.1C35.7,471.6,36.3,470,36.3,468.4z M39.4,475.8v-11.4h1.4v1.1h0c0.4-0.9,1.5-1.3,2.6-1.3c2.5,0,3.8,2,3.8,4.4
	c0,2.4-1.2,4.3-3.8,4.3c-0.8,0-2.1-0.3-2.7-1.3h0v4.3H39.4z M45.8,468.4c0-1.6-0.8-3.1-2.6-3.1c-1.8,0-2.5,1.6-2.5,3.1
	c0,1.6,0.7,3.1,2.6,3.1C45.2,471.6,45.8,470,45.8,468.4z M48.9,472.6v-11.4h1.4v11.4H48.9z M59.2,464.3l-3.6,9.4
	c-0.6,1.6-1.2,2.2-2.4,2.2c-0.3,0-0.6,0-0.9-0.1v-1.2c0.3,0.1,0.5,0.2,0.8,0.2c0.6,0,0.9-0.3,1.1-0.8l0.6-1.4l-3.3-8.2H53l2.4,6.8h0
	l2.3-6.8H59.2z"/>
<path d="M18.9,2.2v4.3H8.9l-0.6,6.1h0.1c1-1.4,2.6-2,4.9-2c5.2,0,6.6,4.3,6.6,8.6c0,5.9-1.7,10-8.6,10c-6.8,0-7.9-4.4-7.9-7.5v-0.7
	h5.2c0,1.8,0.3,4.4,2.7,4.4c2.2,0,3.2-1.7,3.2-5.2c0-4.4-0.7-5.7-3.2-5.7c-1.6,0-2.4,0.9-2.6,2.5H3.9l1-14.6H18.9z M21.7,16
	c0-7.4,0.4-14.4,8.4-14.4c6.5,0,8.4,3.5,8.4,13.1c0,7.4-0.4,14.4-8.4,14.4C23.6,29.1,21.7,25.6,21.7,16z M27.1,14.3v2.9
	c0,6.8,0.6,8.3,3,8.3c2.4,0,3-2.1,3-9v-2.9c0-6.8-0.6-8.3-3-8.3C27.7,5.3,27.1,7.4,27.1,14.3z M45.2,20.9c0,2.6,0.6,4.6,3.1,4.6
	s3.1-2.1,3.1-4.6s-0.6-4.6-3.1-4.6S45.2,18.3,45.2,20.9z M45.7,8.9c0,2.5,1,3.8,2.7,3.8c1.6,0,2.7-1.2,2.7-3.8
	c0-2.5-0.9-3.7-2.7-3.7C46.6,5.3,45.7,6.5,45.7,8.9z M39.8,21c0-3.4,1.5-6,4.6-6.6v-0.1c-2.9-0.7-3.9-3.3-3.9-5.2
	c0-5.3,3-7.4,7.9-7.4s7.9,2.1,7.9,7.4c0,1.9-1,4.4-3.9,5.2v0.1c3,0.6,4.6,3.3,4.6,6.6c0,3.1-1.1,8.1-8.6,8.1S39.8,24.1,39.8,21z
	 M59.5,28.6V1.5h8.1l3.9,19.2h0.1l3.9-19.2h8.1v27.1h-5V6.9h-0.1l-4.8,21.7h-4.3L64.6,6.9h-0.1v21.7H59.5z M8.4,72.4v-3.3
	c-6.3-0.5-7.4-3.8-7.4-7.8v-0.8h5.2c0,2.1,0.2,4.1,2.2,4.6v-7.7l-1.9-0.7c-3.7-1.3-5.2-3.8-5.2-7.3c0-4.7,2.6-7.3,7.1-7.8v-2.6h2.4
	v2.6c5.6,0.5,7,3.8,7,7.2v0.5h-5.2c0-1.9-0.5-3.3-1.8-3.7v7.2l3,1.2c2.8,1.2,4.7,2.6,4.7,6.9c0,5.5-2.7,7.8-7.7,8.1v3.3H8.4z
	 M8.4,51.8v-6.1c-1.2,0.3-1.9,1.3-1.9,2.9C6.5,50,7.1,51.1,8.4,51.8z M10.8,58.4v6.7c1.6-0.3,2.2-1.6,2.2-3
	C13,60.1,12.3,59.1,10.8,58.4z M19.7,60.1h5.5v0.8c0,2.5,0.7,4.2,3.6,4.2c1.7,0,3.3-1.1,3.3-3.3c0-2.4-1.2-3.4-4.9-4.6
	c-4.9-1.6-7.1-3.7-7.1-8.2c0-5.3,3.2-8,8.4-8c4.9,0,8.4,2.1,8.4,7.3V49h-5.2c0-2.6-0.8-4-3-4c-2.5,0-3.1,1.5-3.1,3.2
	c0,1.7,0.5,2.7,2.8,3.7l4.2,1.8c4.1,1.8,5.2,3.8,5.2,7.2c0,5.7-3.5,8.3-9.4,8.3c-6.2,0-8.6-2.9-8.6-7.9V60.1z M40.4,68.6V41.5h5.5
	v10.4h6.4V41.5h5.5v27.1h-5.5v-12h-6.4v12H40.4z M61.7,68.6V41.5h8.1l3.9,19.2h0.1l3.9-19.2h8.1v27.1h-5V46.9h-0.1l-4.8,21.7h-4.3
	l-4.8-21.7h-0.1v21.7H61.7z"/>
<rect x="36.2" y="94.6" class="st8" width="39" height="320"/>
<path class="st9" d="M36.2,94.6l-25.1,14.5v289l25.1,16.5V94.6z"/>
<path class="st7" d="M170.2,248.6h39v166h-39l-25-16.5V236.6L170.2,248.6z"/>
<rect x="170.2" y="94.6" class="st5" width="39" height="320"/>
<path class="st6" d="M170.2,94.6l-25.1,14.5v289l25.1,16.5V94.6z"/>
<path class="st6" d="M145.2,236.6l25.1,11.5h38.9"/>
</svg>
