<?xml version="1.0" encoding="utf-8"?>
<!-- Generator: Adobe Illustrator 27.8.1, SVG Export Plug-In . SVG Version: 6.00 Build 0)  -->
<svg version="1.1" id="Layer_1" xmlns="http://www.w3.org/2000/svg" xmlns:xlink="http://www.w3.org/1999/xlink" x="0px" y="0px"
	 viewBox="0 0 35 26" style="enable-background:new 0 0 35 26;" xml:space="preserve">
<g>
	<g id="Layer_1_00000091711118027835952270000001452625307977663630_">
		<path id="Vector" d="M9.6,25.8c0,0,1-1.3,1.9-2.4c-3.8-1.1-5.3-3.5-5.3-3.5c1.2,0.8,2.3,1.4,3.3,1.8c1.5,0.6,2.9,1,4.2,1.3
			c2.8,0.5,5.4,0.4,7.5,0c1.7-0.3,3.1-0.8,4.3-1.3c0.7-0.3,1.4-0.6,2.1-1c0.1-0.1,0.2-0.1,0.3-0.1c0.1,0,0.1-0.1,0.1-0.1
			c0.5-0.3,0.8-0.5,0.8-0.5s-1.4,2.4-5.1,3.5c0.9,1.1,2,2.5,2,2.5c6.4-0.2,8.9-4.5,8.9-4.5c0-9.6-4.2-17.4-4.2-17.4
			c-4.2-3.2-8.2-3.1-8.2-3.1L22,1.1C27.3,2.7,29.7,5,29.7,5S29.1,4.7,28,4.1c-3.1-1.4-5.6-1.8-6.6-1.9c-0.2,0-0.3-0.1-0.5-0.1
			C19.1,2,17.1,1.9,15,2.2C12.2,2.5,9.3,3.3,6.2,5c0,0,2.3-2.2,7.2-3.8l-0.4-0.5c0,0-4-0.1-8.2,3.1c0,0-4.2,7.8-4.2,17.4
			C0.7,21.2,3.2,25.5,9.6,25.8L9.6,25.8z M23.1,11.9c1.7,0,3,1.5,3,3.3c0,1.8-1.3,3.3-3,3.3s-3-1.5-3-3.3
			C20.2,13.3,21.5,11.9,23.1,11.9z M12.5,11.9c1.7,0,3,1.5,3,3.3c0,1.8-1.3,3.3-3,3.3c-1.6,0-3-1.5-3-3.3
			C9.6,13.3,10.9,11.9,12.5,11.9z"/>
	</g>
</g>
</svg>
