<?xml version="1.0" encoding="utf-8"?>
<!-- Generator: Adobe Illustrator 27.8.1, SVG Export Plug-In . SVG Version: 6.00 Build 0)  -->
<svg version="1.1" id="Layer_1" xmlns="http://www.w3.org/2000/svg" xmlns:xlink="http://www.w3.org/1999/xlink" x="0px" y="0px"
	 viewBox="0 0 26 25" style="enable-background:new 0 0 26 25;" xml:space="preserve">
<path id="Vector" d="M25.5,9.6L25.5,9.6l-3.4-9c-0.1-0.2-0.2-0.3-0.3-0.4c-0.2-0.1-0.3-0.2-0.5-0.1c-0.2,0-0.4,0.1-0.5,0.2
	c-0.1,0.1-0.3,0.3-0.3,0.5l-2.3,7H8.8l-2.3-7c0-0.2-0.2-0.3-0.3-0.5C6,0.2,5.8,0.1,5.7,0.1c-0.2,0-0.4,0-0.5,0.1
	C5,0.3,4.8,0.5,4.8,0.6L1.4,9.5l0,0.1c-1,2.6-0.2,5.6,2.1,7.3c0,0,0,0,0,0l0,0l5.2,3.9l2.6,1.9l1.6,1.2c0.4,0.3,0.9,0.3,1.3,0
	l1.6-1.2l2.6-1.9l5.2-3.9c0,0,0,0,0,0C25.7,15.2,26.6,12.3,25.5,9.6L25.5,9.6z"/>
</svg>
