<svg width="43" height="28" viewBox="0 0 43 28" fill="none" xmlns="http://www.w3.org/2000/svg">
<path fill-rule="evenodd" clip-rule="evenodd" d="M41.4699 14.3335C41.4699 21.2221 32.493 26.8072 21.42 26.8072C10.347 26.8072 1.37109 21.2221 1.37109 14.3335C1.37109 7.44497 10.347 1.85986 21.42 1.85986C32.493 1.85986 41.4699 7.44497 41.4699 14.3335Z" stroke="#3042FB" stroke-width="1.8" stroke-linecap="round" stroke-linejoin="round"/>
<path d="M21.2305 1.86035C28.6856 1.86035 34.7301 7.44452 34.7301 14.334C34.7301 21.2226 28.6856 26.8067 21.2305 26.8067" stroke="#3042FB" stroke-width="1.8" stroke-linecap="round" stroke-linejoin="round"/>
<path d="M21.2305 1.86035C24.9585 1.86035 27.9803 7.44452 27.9803 14.334C27.9803 21.2226 24.9585 26.8067 21.2305 26.8067" stroke="#3042FB" stroke-width="1.8" stroke-linecap="round" stroke-linejoin="round"/>
<path d="M21.5075 1.85986C14.0523 1.85986 8.00781 7.44404 8.00781 14.3335C8.00781 21.2221 14.0523 26.8063 21.5075 26.8063" stroke="#3042FB" stroke-width="1.8" stroke-linecap="round" stroke-linejoin="round"/>
<path d="M21.5037 1.86035C17.7757 1.86035 14.7539 7.44452 14.7539 14.334C14.7539 21.2226 17.7757 26.8067 21.5037 26.8067" stroke="#3042FB" stroke-width="1.8" stroke-linecap="round" stroke-linejoin="round"/>
<path d="M21.424 1.86035L21.424 26.8067" stroke="#3042FB" stroke-width="1.8" stroke-linecap="round" stroke-linejoin="round"/>
<path d="M1.37109 14.3336H41.4699" stroke="#3042FB" stroke-width="1.8" stroke-linecap="round" stroke-linejoin="round"/>
<path d="M3.8125 8.28966H38.8103" stroke="#3042FB" stroke-width="1.8" stroke-linecap="round" stroke-linejoin="round"/>
<path d="M3.8125 20.3776H38.8103" stroke="#3042FB" stroke-width="1.8" stroke-linecap="round" stroke-linejoin="round"/>
</svg>
