<?xml version="1.0" encoding="utf-8"?>
<!-- Generator: Adobe Illustrator 27.9.0, SVG Export Plug-In . SVG Version: 6.00 Build 0)  -->
<svg version="1.1" id="Layer_1" xmlns="http://www.w3.org/2000/svg" xmlns:xlink="http://www.w3.org/1999/xlink" x="0px" y="0px"
	 viewBox="0 0 218 47" style="enable-background:new 0 0 218 47;" xml:space="preserve">
<style type="text/css">
	.st0{fill-rule:evenodd;clip-rule:evenodd;fill:#FFFDF5;}
</style>
<g>
	<path class="st0" d="M11.7,35.6L5.8,46h39.8l-5.8-10.4H11.7z"/>
	<path class="st0" d="M19.9,0L0,35.6h11.7l14.1-25.1L19.9,0z"/>
	<path class="st0" d="M31.6,0l-5.8,10.4l14.1,25.1h11.7L31.6,0z"/>
	<path class="st0" d="M25.7,20.7c3.5,0,6.3,2.9,6.3,6.5s-2.8,6.5-6.3,6.5c-3.5,0-6.3-2.9-6.3-6.5S22.3,20.7,25.7,20.7z"/>
</g>
<path class="st0" d="M70.8,7.1c5.2,0,8.5,3,8.8,7.8h-3.7c-0.2-2.8-2.1-4.4-5.1-4.4c-3.4,0-5.6,1.8-5.6,4.5c0,2.2,1.2,3.6,3.8,4.2
	l4.5,1.1c4.4,1,6.7,3.5,6.7,7.5c0,5-3.8,8.2-9.5,8.2c-5.5,0-9.2-3-9.4-7.8h3.7c0.1,2.7,2.2,4.4,5.7,4.4c3.6,0,5.9-1.7,5.9-4.5
	c0-2.2-1.2-3.6-3.7-4.2l-4.5-1c-4.4-1-6.7-3.7-6.7-7.7C61.5,10.3,65.2,7.1,70.8,7.1z"/>
<path class="st0" d="M82.2,35.5V7.1h3.5v12.5c1.2-2.1,3.4-3.4,6.2-3.4c4.7,0,6.9,3.1,6.9,7.9v11.6h-3.5V24.8c0-3.8-1.8-5.4-4.4-5.4
	c-3.4,0-5.2,2.6-5.2,5.8v10.3H82.2z"/>
<path class="st0" d="M113.6,27.4v-1l-4.7,0.4c-3.1,0.3-4.4,1.5-4.4,3.4c0,2,1.4,3,3.7,3C111.6,33.2,113.6,31,113.6,27.4z M101,30.3
	c0-3.5,2.5-5.7,6.8-6l5.8-0.5v-0.5c0-3.2-1.8-4.3-4.3-4.3c-3,0-4.6,1.4-4.6,3.6h-3.1c0-3.9,3.1-6.5,7.9-6.5c4.5,0,7.6,2.5,7.6,7.6
	v11.9h-3l-0.4-3.1c-0.9,2.2-3.4,3.5-6.4,3.5C103.3,36,101,33.7,101,30.3z"/>
<path class="st0" d="M130.5,19.8h-1.6c-3.3,0-5.4,2.1-5.4,5.7v10H120V16.7h3.3l0.2,2.9c0.7-2,2.6-3.3,5.1-3.3c0.6,0,1.2,0.1,1.9,0.2
	V19.8z"/>
<path class="st0" d="M145.1,26c0-3.9-2.2-6.7-5.8-6.7s-5.7,2.8-5.7,6.7c0,3.9,2.1,6.7,5.7,6.7S145.1,30,145.1,26z M130,26.2
	c0-5.8,3.3-10.1,8.7-10.1c2.8,0,5.2,1.3,6.4,3.6V7.1h3.5v28.5h-3.1l-0.3-3.4c-1.2,2.6-3.7,3.9-6.6,3.9C133.2,36,130,31.9,130,26.2z"
	/>
<path class="st0" d="M154.1,24.4h10.6c0-3.1-2-5.2-5.1-5.2C156.5,19.1,154.5,21,154.1,24.4z M150.6,26.1c0-5.9,3.6-10,8.9-10
	c5.2,0,8.6,3.7,8.6,9.3v1.4l-14.2,0c0.3,4,2.3,6.2,5.8,6.2c2.7,0,4.5-1.2,5.1-3.3h3.3c-0.9,4.1-4,6.3-8.5,6.3
	C154.3,36,150.6,32,150.6,26.1z"/>
<path class="st0" d="M186.4,16.6v18.9h-3.1l-0.4-2.9c-1,2-3.5,3.3-6.2,3.3c-4.3,0-6.7-3-6.7-7.6V16.6h3.5v10.6
	c0,4.1,1.7,5.6,4.4,5.6c3.2,0,5-2.1,5-6.2v-10H186.4z"/>
<path class="st0" d="M189.6,35.6V16.6h3.1l0.3,2.5c0.9-1.8,2.9-3,5.5-3c2.8,0,4.9,1.5,5.8,3.8c0.9-2.4,3.1-3.8,5.9-3.8
	c4.2,0,6.7,2.7,6.7,7.1v12.4h-3.4V24.1c0-3-1.6-4.7-4.1-4.7c-2.7,0-4.4,1.9-4.4,5v11.2h-3.5V24c0-3-1.6-4.6-4-4.6
	c-2.7,0-4.4,1.9-4.4,4.9v11.2H189.6z"/>
</svg>
