<svg width="217" height="41" viewBox="0 0 217 41" fill="none" xmlns="http://www.w3.org/2000/svg">
<path fill-rule="evenodd" clip-rule="evenodd" d="M14.1704 0.935059C21.3108 0.935059 25.9158 5.05293 26.3294 11.7373H21.2073C20.9487 7.88726 18.3098 5.6412 14.119 5.6412C9.41039 5.6412 6.35791 8.10128 6.35791 11.8975C6.35791 14.9997 8.06492 16.8715 11.5836 17.727L17.7406 19.224C23.8461 20.6683 26.9507 24.0909 26.9507 29.545C26.9507 36.4972 21.725 40.9349 13.7568 40.9349C6.15026 40.9349 1.08015 36.8182 0.769531 30.1864H5.94375C6.04729 33.8769 9.04828 36.2299 13.7568 36.2299C18.724 36.2299 21.88 33.8231 21.88 29.973C21.88 26.9247 20.276 24.9991 16.7058 24.1435L10.5488 22.7004C4.44325 21.2566 1.28667 17.62 1.28667 12.0589C1.28667 5.42776 6.46089 0.935059 14.1704 0.935059Z" fill="#FFFDF5"/>
<path fill-rule="evenodd" clip-rule="evenodd" d="M29.8984 40.2407V0.935547H34.762V18.1544C36.3661 15.32 39.4191 13.3956 43.3514 13.3956C49.819 13.3956 52.9236 17.6205 52.9236 24.3048V40.2939H48.0594V25.4276C48.0594 20.1332 45.6276 17.9941 42.0059 17.9941C37.2974 17.9941 34.762 21.5237 34.762 26.0159V40.2407H29.8984Z" fill="#FFFDF5"/>
<path fill-rule="evenodd" clip-rule="evenodd" d="M73.2599 29.0105V27.6211L66.7923 28.155C62.4979 28.583 60.7383 30.294 60.7383 32.8611C60.7383 35.6422 62.7044 37.0316 65.8604 37.0316C70.466 37.0316 73.2599 33.9306 73.2599 29.0105ZM55.8203 33.0212C55.8203 28.2092 59.287 25.2135 65.2369 24.7328L73.205 24.0913V23.3417C73.205 18.9571 70.6697 17.4064 67.2551 17.4064C63.1672 17.4064 60.8389 19.2782 60.8389 22.4335H56.596C56.596 16.9783 60.9425 13.3955 67.4622 13.3955C73.7227 13.3955 77.9656 16.8181 77.9656 23.8773V40.2938H73.8262L73.3085 36.0695C72.0151 39.0647 68.5485 40.9353 64.4606 40.9353C59.0278 40.9353 55.8203 37.7811 55.8203 33.0212Z" fill="#FFFDF5"/>
<path fill-rule="evenodd" clip-rule="evenodd" d="M96.5894 18.53H94.4161C89.8111 18.53 86.9657 21.417 86.9657 26.4441V40.2942H82.1016V14.1981H86.6551L86.9657 18.1546C88 15.4279 90.5359 13.6099 94.002 13.6099C94.8818 13.6099 95.606 13.7169 96.5894 13.9309V18.53Z" fill="#FFFDF5"/>
<path fill-rule="evenodd" clip-rule="evenodd" d="M116.771 27.1391C116.771 21.7909 113.718 17.9414 108.751 17.9414C103.784 17.9414 100.887 21.7909 100.887 27.1391C100.887 32.5393 103.784 36.39 108.751 36.39C113.718 36.39 116.771 32.5931 116.771 27.1391ZM95.9688 27.2995C95.9688 19.2778 100.471 13.3957 107.973 13.3957C111.854 13.3957 115.114 15.1605 116.821 18.3685V0.935059H121.633V40.294H117.286L116.873 35.5346C115.217 39.1175 111.802 40.9349 107.766 40.9349C100.419 40.9349 95.9688 35.2668 95.9688 27.2995Z" fill="#FFFDF5"/>
<path fill-rule="evenodd" clip-rule="evenodd" d="M129.234 24.839H143.826C143.826 20.5071 141.083 17.6201 136.788 17.6201C132.546 17.6201 129.856 20.2398 129.234 24.839ZM124.422 27.2455C124.422 19.0636 129.441 13.3955 136.788 13.3955C143.98 13.3955 148.689 18.5297 148.689 26.283V28.1548L129.13 28.2086C129.493 33.7159 132.287 36.7642 137.099 36.7642C140.876 36.7642 143.36 35.1596 144.187 32.1651H148.74C147.499 37.7805 143.256 40.9347 136.995 40.9347C129.545 40.9347 124.422 35.3737 124.422 27.2455Z" fill="#FFFDF5"/>
<path fill-rule="evenodd" clip-rule="evenodd" d="M173.838 14.144V40.2939H169.491L168.974 36.3362C167.525 39.0647 164.162 40.9354 160.437 40.9354C154.538 40.9354 151.227 36.8187 151.227 30.4009V14.144H156.09V28.7431C156.09 34.3586 158.418 36.4976 162.144 36.4976C166.594 36.4976 169.026 33.5563 169.026 27.9408V14.144H173.838Z" fill="#FFFDF5"/>
<path fill-rule="evenodd" clip-rule="evenodd" d="M178.285 40.2933V14.1435H182.632L183.097 17.5661C184.391 15.1066 187.081 13.395 190.651 13.395C194.584 13.395 197.378 15.4271 198.671 18.6894C199.861 15.4271 202.914 13.395 206.847 13.395C212.642 13.395 216.16 17.1386 216.16 23.181V40.2933H211.4V24.4107C211.4 20.294 209.175 17.9409 205.76 17.9409C202.087 17.9409 199.655 20.6139 199.655 24.7861V40.2933H194.843V24.3575C194.843 20.2402 192.669 17.9941 189.254 17.9941C185.581 17.9941 183.149 20.6139 183.149 24.7861V40.2933H178.285Z" fill="#FFFDF5"/>
</svg>
