<svg width="147" height="96" viewBox="0 0 147 96" fill="none" xmlns="http://www.w3.org/2000/svg">
<path fill-rule="evenodd" clip-rule="evenodd" d="M73.0885 12.5606L59.5392 1.16394L1.58984 45.5664L34.1939 45.6362L73.0885 12.5606Z" fill="#A4FF00" stroke="black" stroke-width="2" stroke-linecap="round" stroke-linejoin="round"/>
<path fill-rule="evenodd" clip-rule="evenodd" d="M14.3438 62.5228L17.138 93.9733L129.594 94.2599L132.824 62.7933L14.3438 62.5228Z" fill="#FF4C0F" stroke="black" stroke-width="2" stroke-linecap="round" stroke-linejoin="round"/>
<path fill-rule="evenodd" clip-rule="evenodd" d="M141.66 76.2752H131.446L132.827 62.7933L112.711 45.874H145.293L141.66 76.2752Z" fill="black" stroke="black" stroke-width="2" stroke-linecap="round" stroke-linejoin="round"/>
<path fill-rule="evenodd" clip-rule="evenodd" d="M73.0898 12.5608L112.707 45.874L73.0898 45.7539V12.5608Z" fill="black" stroke="black" stroke-width="2" stroke-linecap="round" stroke-linejoin="round"/>
<path opacity="0.165971" fill-rule="evenodd" clip-rule="evenodd" d="M97.4601 45.5664C97.1037 41.1885 93.1891 33.0392 88.8809 30.777C84.5727 28.5148 76.5904 25.3145 76.1892 25.2925C74.6753 25.2094 69.6625 33.041 70.219 34.4234C71.5346 37.6916 74.8141 36.1621 79.1222 42.7336C93.5769 64.782 97.4601 45.5664 97.4601 45.5664Z" fill="black"/>
<path fill-rule="evenodd" clip-rule="evenodd" d="M1.58984 45.5664L4.82641 75.9474L15.5371 75.973L14.3421 62.5228L34.1939 45.6361L1.58984 45.5664Z" fill="black" stroke="black" stroke-width="2" stroke-linecap="round" stroke-linejoin="round"/>
<path fill-rule="evenodd" clip-rule="evenodd" d="M73.0899 12.5608L34.1953 45.6363L73.0899 45.7539V12.5608Z" fill="black" stroke="black" stroke-width="2" stroke-linecap="round" stroke-linejoin="round"/>
<path fill-rule="evenodd" clip-rule="evenodd" d="M73.0899 12.5608L34.1953 45.6363L73.0899 45.7539V12.5608Z" stroke="black" stroke-width="2" stroke-linecap="round" stroke-linejoin="round"/>
<path fill-rule="evenodd" clip-rule="evenodd" d="M14.3438 62.5227L34.1957 45.6362L112.708 45.874L132.824 62.7933L14.3438 62.5227Z" fill="#FF4C0F" stroke="black" stroke-width="2" stroke-linecap="round" stroke-linejoin="round"/>
<path fill-rule="evenodd" clip-rule="evenodd" d="M90.2044 34.0032V45.8056L56.3438 45.7032V34.0032" fill="#FF0098"/>
<path d="M90.2044 34.0032V45.8056L56.3438 45.7032V34.0032" stroke="black" stroke-width="2" stroke-linecap="round" stroke-linejoin="round"/>
<mask id="mask0_245_358" style="mask-type:luminance" maskUnits="userSpaceOnUse" x="55" y="33" width="37" height="14">
<path fill-rule="evenodd" clip-rule="evenodd" d="M90.2044 34.0032V45.8056L56.3438 45.7032V34.0032" fill="white"/>
<path d="M90.2044 34.0032V45.8056L56.3438 45.7032V34.0032" stroke="white" stroke-width="2" stroke-linecap="round" stroke-linejoin="round"/>
</mask>
<g mask="url(#mask0_245_358)">
<path opacity="0.19787" fill-rule="evenodd" clip-rule="evenodd" d="M95.7181 79.933C98.148 77.1717 98.3158 72.5191 97.1723 68.6081C96.0289 64.697 93.8028 61.2899 91.8162 57.805C89.8296 54.32 88.0008 50.4963 87.8439 46.4398C87.7333 43.576 88.4676 40.8274 88.7648 38.0101C89.4602 31.4178 87.7507 24.6448 85.7079 18.2365C85.6017 17.9032 85.4877 17.5578 85.2676 17.3034C84.437 16.3431 76.8035 17.8792 76.2945 19.0186C75.0911 21.7122 82.4412 21.1048 80.9888 27.5225C76.1158 49.0551 85.6176 50.4096 92.4597 78.0423C93.0149 80.2844 97.2603 78.8234 97.2154 76.4022" fill="black"/>
<path opacity="0.165971" fill-rule="evenodd" clip-rule="evenodd" d="M104.738 84.9842C106.371 81.6881 105.329 77.1506 103.212 73.6688C101.095 70.187 98.0629 67.4721 95.2421 64.6201C92.4212 61.768 89.665 58.5479 88.4637 54.6703C87.6156 51.9327 87.6135 49.0877 87.1714 46.2894C86.1368 39.7418 82.7326 33.642 79.1009 27.9808C78.912 27.6863 78.7125 27.3823 78.434 27.1934C77.3832 26.4809 70.4074 29.9403 70.2106 31.1726C69.7454 34.0859 76.6878 31.5968 76.9459 38.1718C77.812 60.2319 87.3406 59.081 101.101 84.0013C102.218 86.0233 105.941 83.5133 105.271 81.1862" fill="black"/>
<path fill-rule="evenodd" clip-rule="evenodd" d="M96.0434 74.7836C98.6597 72.1987 99.1513 67.5692 98.2832 63.5879C97.4151 59.6065 95.4318 56.0522 93.6929 52.4371C91.9541 48.8219 90.3961 44.8797 90.5224 40.8222C90.6115 37.9577 91.5356 35.2671 92.0285 32.4773C93.1815 25.9496 91.9481 19.0737 90.3569 12.5385C90.2742 12.1985 90.1845 11.8461 89.9827 11.5769C89.2211 10.561 81.4991 11.5603 80.912 12.6613C79.5238 15.2643 86.8983 15.1716 85.0021 21.4723C78.6405 42.6122 88.0248 44.6268 92.9246 72.67C93.3222 74.9454 97.659 73.7844 97.783 71.366" fill="black"/>
</g>
<mask id="mask1_245_358" style="mask-type:alpha" maskUnits="userSpaceOnUse" x="55" y="24" width="37" height="20">
<path fill-rule="evenodd" clip-rule="evenodd" d="M90.2044 34.0033C90.2044 38.9567 82.6244 42.9722 73.2742 42.9722C63.9237 42.9722 56.3438 38.9567 56.3438 34.0033C56.3438 29.0499 63.9237 25.0344 73.2742 25.0344C82.6244 25.0344 90.2044 29.0499 90.2044 34.0033Z" fill="#FF0098" stroke="black" stroke-width="2" stroke-linecap="round" stroke-linejoin="round"/>
</mask>
<g mask="url(#mask1_245_358)">
<rect x="52.3672" y="19.2655" width="41.8048" height="29.6188" fill="#FF0098"/>
</g>
<path fill-rule="evenodd" clip-rule="evenodd" d="M90.2005 34.0033C90.2005 38.9567 82.6205 42.9722 73.2703 42.9722C63.9198 42.9722 56.3398 38.9567 56.3398 34.0033C56.3398 29.0499 63.9198 25.0344 73.2703 25.0344C82.6205 25.0344 90.2005 29.0499 90.2005 34.0033Z" stroke="black" stroke-width="2" stroke-linecap="round" stroke-linejoin="round"/>
<path fill-rule="evenodd" clip-rule="evenodd" d="M86.5487 1.27869L73.207 12.6279L112.825 45.9412H145.407L86.5487 1.27869Z" fill="#1EFFFA" stroke="black" stroke-width="2" stroke-linecap="round" stroke-linejoin="round"/>
</svg>
