<?xml version="1.0" encoding="utf-8"?>
<!-- Generator: Adobe Illustrator 27.8.1, SVG Export Plug-In . SVG Version: 6.00 Build 0)  -->
<svg version="1.1" id="Layer_1" xmlns="http://www.w3.org/2000/svg" xmlns:xlink="http://www.w3.org/1999/xlink" x="0px" y="0px"
	 viewBox="0 0 28 23" style="enable-background:new 0 0 28 23;" xml:space="preserve">
<path id="Vector" d="M1.2,10.7C4,9.2,7.1,7.9,10,6.6c5-2.1,10-4.2,15.1-6.1c1-0.3,2.8-0.7,2.9,0.8c-0.1,2.1-0.5,4.1-0.8,6.2
	c-0.7,4.5-1.5,9-2.2,13.5c-0.3,1.5-2.1,2.3-3.4,1.3c-2.9-1.9-5.8-3.9-8.7-5.9c-0.9-1-0.1-2.3,0.8-3c2.4-2.3,4.9-4.3,7.2-6.8
	c0.6-1.5-1.2-0.2-1.8,0.1c-3.3,2.2-6.4,4.6-9.9,6.6c-1.7,1-3.8,0.1-5.6-0.4C2.1,12.4-0.2,11.7,1.2,10.7L1.2,10.7z"/>
</svg>
