<svg width="35" height="35" viewBox="0 0 35 35" fill="none" xmlns="http://www.w3.org/2000/svg">
<g clip-path="url(#clip0_769_7051)">
<path d="M29.9157 14.2198C29.9157 21.175 21.9493 26.7594 21.9493 26.7594C21.9493 26.7594 16.2172 26.1212 14.9965 25.5845C10.8634 23.7714 7.88672 19.5867 7.88672 14.2198C7.88672 7.26456 12.8193 1.62207 18.9012 1.62207C21.0427 1.62207 25.2401 2.60117 25.2401 2.60117C25.2401 2.60117 29.9228 9.71593 29.9228 14.2198H29.9157Z" fill="black" stroke="black" stroke-width="2" stroke-linecap="round" stroke-linejoin="round"/>
<path d="M23.1002 26.8251C29.002 26.8251 33.7863 21.3473 33.7863 14.59C33.7863 7.83281 29.002 2.35498 23.1002 2.35498C17.1984 2.35498 12.4141 7.83281 12.4141 14.59C12.4141 21.3473 17.1984 26.8251 23.1002 26.8251Z" fill="#1EFFFA" stroke="black" stroke-width="2" stroke-linecap="round" stroke-linejoin="round"/>
<path d="M23.1016 6.40869C27.0491 6.40869 30.2471 10.0712 30.2471 14.5896L23.1016 6.40869Z" fill="#1EFFFA"/>
<path d="M23.1016 6.40869C27.0491 6.40869 30.2471 10.0712 30.2471 14.5896" stroke="black" stroke-width="2" stroke-linecap="round" stroke-linejoin="round"/>
<path d="M1.67769 31.1112C0.992412 30.4149 1.09949 29.0587 1.79191 28.3624L10.9718 19.0356L13.456 21.5595L5.21832 33.6133C4.53304 34.3095 2.36298 31.8074 1.67769 31.1112Z" fill="black" stroke="black" stroke-width="2" stroke-linecap="round" stroke-linejoin="round"/>
<path d="M12.9102 21.0581L16.2567 24.4582L7.5042 33.3507C6.58049 34.2892 5.08641 34.2892 4.1627 33.3507C3.23899 32.4122 3.23899 30.8942 4.1627 29.9558L12.9152 21.0632L12.9102 21.0581Z" fill="#1EFFFA" stroke="black" stroke-width="2.32" stroke-linecap="round" stroke-linejoin="round"/>
</g>
<defs>
<clipPath id="clip0_769_7051">
<rect width="34" height="34" fill="white" transform="translate(0.5 0.896973)"/>
</clipPath>
</defs>
</svg>
