<?xml version="1.0" encoding="UTF-8"?>
<svg fill="none" viewBox="0 0 144 130" xmlns="http://www.w3.org/2000/svg">
<path d="m100.96 29.306c3.384 0 6.256 0.5115 8.617 1.5345 2.439 0.9444 4.407 2.3216 5.902 4.1316 1.495 1.7313 2.597 3.738 3.305 6.0202 0.708 2.2821 1.063 4.6823 1.063 7.2006 0 2.9904-0.276 6.0989-0.827 9.3254-0.472 3.2265-1.18 6.6891-2.125 10.388l-1.416 5.666-14.165 56.07-9.3256-2.597 8.0266-31.871 1.653-6.6104 4.958-19.595c1.023-4.1708 1.77-7.8695 2.243-11.096 0.472-3.3052 0.708-6.4137 0.708-9.3254 0-3.4626-0.748-6.0989-2.243-7.9089-1.495-1.8887-3.62-2.833-6.374-2.833-3.2268 0-5.8238 1.1017-7.7912 3.3052s-2.951 5.5087-2.951 9.9156c0 3.5413 0.8263 6.453 2.4789 8.7352s3.9347 3.9741 6.8465 5.0758c2.9908 1.0231 6.4138 1.5346 10.27 1.5346h2.007c5.508 0 10.033-0.9837 13.575-2.9511 3.541-2.0461 6.374-4.0528 8.499-6.0202h9.561v38.718h-57.723l2.1248-8.4991h46.037v-9.5615c0-1.81 0.039-3.6987 0.118-5.6661 0.078-1.9674 0.196-3.7774 0.354-5.43-2.282 1.9674-5.351 3.738-9.208 5.312-3.856 1.5739-8.381 2.3608-13.574 2.3608h-1.771c-4.25 0-8.145-0.4722-11.686-1.4165-3.5413-0.9443-6.6497-2.4002-9.3254-4.3676-2.6756-1.9674-4.761-4.4463-6.2562-7.4367-1.4166-2.9904-2.1248-6.5317-2.1248-10.624 0-4.0134 0.7869-7.6334 2.3608-10.86 1.6526-3.2265 4.0135-5.7841 7.0826-7.6728 3.0691-1.9674 6.7678-2.9511 11.096-2.9511zm-77.909 68.229c-4.1709 0-7.9876-1.0231-11.45-3.0692-3.4626-2.1247-6.217-5.3906-8.263-9.7975-1.9674-4.407-2.9511-10.152-2.9511-17.234 0-8.4204 1.6526-15.464 4.9578-21.13 3.3839-5.6661 7.8302-9.9156 13.339-12.749 5.5086-2.833 11.49-4.2495 17.942-4.2495 5.9808 0 11.096 0.905 15.346 2.715 4.3282 1.7313 7.8302 4.1708 10.506 7.3186 2.7544 3.0692 4.7611 6.6498 6.0202 10.742 1.3378 4.0134 2.0068 8.3417 2.0068 12.985 0 5.0365-0.5509 9.5221-1.6526 13.457-1.1018 3.9348-2.4396 7.6335-4.0135 11.096h31.399l-0.236 8.4991h-41.551l-0.4722-7.4368c1.81-2.7543 3.2659-6.1382 4.3676-10.152 1.1805-4.0921 1.7707-8.8138 1.7707-14.165 0-5.5874-0.9837-10.348-2.9511-14.283-1.9674-3.9348-4.7611-6.9252-8.3811-8.9713-3.5413-2.0461-7.7515-3.0691-12.631-3.0691-5.5086 0-10.23 1.3378-14.165 4.0134-3.9348 2.597-6.9646 6.1776-9.0893 10.742-2.1248 4.4856-3.1872 9.6008-3.1872 15.346 0 5.2726 0.59021 9.4828 1.7706 12.631 1.2592 3.0691 2.9118 5.3119 4.9578 6.7284 2.1248 1.3378 4.4857 2.0067 7.0826 2.0067 2.0461 0 3.8167-0.4328 5.312-1.2984 1.5739-0.9444 2.7936-2.2822 3.6593-4.0135 0.8656-1.7313 1.2985-3.8561 1.2985-6.3743 0-3.9348-1.0231-6.9252-3.0691-8.9713-2.0461-2.1248-4.6824-3.1872-7.9089-3.1872-3.1478 0-6.0989 0.8263-8.8533 2.4789-2.7543 1.6526-5.2726 3.7381-7.5547 6.2563l-1.7706-7.5547c2.3609-2.7544 5.2726-4.9972 8.7352-6.7285 3.5413-1.81 7.24-2.715 11.096-2.715 5.666 0 10.23 1.692 13.693 5.0759 3.5413 3.3052 5.3119 8.0269 5.3119 14.165 0 4.3282-0.8263 8.0662-2.4789 11.214-1.6526 3.1479-4.0135 5.5481-7.0826 7.2007-2.9904 1.6526-6.6104 2.4789-10.86 2.4789zm48.634-81.45c-2.2822 0-4.1709-0.7083-5.6661-2.1248-1.4952-1.4952-2.2428-3.4233-2.2428-5.7841 0-2.2822 0.7476-4.1708 2.2428-5.6661 1.4952-1.4952 3.3839-2.2428 5.6661-2.2428s4.1709 0.7476 5.6661 2.2428c1.4952 1.4952 2.2428 3.3839 2.2428 5.6661 0 2.3608-0.7476 4.2889-2.2428 5.7841-1.4952 1.4165-3.3839 2.1248-5.6661 2.1248z" fill="#4150EA" opacity=".78"/>
</svg>
