<svg width="61" height="94" viewBox="0 0 61 94" fill="none" xmlns="http://www.w3.org/2000/svg">
<path d="M1.12963 24.9774C1.12963 37.2778 8.53498 45.3107 22.5926 48.6996L37.7798 52.465C47.4445 54.7243 51.963 59.9959 51.963 68.0288C51.963 78.321 43.5535 84.7222 30.3745 84.7222C18.0741 84.7222 9.79012 78.572 9.28807 69.1584H0C1.12963 83.8436 12.928 93.0062 30.3745 93.0062C48.9506 93.0062 61 83.0905 61 67.5268C61 55.3519 53.7202 47.3189 39.6626 43.93L24.2243 40.1646C14.8107 37.7798 10.1667 32.7593 10.1667 24.8519C10.1667 14.6852 18.4506 8.15844 31.1276 8.15844C42.4239 8.15844 49.3272 13.9321 50.3313 24.0988H59.4938C58.1132 9.03704 47.4444 0 31.2531 0C13.179 0 1.12963 9.91564 1.12963 24.9774Z" fill="#EF7449"/>
</svg>
