<svg width="117" height="110" viewBox="0 0 117 110" fill="none" xmlns="http://www.w3.org/2000/svg">
<path opacity="0.8" d="M3.14855 60.8726V69.713H113.726V60.8726H3.14855ZM53.3994 3.031V110H63.3488V3.031H53.3994ZM49.9989 64.6613C39.4198 78.5534 18.6394 91.9403 0 98.1286C2.01507 100.023 5.03768 103.559 6.42304 105.832C25.3143 98.6338 46.2207 84.2365 57.9333 68.0712L49.9989 64.6613ZM66.2454 64.2824L58.6889 67.6923C70.7793 83.2262 92.1895 98.0023 110.451 105.327C111.962 102.928 114.859 99.2652 117 97.3708C98.6125 91.1825 77.2024 77.7956 66.2454 64.2824ZM25.0624 28.7945H92.0635V42.0551H25.0624V28.7945ZM25.0624 8.08266H92.0635V21.0907H25.0624V8.08266ZM15.3649 0V50.1378H102.139V0H15.3649Z" fill="#4EB59A"/>
</svg>
