<svg height="512" viewBox="0 0 60 59" width="512" xmlns="http://www.w3.org/2000/svg">
    <g id="015---Build-Blockchain" fill="none">
        <path id="Path" d="m41.75 31.883-11.259 6.343c-.3047945.1717872-.6772055.1717872-.982 0l-11.259-6.343c.2555496-.6058866.7060178-1.109144 1.28-1.43l9-5.07c.9133975-.5109617 2.0266025-.5109617 2.94 0l9 5.07c.5739822.320856 1.0244504.8241134 1.28 1.43z" fill="#ffba6e" />
        <path id="Path" d="m27.491 44.213c.3144127.1772082.5089424.5100871.509.871v13.9160261c-.5145624.0021269-1.0209436-.1287743-1.47-.3800261l-9-5.07c-.9459547-.5317258-1.5310244-1.5328449-1.53-2.618v-11.872c.001829-.4062837.0869132-.8078811.25-1.18z" fill="#fab153" />
        <path id="Path" d="m44 39.06v11.872c.0010244 1.0851551-.5840453 2.0862742-1.53 2.618l-9 5.07c-.4490564.2512518-.9554376.382153-1.47.3800261v-13.9160261c.0000576-.3609129.1945873-.6937918.509-.871l11.241-6.333c.1630868.3721189.248171.7737163.25 1.18z" fill="#f2a149" />
        <g fill="#457393">
            <path id="Path" d="m32.293 17.293-1.293 1.293v-17.586c0-.55228475-.4477153-1-1-1s-1 .44771525-1 1v17.586l-1.293-1.293c-.3923789-.3789722-1.0160848-.3735524-1.4018186.0121814s-.3911536 1.0094397-.0121814 1.4018186l3 3c.1876085.1880834.4423455.2937876.708.2937876s.5203915-.1057042.708-.2937876l3-3c.3789722-.3923789.3735524-1.0160848-.0121814-1.4018186s-1.0094397-.3911536-1.4018186-.0121814z" />
            <path id="Path" d="m12.923 45.618c-.0499045-.1220319-.123681-.2328667-.217-.326l-3-3c-.39237889-.3789722-1.01608478-.3735524-1.40181858.0121814-.38573379.3857338-.39115363 1.0094397-.01218142 1.4018186l1.294 1.294h-8.586c-.55228475 0-1 .4477153-1 1s.44771525 1 1 1h8.586l-1.293 1.293c-.25995658.2510745-.3642126.6228779-.27269716.9725073.09151544.3496295.3645604.6226744.71418984.7141899.34962943.0915154.72143285-.0127406.97250732-.2726972l3-3c.093319-.0931333.1670955-.2039681.217-.326.1005214-.2444697.1001619-.5187946-.001-.763z" />
            <path id="Path" d="m59 45h-8.586l1.293-1.293c.3789722-.3923789.3735524-1.0160848-.0121814-1.4018186s-1.0094397-.3911536-1.4018186-.0121814l-3 3c-.093319.0931333-.1670955.2039681-.217.326-.1011169.2446294-.1011169.5193706 0 .764.0499045.1220319.123681.2328667.217.326l3 3c.3923789.3789722 1.0160848.3735524 1.4018186-.0121814s.3911536-1.0094397.0121814-1.4018186l-1.293-1.295h8.586c.5522847 0 1-.4477153 1-1s-.4477153-1-1-1z" />
        </g>
    </g>
</svg>