<svg fill="#7A7A7A" height="512" viewBox="0 0 60 60" width="512" xmlns="http://www.w3.org/2000/svg">
    <g fill="#7A7A7A" id="015---Build-Blockchain">
        <path fill="#7A7A7A" id="Shape" d="m30 39.5c.1720383-.0000487.3411546-.0444805.491-.129l11.75-6.62c.4413958-.2487689.6269839-.7883489.432-1.256-.3433474-.8105021-.9453217-1.4845586-1.712-1.917l-9.006-5.072c-1.2160822-.6826491-2.6999178-.6826491-3.916 0l-9 5.071c-.7678664.4337352-1.3700228 1.110106-1.712 1.923-.1949839.4676511-.0093958 1.0072311.432 1.256l11.75 6.62c.1503164.0827768.319405.1254794.491.124zm-9.979-8.18 8.995-5.066c.610296-.3395001 1.352704-.3395001 1.963 0l9 5.067c.1157545.0665835.2252063.1435679.327.23l-10.306 5.804-10.3-5.8c.0994185-.0873155.2069006-.1649973.321-.232z" />
        <path fill="#7A7A7A" id="Shape" d="m16.741 37.009c-.2468028-.1393074-.541125-.1673509-.8097949-.0771586-.26867.0901922-.4864527.2901488-.5992051.5501586-.2181361.4975302-.3311636 1.0347515-.332 1.578v11.88c.0019229 1.4432051.7811267 2.7734693 2.039 3.481l9 5.07c.5991562.3351379 1.2744845.5104271 1.961.509.5522847 0 1-.4477153 1-1v-14.5c-.0000576-.3609129-.1945873-.6937918-.509-.871zm10.259 20.728-8.979-5.058c-.6282869-.3538898-1.0181443-1.0179076-1.021-1.739v-11.49l10 5.634z" />
        <path fill="#7A7A7A" id="Shape" d="m32 60c.6865611.0017874 1.3619792-.1735251 1.961-.509l9-5.07c1.2578733-.7075307 2.0370771-2.0377949 2.039-3.481v-11.88c-.0008364-.5432485-.1138639-1.0804698-.332-1.578-.1127524-.2600098-.3305351-.4599664-.5992051-.5501586-.2686699-.0901923-.5629921-.0621488-.8097949.0771586l-11.75 6.62c-.3144127.1772082-.5089424.5100871-.509.871v14.5c0 .5522847.4477153 1 1 1zm1-14.916 10-5.634v11.49c-.0028557.7210924-.3927131 1.3851102-1.021 1.739l-8.979 5.058z" />
        <path fill="#7A7A7A" id="Path" d="m30 0c-.5522847 0-1 .44771525-1 1v17.586l-1.293-1.293c-.3923789-.3789722-1.0160848-.3735524-1.4018186.0121814s-.3911536 1.0094397-.0121814 1.4018186l3 3c.1876085.1880834.4423455.2937876.708.2937876s.5203915-.1057042.708-.2937876l3-3c.3789722-.3923789.3735524-1.0160848-.0121814-1.4018186s-1.0094397-.3911536-1.4018186-.0121814l-1.295 1.293v-17.586c0-.55228475-.4477153-1-1-1z" />
        <path fill="#7A7A7A" id="Path" d="m1 47h8.586l-1.293 1.293c-.25995658.2510745-.3642126.6228779-.27269716.9725073.09151544.3496295.3645604.6226744.71418984.7141899.34962943.0915154.72143285-.0127406.97250732-.2726972l3-3c.093319-.0931333.1670955-.2039681.217-.326.1011169-.2446294.1011169-.5193706 0-.764-.0499045-.1220319-.123681-.2328667-.217-.326l-3-3c-.39237889-.3789722-1.01608478-.3735524-1.40181858.0121814-.38573379.3857338-.39115363 1.0094397-.01218142 1.4018186l1.293 1.295h-8.586c-.55228475 0-1 .4477153-1 1s.44771525 1 1 1z" />
        <path fill="#7A7A7A" id="Path" d="m59 45h-8.586l1.293-1.293c.3789722-.3923789.3735524-1.0160848-.0121814-1.4018186s-1.0094397-.3911536-1.4018186-.0121814l-3 3c-.093319.0931333-.1670955.2039681-.217.326-.1011169.2446294-.1011169.5193706 0 .764.0499045.1220319.123681.2328667.217.326l3 3c.3923789.3789722 1.0160848.3735524 1.4018186-.0121814s.3911536-1.0094397.0121814-1.4018186l-1.293-1.295h8.586c.5522847 0 1-.4477153 1-1s-.4477153-1-1-1z" />
    </g>
</svg>