<svg id="Layer_1" enable-background="new 0 0 480 480" height="512" viewBox="0 0 480 480" width="512" xmlns="http://www.w3.org/2000/svg">
    <g fill="#7A7A7A">
        <path fill="#7A7A7A" d="m282.993 240c0-24.262-19.738-44-44-44h-20c-4.418 0-8 3.582-8 8v28h-6c-4.418 0-8 3.582-8 8s3.582 8 8 8h6v28c0 4.418 3.582 8 8 8h20c24.262 0 44-19.738 44-44zm-44 28h-12v-20h6c4.418 0 8-3.582 8-8s-3.582-8-8-8h-6v-20h12c15.439 0 28 12.561 28 28s-12.56 28-28 28z" />
        <path fill="#7A7A7A" d="m438.393 320.65c-3.973 1.934-5.625 6.722-3.691 10.694 3.21 6.595 2.941 14.316-.719 20.656-6.065 10.506-19.547 14.119-30.053 8.053-5.089-2.938-8.729-7.683-10.25-13.359-3.769-14.071 6.91-27.673 21.241-27.698 4.394.044 7.957-3.459 8.062-7.801.015-.617.011-139.833.01-142.198-.002-4.394-3.569-7.998-8-7.998-8.117 0-15.3-4.391-19.115-11-6.08-10.53-2.479-23.972 8.052-30.053 10.506-6.064 23.987-2.453 30.053 8.053 3.255 5.638 3.847 12.387 1.625 18.515-1.506 4.154.64 8.742 4.793 10.248 4.154 1.506 8.741-.639 10.249-4.793 3.836-10.58 2.812-22.232-2.81-31.97-12.826-22.215-43.725-25.622-61.071-6.527l-116.797-67.407c-3.831-2.211-8.776-.905-10.973 3.019-3.94 6.735-11.211 10.916-19.006 10.916-12.131 0-22-9.869-22-22 0-19.319 23.089-29.065 36.998-16.096 3.232 3.013 8.294 2.835 11.307-.396s2.836-8.294-.396-11.307c-7.056-6.578-16.257-10.201-25.909-10.201-25.754 0-44.057 25.185-36.17 49.638l-116.802 67.412c-3.804 2.195-5.182 7.099-2.879 11.003 3.879 6.785 3.871 15.185-.034 21.947-6.065 10.506-19.547 14.117-30.052 8.053-10.506-6.066-14.118-19.548-8.053-30.053 3.906-6.764 11.191-10.981 19.014-11.005 4.418-.013 7.989-3.606 7.976-8.024-.013-4.41-3.592-7.976-8-7.976-13.312 0-26.027 7.193-32.847 19.005-12.801 22.172-.367 50.664 24.846 56.121 0 2.265-.005 134.456.01 135.075.105 4.341 3.668 7.844 8.062 7.8 14.314.024 25.016 13.607 21.241 27.698-5.02 18.733-30.452 22.368-40.303 5.306-3.027-5.243-3.762-11.334-2.07-17.15 1.234-4.242-1.205-8.682-5.447-9.916-4.242-1.232-8.682 1.205-9.916 5.447-2.922 10.044-1.651 20.563 3.577 29.619 10.428 18.061 33.684 24.431 51.909 13.909 15.778-9.11 22.547-27.901 17.161-44.579l43.776-25.265v6.935c0 13.233 10.767 24 24 24h63v69.855c-7.909 1.702-14.913 5.867-20.159 11.657l-79.97-46.154c-3.827-2.209-8.72-.897-10.928 2.93s-.897 8.719 2.93 10.928l79.957 46.147c-7.901 24.499 10.477 49.637 36.171 49.637 10.15 0 19.692-3.953 26.87-11.129 3.124-3.124 3.125-8.189 0-11.314-3.124-3.123-8.189-3.124-11.314 0-4.156 4.155-9.68 6.444-15.557 6.444-12.131 0-22-9.869-22-22s9.869-22 22-22c7.795 0 15.066 4.181 19.006 10.916 1.849 3.301 5.972 5.013 9.805 3.562 1.003-.381-7.325 4.359 117.965-67.951 7.004 7.71 17.119 12.467 28.098 12.466 28.215-.002 46.484-29.463 34.221-54.651-1.933-3.975-6.722-5.627-10.694-3.693zm-170.241-257.162 110.615 63.84c-2.463 7.663-2.465 15.766-.003 23.344l-43.771 25.262v-6.934c0-13.233-10.767-24-24-24h-63v-69.872c7.754-1.682 14.821-5.763 20.159-11.64zm-174.959 252c-5.345-5.88-12.426-9.959-20.199-11.632v-127.729c7.649-1.64 14.773-5.608 20.212-11.609l19.778 11.415c3.81 2.199 8.709.914 10.928-2.93 2.208-3.827.897-8.719-2.93-10.928l-19.779-11.415c2.431-7.57 2.431-15.748 0-23.323l110.632-63.85c5.246 5.79 12.25 9.955 20.159 11.657v69.856h-63c-13.233 0-24 10.767-24 24v116.592zm67.8-4.488v-142c0-4.411 3.589-8 8-8h142c4.411 0 8 3.589 8 8v71c0 4.418 3.582 8 8 8s8-3.582 8-8v-45.592l51.801-29.897c5.345 5.88 12.426 9.959 20.199 11.632v127.712c-7.773 1.674-14.854 5.752-20.199 11.632-58.768-33.918-56.719-33.277-59.801-33.277-3.947 0-7.488 2.959-7.948 7.115-.073.662-.052-.296-.052 21.673 0 4.411-3.589 8-8 8h-142c-4.411.002-8-3.587-8-7.998zm107.159 105.512c-5.337-5.877-12.405-9.957-20.159-11.639v-69.873h63c13.233 0 24-10.767 24-24v-6.935l43.771 25.262c-2.458 7.565-2.465 15.668.003 23.344z" />
    </g>
</svg>