<svg id="Layer_1" enable-background="new 0 0 464 464" height="512" viewBox="0 0 464 464" width="512" xmlns="http://www.w3.org/2000/svg"><g fill="#cbe3fa"><path d="m407.012 311c-4.418 0-8-3.582-8-8v-142c0-4.418 3.582-8 8-8s8 3.582 8 8v142c0 4.418-3.581 8-8 8z"/><path d="m251.064 423.005c-2.208-3.827-.897-8.719 2.93-10.928l122.993-70.984c3.825-2.209 8.719-.898 10.928 2.93 2.208 3.827.897 8.719-2.93 10.928l-122.993 70.984c-3.803 2.195-8.707.92-10.928-2.93z"/><path d="m376.986 122.907-122.993-70.984c-3.827-2.208-5.138-7.101-2.93-10.928s7.101-5.138 10.928-2.93l122.993 70.984c3.827 2.208 5.138 7.101 2.93 10.928-2.215 3.839-7.112 5.132-10.928 2.93z"/><path d="m57.012 311c-4.418 0-8-3.582-8-8v-142c0-4.418 3.582-8 8-8s8 3.582 8 8v142c0 4.418-3.581 8-8 8z"/><path d="m202.033 425.935-122.993-70.985c-3.827-2.208-5.138-7.101-2.93-10.928s7.101-5.138 10.928-2.93l122.993 70.984c3.827 2.208 5.138 7.101 2.93 10.928-2.215 3.84-7.112 5.133-10.928 2.931z"/><path d="m76.11 119.978c-2.208-3.827-.897-8.719 2.93-10.928l122.993-70.984c3.825-2.209 8.719-.897 10.928 2.93 2.208 3.827.897 8.719-2.93 10.928l-122.993 70.983c-3.803 2.196-8.706.921-10.928-2.929z"/><path d="m232.012 153c-4.418 0-8-3.582-8-8v-85c0-4.418 3.582-8 8-8s8 3.582 8 8v85c0 4.418-3.581 8-8 8z"/><path d="m232.012 412c-4.418 0-8-3.582-8-8v-85c0-4.418 3.582-8 8-8s8 3.582 8 8v85c0 4.418-3.581 8-8 8z"/><path d="m376.983 324.906-61.97-35.766c-3.827-2.208-5.138-7.101-2.93-10.928s7.101-5.138 10.928-2.93l61.97 35.766c3.827 2.208 5.138 7.101 2.93 10.928-2.216 3.839-7.112 5.132-10.928 2.93z"/><path d="m140.537 188.442-61.493-35.491c-3.827-2.208-5.138-7.101-2.93-10.928s7.101-5.138 10.928-2.93l61.493 35.491c3.827 2.208 5.138 7.101 2.93 10.928-2.216 3.839-7.113 5.133-10.928 2.93z"/><path d="m76.114 321.976c-2.208-3.827-.897-8.719 2.93-10.928l61.97-35.766c3.825-2.209 8.719-.898 10.928 2.93 2.208 3.827.897 8.719-2.93 10.928l-61.97 35.766c-3.803 2.195-8.707.92-10.928-2.93z"/><path d="m312.56 185.513c-2.208-3.827-.897-8.719 2.93-10.928l61.493-35.491c3.826-2.209 8.719-.898 10.928 2.93 2.208 3.827.897 8.719-2.93 10.928l-61.493 35.491c-3.803 2.195-8.706.92-10.928-2.93z"/></g><path d="m319.012 161v142c0 8.84-7.16 16-16 16h-142c-8.84 0-16-7.16-16-16v-142c0-8.84 7.16-16 16-16h142c8.84 0 16 7.16 16 16z" fill="#ff6d7a"/><path d="m231.012 188h-20c-4.418 0-8 3.582-8 8v28h-6c-4.418 0-8 3.582-8 8s3.582 8 8 8h6v28c0 4.418 3.582 8 8 8h20c24.262 0 44-19.738 44-44s-19.738-44-44-44zm0 72h-12v-20h6c4.418 0 8-3.582 8-8s-3.582-8-8-8h-6v-20h12c15.439 0 28 12.561 28 28s-12.56 28-28 28z" fill="#fff"/><path d="m432.932 116c8.28 14.35 3.37 32.7-10.98 40.98-14.35 8.29-32.702 3.373-40.982-10.977-8.29-14.35-3.37-32.7 10.98-40.98 14.35-8.29 32.692-3.373 40.982 10.977z" fill="#ff6d7a"/><path d="m421.952 307.02c14.35 8.28 19.26 26.63 10.98 40.98-8.29 14.35-26.63 19.27-40.98 10.98-14.35-8.28-19.27-26.63-10.98-40.98 8.28-14.35 26.63-19.27 40.98-10.98z" fill="#ff6d7a"/><circle cx="232.012" cy="30" fill="#ff6d7a" r="30"/><circle cx="232.012" cy="434" fill="#ff6d7a" r="30"/><path d="m72.072 105.02c14.35 8.28 19.27 26.63 10.98 40.98-8.28 14.35-26.63 19.27-40.98 10.98-14.35-8.28-19.26-26.63-10.98-40.98 8.29-14.35 26.63-19.27 40.98-10.98z" fill="#ff6d7a"/><path d="m83.052 318c8.29 14.35 3.37 32.7-10.98 40.98-14.35 8.29-32.69 3.37-40.98-10.98-8.28-14.35-3.37-32.7 10.98-40.98 14.35-8.29 32.7-3.37 40.98 10.98z" fill="#ff6d7a"/><path d="m59.619 318.596c-7.904 5.754-12.755 15.232-12.616 25.061.123 8.7-11.324 12.095-15.756 4.608-11.155-18.845 1.092-42.845 22.685-45.109 8.713-.914 12.769 10.284 5.687 15.44z" fill="#ff8c95"/><path d="m59.619 116.603c-7.904 5.754-12.755 15.232-12.616 25.061.123 8.7-11.324 12.095-15.756 4.608-11.155-18.845 1.092-42.845 22.685-45.109 8.713-.914 12.769 10.284 5.687 15.44z" fill="#ff8c95"/><path d="m409.494 318.596c-7.904 5.754-12.755 15.232-12.616 25.061.123 8.7-11.324 12.095-15.756 4.608-11.155-18.845 1.092-42.845 22.685-45.109 8.714-.914 12.77 10.284 5.687 15.44z" fill="#ff8c95"/><path d="m409.494 116.603c-7.904 5.754-12.755 15.232-12.616 25.061.123 8.7-11.324 12.095-15.756 4.608-11.136-18.813 1.053-42.84 22.685-45.109 8.714-.914 12.77 10.284 5.687 15.44z" fill="#ff8c95"/><path d="m234.561 15.599c-7.904 5.754-12.755 15.232-12.616 25.061.123 8.7-11.324 12.095-15.756 4.608-11.155-18.845 1.092-42.845 22.685-45.109 8.714-.913 12.77 10.285 5.687 15.44z" fill="#ff8c95"/><path d="m234.561 419.599c-7.904 5.754-12.755 15.232-12.616 25.061.123 8.7-11.324 12.095-15.756 4.608-11.155-18.845 1.092-42.845 22.685-45.109 8.714-.914 12.77 10.284 5.687 15.44z" fill="#ff8c95"/><path d="m303.103 165h-112.092c-8.837 0-15.998 7.163-15.998 16v124c0 7.732-6.268 14-14 14-8.837 0-16-7.163-16-16v-142c0-8.837 7.163-16 16-16h142c13.922 0 13.013 20 .09 20z" fill="#ff8c95"/></svg>