<svg enable-background="new 0 0 512 512" height="512" viewBox="0 0 512 512" width="512" xmlns="http://www.w3.org/2000/svg" xmlns:xlink="http://www.w3.org/1999/xlink"><linearGradient id="SVGID_1_" gradientUnits="userSpaceOnUse" x1="81.093" x2="430.909" y1="430.884" y2="81.069"><stop offset="0" stop-color="#f803fe"/><stop offset="1" stop-color="#0ecbde"/></linearGradient><g id="_x30_1_Blockchain"><path d="m139.163 120.964c-1.471-2.551-.596-5.813 1.955-7.281l49.206-28.361c2.548-1.476 5.81-.593 7.281 1.955 1.471 2.551.596 5.813-1.955 7.281l-49.206 28.361c-2.545 1.47-5.809.596-7.281-1.955zm233.676 67.287c-1.471-2.551-4.735-3.426-7.281-1.96l-19.617 11.303c-2.551 1.471-3.428 4.73-1.96 7.281 1.476 2.556 4.732 3.424 7.281 1.96l19.617-11.303c2.551-1.471 3.428-4.73 1.96-7.281zm-56.489-93.693 49.206 28.361c2.555 1.471 5.812.591 7.281-1.955 1.471-2.551.596-5.813-1.955-7.281l-49.206-28.361c-2.564-1.476-5.813-.593-7.281 1.955-1.471 2.551-.596 5.813 1.955 7.281zm-175.229 100.974 19.617 11.303c2.553 1.467 5.808.59 7.281-1.96 1.468-2.551.591-5.81-1.96-7.281l-19.617-11.303c-2.551-1.466-5.81-.593-7.281 1.96-1.468 2.551-.591 5.81 1.96 7.281zm5.321 130.185 19.617-11.303c2.551-1.471 3.428-4.73 1.96-7.281-1.473-2.554-4.73-3.426-7.281-1.96l-19.617 11.303c-2.551 1.471-3.428 4.73-1.96 7.281 1.476 2.556 4.732 3.424 7.281 1.96zm219.171 63.369-49.261 28.361c-2.551 1.468-3.428 4.73-1.96 7.281 1.467 2.547 4.724 3.429 7.281 1.96l49.261-28.361c2.551-1.468 3.428-4.73 1.96-7.281-1.471-2.551-4.733-3.423-7.281-1.96zm-169.965 28.361-49.261-28.361c-2.551-1.46-5.81-.591-7.281 1.96-1.468 2.551-.591 5.813 1.96 7.281l49.261 28.361c2.558 1.469 5.814.586 7.281-1.96 1.468-2.552.591-5.813-1.96-7.281zm175.231-100.971-19.617-11.303c-2.551-1.468-5.813-.594-7.281 1.96-1.468 2.551-.591 5.81 1.96 7.281l19.617 11.303c2.553 1.467 5.808.59 7.281-1.96 1.468-2.551.591-5.81-1.96-7.281zm-191.711-101.838c0-1.687 1.085-3.707 2.668-4.618l71.501-41.217c1.65-.953 3.676-.953 5.326 0l71.501 41.217c1.462.842 2.668 2.762 2.668 4.618v82.731c0 1.905-1.018 3.668-2.668 4.618l-71.501 41.217c-1.774 1.023-3.875.837-5.326 0l-71.501-41.217c-1.65-.95-2.668-2.712-2.668-4.618zm10.662 79.652 60.839 35.07v-70.409l-60.839-35.071zm132.34 0v-70.41l-60.839 35.071v70.409zm-127.011-79.644 60.841 35.071 60.841-35.072-60.841-35.07zm13.806-136.909v-48.256c0-1.833 1.207-3.777 2.668-4.618l41.704-24.039c1.65-.953 3.676-.953 5.326 0l41.704 24.039c1.47.847 2.668 2.769 2.668 4.618v48.256c0 1.905-1.018 3.668-2.668 4.618l-41.704 24.039c-1.778 1.026-3.814.872-5.326 0l-41.704-24.039c-1.65-.95-2.668-2.712-2.668-4.618zm10.662-3.079 31.042 17.892v-35.939l-31.042-17.893zm72.746 0v-35.94l-31.042 17.893v35.939zm-67.412-45.172 31.039 17.891 31.039-17.891-31.039-17.89zm-97.163 101.117v48.256c0 1.905-1.018 3.668-2.668 4.618l-41.704 24.039c-1.779 1.027-3.812.873-5.326 0l-41.707-24.039c-1.65-.95-2.668-2.712-2.668-4.618v-48.256c0-1.846 1.218-3.783 2.668-4.618l41.704-24.039c1.65-.953 3.676-.953 5.326 0l41.707 24.039c1.471.847 2.668 2.774 2.668 4.618zm-78.076.005 31.041 17.891 31.039-17.891-31.041-17.891zm-5.334 45.171 31.044 17.893v-35.939l-31.044-17.894zm72.748 0v-35.94l-31.042 17.893v35.939zm361.138-45.176v48.256c0 1.905-1.018 3.668-2.668 4.618l-41.704 24.039c-1.778 1.026-3.814.872-5.326 0l-41.707-24.039c-1.65-.95-2.668-2.712-2.668-4.618v-48.256c0-1.847 1.214-3.78 2.668-4.618l41.707-24.039c1.65-.953 3.676-.953 5.326 0l41.704 24.039c1.485.856 2.668 2.79 2.668 4.618zm-78.076.005 31.041 17.891 31.039-17.891-31.039-17.891zm-5.334 45.171 31.044 17.893v-35.939l-31.044-17.894zm72.748 0v-35.94l-31.042 17.893v35.939zm-339.814 157.273v48.256c0 1.905-1.018 3.668-2.668 4.618l-41.704 24.039c-1.779 1.027-3.812.873-5.326 0l-41.707-24.039c-1.65-.95-2.668-2.712-2.668-4.618v-48.256c0-1.662 1.065-3.696 2.668-4.618l41.704-24.039c1.65-.953 3.676-.953 5.326 0l41.707 24.039c1.473.847 2.668 2.777 2.668 4.618zm-78.076.005 31.041 17.891 31.039-17.891-31.041-17.891zm-5.334 45.172 31.044 17.893v-35.939l-31.044-17.894zm72.748 0v-35.94l-31.042 17.893v35.939zm361.138-45.177v48.256c0 1.905-1.018 3.668-2.668 4.618l-41.704 24.039c-1.778 1.026-3.814.872-5.326 0l-41.707-24.039c-1.65-.95-2.668-2.712-2.668-4.618v-48.256c0-1.839 1.213-3.781 2.668-4.618l41.707-24.039c1.65-.953 3.676-.953 5.326 0l41.704 24.039c1.46.841 2.668 2.765 2.668 4.618zm-78.076.005 31.041 17.891 31.039-17.891-31.039-17.891zm-5.334 45.172 31.044 17.893v-35.939l-31.044-17.894zm72.748 0v-35.94l-31.042 17.893v35.939zm-164.577 56.041v48.256c0 1.905-1.018 3.668-2.668 4.618l-41.704 24.039c-1.484.856-3.548 1.026-5.326 0l-41.704-24.039c-1.65-.95-2.668-2.712-2.668-4.618v-48.256c0-1.83 1.204-3.774 2.668-4.618l41.704-24.039c1.65-.953 3.676-.953 5.326 0l41.704 24.039c1.461.841 2.668 2.768 2.668 4.618zm-78.074.005 31.039 17.891 31.039-17.891-31.039-17.89zm-5.334 45.172 31.042 17.892v-35.939l-31.042-17.893zm72.746 0v-35.94l-31.042 17.893v35.939z" fill="url(#SVGID_1_)"/></g></svg>