<svg enable-background="new 0 0 514.11 514.11" height="512" viewBox="0 0 514.11 514.11" width="512" xmlns="http://www.w3.org/2000/svg">
    <g id="_x30_1_Blockchain">
        <g fill="#7A7A7A">
            <path fill="#7A7A7A" d="m146.392 125.376 49.212-28.364c2.551-1.468 3.426-4.73 1.955-7.282-1.471-2.549-4.733-3.431-7.282-1.955l-49.212 28.364c-2.551 1.468-3.426 4.73-1.955 7.282 1.472 2.55 4.737 3.425 7.282 1.955z" />
            <path fill="#7A7A7A" d="m372.813 190.715c-1.471-2.551-4.736-3.426-7.282-1.96l-19.619 11.304c-2.551 1.471-3.429 4.73-1.96 7.282 1.476 2.556 4.733 3.425 7.282 1.96l19.619-11.304c2.551-1.471 3.428-4.731 1.96-7.282z" />
            <path fill="#7A7A7A" d="m316.317 97.012 49.212 28.364c2.555 1.472 5.813.591 7.282-1.955 1.471-2.551.596-5.813-1.955-7.282l-49.212-28.364c-2.564-1.476-5.813-.594-7.282 1.955-1.471 2.551-.596 5.813 1.955 7.282z" />
            <path fill="#7A7A7A" d="m141.068 197.997 19.619 11.304c2.553 1.467 5.809.59 7.282-1.96 1.468-2.551.591-5.811-1.96-7.282l-19.619-11.304c-2.551-1.466-5.811-.594-7.282 1.96-1.468 2.551-.591 5.811 1.96 7.282z" />
            <path fill="#7A7A7A" d="m146.39 328.197 19.619-11.304c2.551-1.471 3.429-4.73 1.96-7.282-1.474-2.554-4.73-3.426-7.282-1.96l-19.619 11.304c-2.551 1.471-3.429 4.73-1.96 7.282 1.476 2.556 4.733 3.424 7.282 1.96z" />
            <path fill="#7A7A7A" d="m365.586 391.573-49.266 28.364c-2.551 1.468-3.429 4.73-1.96 7.282 1.467 2.547 4.725 3.429 7.282 1.96l49.266-28.364c2.551-1.468 3.429-4.73 1.96-7.282-1.471-2.551-4.733-3.423-7.282-1.96z" />
            <path fill="#7A7A7A" d="m195.601 419.937-49.266-28.364c-2.551-1.46-5.811-.591-7.282 1.96-1.468 2.551-.591 5.813 1.96 7.282l49.266 28.364c2.558 1.47 5.815.586 7.282-1.96 1.469-2.552.591-5.814-1.96-7.282z" />
            <path fill="#7A7A7A" d="m370.852 318.955-19.619-11.304c-2.551-1.468-5.813-.594-7.282 1.96-1.468 2.551-.591 5.811 1.96 7.282l19.619 11.304c2.553 1.467 5.809.59 7.282-1.96 1.469-2.552.592-5.811-1.96-7.282z" />
            <path fill="#7A7A7A" d="m179.119 299.846c0 1.906 1.018 3.668 2.668 4.618l71.509 41.222c1.451.837 3.553 1.024 5.327 0l71.509-41.222c1.651-.95 2.668-2.713 2.668-4.618v-82.74c0-1.856-1.206-3.776-2.668-4.618l-71.509-41.222c-1.651-.953-3.676-.953-5.327 0l-71.509 41.222c-1.584.911-2.668 2.931-2.668 4.618zm10.664-73.498 60.846 35.075v70.417l-60.846-35.074zm71.509 105.492v-70.417l60.846-35.075v70.418zm-5.332-149.802 60.848 35.075-60.848 35.076-60.848-35.076z" />
            <path fill="#7A7A7A" d="m211.588 84.807 41.709 24.042c1.512.872 3.548 1.026 5.327 0l41.709-24.042c1.651-.95 2.668-2.713 2.668-4.618v-48.262c0-1.849-1.198-3.771-2.668-4.618l-41.709-24.042c-1.651-.953-3.676-.953-5.327 0l-41.709 24.042c-1.462.841-2.668 2.785-2.668 4.618v48.261c0 1.906 1.018 3.669 2.668 4.619zm7.995-43.642 31.045 17.895v35.943l-31.045-17.894zm41.709 53.838v-35.943l31.045-17.895v35.944zm-5.332-80.963 31.042 17.893-31.042 17.893-31.042-17.893z" />
            <path fill="#7A7A7A" d="m125.076 128.442-41.712-24.042c-1.651-.953-3.676-.953-5.327 0l-41.709 24.042c-1.45.835-2.668 2.772-2.668 4.618v48.261c0 1.906 1.018 3.668 2.668 4.618l41.711 24.042c1.514.873 3.547 1.027 5.327 0l41.709-24.042c1.651-.95 2.668-2.713 2.668-4.618v-48.261c.001-1.844-1.197-3.771-2.667-4.618zm-44.375-13.269 31.045 17.893-31.042 17.893-31.045-17.893zm-36.377 27.125 31.048 17.896v35.943l-31.048-17.895zm41.712 53.839v-35.943l31.045-17.895v35.944z" />
            <path fill="#7A7A7A" d="m475.591 128.442-41.708-24.042c-1.651-.953-3.676-.953-5.327 0l-41.711 24.042c-1.455.838-2.668 2.771-2.668 4.618v48.261c0 1.906 1.018 3.668 2.668 4.618l41.711 24.042c1.512.872 3.548 1.026 5.327 0l41.709-24.042c1.651-.95 2.668-2.713 2.668-4.618v-48.261c0-1.827-1.184-3.762-2.669-4.618zm-44.371-13.269 31.042 17.893-31.042 17.893-31.045-17.893zm-36.38 27.125 31.048 17.896v35.943l-31.048-17.895zm41.711 53.839v-35.943l31.045-17.895v35.944z" />
            <path fill="#7A7A7A" d="m125.076 330.914-41.711-24.042c-1.651-.953-3.676-.953-5.327 0l-41.709 24.042c-1.603.922-2.668 2.956-2.668 4.618v48.261c0 1.906 1.018 3.668 2.668 4.618l41.711 24.042c1.514.873 3.547 1.027 5.327 0l41.709-24.042c1.651-.95 2.668-2.713 2.668-4.618v-48.261c0-1.84-1.196-3.77-2.668-4.618zm-44.375-13.269 31.045 17.893-31.042 17.893-31.045-17.893zm-36.377 27.125 31.048 17.896v35.943l-31.048-17.895zm41.712 53.839v-35.943l31.045-17.895v35.944z" />
            <path fill="#7A7A7A" d="m475.591 330.914-41.709-24.042c-1.651-.953-3.676-.953-5.327 0l-41.711 24.042c-1.455.837-2.668 2.779-2.668 4.618v48.261c0 1.906 1.018 3.668 2.668 4.618l41.711 24.042c1.512.872 3.548 1.026 5.327 0l41.709-24.042c1.651-.95 2.668-2.713 2.668-4.618v-48.261c.001-1.853-1.207-3.777-2.668-4.618zm-44.371-13.269 31.042 17.893-31.042 17.893-31.045-17.893zm-36.38 27.125 31.048 17.896v35.943l-31.048-17.895zm41.711 53.839v-35.943l31.045-17.895v35.944z" />
            <path fill="#7A7A7A" d="m300.332 432.144-41.709-24.042c-1.651-.953-3.676-.953-5.327 0l-41.709 24.042c-1.464.844-2.668 2.788-2.668 4.618v48.261c0 1.906 1.018 3.668 2.668 4.618l41.709 24.042c1.778 1.026 3.842.856 5.327 0l41.709-24.042c1.651-.95 2.668-2.713 2.668-4.618v-48.261c.001-1.85-1.206-3.777-2.668-4.618zm-44.372-13.269 31.042 17.893-31.042 17.893-31.042-17.893zm-36.377 27.125 31.045 17.895v35.943l-31.045-17.894zm41.709 53.838v-35.943l31.045-17.895v35.944z" />
        </g>
    </g>
</svg>