<svg id="Layer_1" enable-background="new 0 0 472 472" height="512" viewBox="0 0 472 472" width="512" xmlns="http://www.w3.org/2000/svg"><path d="m348.729 319.84c-8.42-10.66-7.3-25.99 2.59-35.31 9.957-9.407 10.974-24.758 2.53-35.39l-11.52-14.48c-5.31-6.68-7.04-15.54-4.62-23.73l7.44-25.23c3.81-12.89-2.76-26.58-15.2-31.67l-9.83-4.03c-9.84-4.03-16.27-13.61-16.27-24.25v-25.75c0-55.242-44.775-100-100-100h-48c-55.23 0-100 44.78-100 100v25.75c0 10.64-6.43 20.22-16.27 24.25l-9.83 4.03c-12.44 5.09-19.01 18.78-15.2 31.67l7.44 25.23c2.42 8.19.69 17.05-4.62 23.73l-11.52 14.48c-8.48 10.66-7.38 26.04 2.53 35.39 9.861 9.299 11.03 24.615 2.59 35.31l-.68.87c-8.23 10.43-7.36 25.37 2.04 34.77l23.288 23.288c-6.21 8.886-9.768 19.634-9.768 31.002v46.23c0 4.42 3.58 8 8 8h292c4.42 0 8-3.58 8-8v-46.23c0-11.404-3.577-22.184-9.822-31.085.091.129-1.718 1.86 23.342-23.205 9.399-9.401 10.27-24.34 2.04-34.77z" fill="#e0b7a3"/><path d="m333.849 410.77v45.23c0 4.418-3.582 8-8 8h-292c-4.418 0-8-3.582-8-8v-45.23c0-23.06 14.61-43.59 36.39-51.14.1-.1 31.642-10.878 43.12-14.87 2.66-.92 5.22-2.03 7.65-3.32 11.56 26.15 37.72 43.56 66.84 43.56s55.28-17.41 66.84-43.56c2.43 1.29 4.99 2.4 7.65 3.32.1.035 43 14.86 43.1 14.86 21.79 7.55 36.41 28.08 36.41 51.15z" fill="#ff6d7a"/><path d="m121.394 355.738c4.082 5.428 1.699 13.252-4.723 15.465-.313.108-24.325 8.321-24.432 8.427-21.78 7.55-36.39 27.08-36.39 50.14v24.23c0 5.523-4.477 10-10 10h-12c-4.418 0-8-3.582-8-8v-45.23c0-23.06 14.61-43.59 36.39-51.14 0 0 .01-.01.03-.01 33.829-12.102 43.143-14.147 50.74-18.18 2.264 5.127 5.088 9.914 8.385 14.298z" fill="#ff8c95"/><path d="m297.429 359.62c-1.23-.44-40.79-14.06-43.09-14.86-21.81-7.53-36.36-27.99-36.49-50.89 35.22-14.9 60.015-49.84 60.045-90.62v-50.014c.006-3.365-2.049-6.379-5.215-7.522-17.441-6.295-31.725-18.396-40.892-33.716-2.888-4.826-9.7-5.304-13.162-.872-30.004 38.411-77.147 61.278-128.336 58.554-4.585-.244-8.471 3.377-8.479 7.968v25.412c.02 40.85 24.759 75.95 60.039 90.86-.15 22.88-14.69 43.32-36.49 50.84-11.553 4.019-43.02 14.77-43.12 14.87-10.8 3.75-19.85 10.69-26.21 19.55l-23.7-23.7c-9.4-9.4-10.27-24.34-2.04-34.77l.68-.87c8.44-10.696 7.271-26.011-2.59-35.31-9.91-9.35-11.01-24.73-2.53-35.39l11.52-14.48c5.31-6.68 7.04-15.54 4.62-23.73l-7.44-25.23c-3.81-12.89 2.76-26.58 15.2-31.67l9.83-4.03c9.84-4.03 16.27-13.61 16.27-24.25v-25.75c0-55.22 44.77-100 100-100h48c55.225 0 100 44.758 100 100v25.75c0 10.64 6.43 20.22 16.27 24.25l9.83 4.03c12.44 5.09 19.01 18.78 15.2 31.67l-7.44 25.23c-2.42 8.19-.69 17.05 4.62 23.73l11.52 14.48c8.444 10.632 7.427 25.982-2.53 35.39-9.89 9.32-11.01 24.65-2.59 35.31l.68.87c8.23 10.43 7.36 25.37-2.04 34.77l-23.7 23.7c-6.37-8.87-15.42-15.81-26.23-19.56z" fill="#585966"/><path d="m208.883.125c12.893.639 12.428 19.911-.48 20.088-6.841.094-14.266-.054-22.555-.213-55.22-1.058-100 44.78-100 100v25.75c0 10.64-6.43 20.22-16.27 24.25l-9.83 4.03c-12.44 5.09-19.01 18.78-15.2 31.67l7.44 25.23c2.42 8.19.69 17.05-4.62 23.73l-11.52 14.48c-8.48 10.66-7.38 26.04 2.53 35.39 9.86 9.3 11.03 24.61 2.59 35.31l-.68.87c-7.56 9.58-7.44 22.96-.08 32.36-1.66 1.8-3.192 3.698-4.592 5.698l-23.287-23.288c-9.4-9.4-10.27-24.34-2.04-34.77l.68-.87c8.44-10.7 7.27-26.01-2.59-35.31-9.91-9.35-11.01-24.73-2.53-35.39l11.52-14.48c5.31-6.68 7.04-15.54 4.62-23.73l-7.44-25.23c-3.81-12.89 2.76-26.58 15.2-31.67l9.83-4.03c9.84-4.03 16.27-13.61 16.27-24.25v-25.75c0-55.228 44.772-100 100-100 0 0 51.367.042 53.034.125z" fill="#6e6f80"/><path d="m183.743 278.04c13.282 3.736 10.599 23.417-3.198 23.527-54.909.438-98.705-44.314-98.735-98.507v-25.412c.01-4.6 3.899-8.208 8.479-7.968 3.117.167 6.217.239 9.299.219 6.713-.045 12.206 5.304 12.201 12.017-.034 48.365 31.65 84.789 71.954 96.124z" fill="#f2d1c2"/><path d="m213.561 311.566c-21.453 7.888-45.489 8.111-67.419.055-3.598-1.322-5.741-5.045-5.088-8.822.502-2.903.772-5.871.796-8.879 24.301 10.275 51.893 10.152 76-.05.017 3.009.286 5.978.787 8.883.65 3.771-1.485 7.492-5.076 8.813z" fill="#c79a83"/><path d="m190.849 194h-23c-4.418 0-8-3.582-8-8s3.582-8 8-8h23c4.418 0 8 3.582 8 8s-3.581 8-8 8z" fill="#b5d5f5"/><circle cx="214.849" cy="186" fill="#eef7ff" r="24"/><circle cx="143.849" cy="186" fill="#eef7ff" r="24"/><path d="m133.819 199.539c1.625 3.748-2.907 7.08-5.953 4.358-5.33-4.762-8.522-11.867-7.952-19.694.843-11.573 10.105-21.027 21.659-22.098 4.515-.419 5.841 5.059 2.471 6.984-10.852 6.198-15.033 19.363-10.225 30.45z" fill="#fff"/><path d="m204.819 199.539c1.625 3.748-2.907 7.08-5.953 4.358-5.33-4.762-8.522-11.867-7.952-19.694.843-11.573 10.105-21.027 21.659-22.098 4.515-.419 5.841 5.059 2.471 6.984-10.852 6.198-15.033 19.363-10.225 30.45z" fill="#fff"/><path d="m447.849 336v128h-190v-128c0-8.84 7.16-16 16-16h158c8.84 0 16 7.16 16 16z" fill="#cbe3fa"/><g fill="#fff"><path d="m319.851 417c-2.129 0-4.253-.844-5.827-2.517l-16-17c-2.899-3.081-2.899-7.885 0-10.966l16-17c3.028-3.217 8.091-3.371 11.309-.343s3.371 8.091.343 11.309l-10.841 11.517 10.84 11.517c4.795 5.095 1.143 13.483-5.824 13.483z"/><path d="m384.848 417c-6.964 0-10.622-8.385-5.824-13.483l10.839-11.517-10.84-11.517c-3.028-3.217-2.875-8.28.343-11.309 3.217-3.027 8.281-2.875 11.309.343l16 17c2.899 3.081 2.899 7.885 0 10.966l-16 17c-1.574 1.672-3.698 2.517-5.827 2.517z"/><path d="m348.856 417.002c-5.17 0-8.974-4.822-7.794-9.834l8-34c1.012-4.3 5.316-6.966 9.62-5.955 4.301 1.012 6.967 5.318 5.955 9.62l-8 34c-.867 3.684-4.153 6.169-7.781 6.169z"/></g><path d="m431.933 340h-128.084c-8.837 0-16 7.163-16 16v108h-30v-128c0-8.837 7.163-16 16-16h158c13.924 0 13.007 20 .084 20z" fill="#eef7ff"/><path d="m463.849 472h-222c-4.418 0-8-3.582-8-8s3.582-8 8-8h222c4.418 0 8 3.582 8 8s-3.581 8-8 8z" fill="#b5d5f5"/></svg>