<svg id="Layer_1" enable-background="new 0 0 480 480" height="512" viewBox="0 0 480 480" width="512" xmlns="http://www.w3.org/2000/svg">
    <g fill="#7A7A7A">
        <path fill="#7A7A7A" d="m156.75 312.949c19.759 6.081 41.324 6.342 62.118-.108 1.796 9.657 5.858 18.869 11.88 26.682 1.576 2.044 3.946 3.115 6.342 3.115 6.55 0 10.413-7.587 6.33-12.885-5.127-6.649-8.342-14.664-9.298-22.977 36.902-18.067 59.664-55.076 59.692-95.521 0-16.169-.013-52.646.003-54.577.703-4.454-2.358-8.462-6.571-9.214-20.675-6.154-37.71-21.729-45.684-41.816-2.381-6.001-10.576-6.862-14.129-1.43-29.942 45.752-82.346 71.766-136.449 64.861-1.536-.196-3.125-.02-4.582.661-4.625 2.16-4.641 6.637-4.647 8.548-.004 1.158.011 20.232.011 32.78.02 28.308 10.95 54.954 30.778 75.031 3.104 3.144 8.17 3.177 11.313.071 3.144-3.104 3.175-8.17.07-11.313-16.854-17.066-26.15-39.725-26.167-63.795v-25.399c19.039 1.014 38.434-1.307 57.338-7.327 7.347 1.519 12.715 8.001 12.715 15.664 0 8.822-7.178 16-16 16-5.413 0-10.42-2.708-13.394-7.243-2.423-3.695-7.381-4.726-11.077-2.303-3.694 2.423-4.726 7.382-2.303 11.076 5.942 9.061 15.951 14.47 26.774 14.47 14.884 0 27.426-10.214 30.987-24h16.013c4.418 0 8-3.582 8-8 0-8.822 7.178-16 16-16s16 7.178 16 16-7.178 16-16 16c-4.418 0-8 3.582-8 8s3.582 8 8 8c17.645 0 32-14.355 32-32s-14.355-32-32-32c-14.884 0-27.426 10.214-30.987 24h-9.026c-1.49-5.812-4.567-11-8.772-15.055 22.712-10.572 42.942-26.476 58.859-46.876 10.23 17.035 26.173 30.279 44.922 37.116v50.063c-.021 30.831-14.754 58.269-40.429 75.278-43.585 28.875-86.63 7.117-84.494 8.007-4.391-1.832-9.348.585-10.716 5.024-.402 1.296-.359 2.508-.358 2.368-.151 19.52-12.641 36.902-31.099 43.267 0 0-42.995 14.824-43.011 14.829-25.213 8.164-41.887 32.249-41.887 58.751v53.228c0 4.418 3.582 8 8 8s8-3.582 8-8v-53.227c0-19.679 12.5-37.21 31.104-43.625-.036-.104 38.641-13.205 44.347-15.321 22.319 39.384 72.508 52.824 111.393 30.088 3.814-2.23 5.099-7.13 2.869-10.944-2.23-3.815-7.131-5.1-10.944-2.868-31.16 18.217-71.179 7.446-89.16-23.721 13.173-9.286 22.339-23.443 25.326-39.433z" />
        <path fill="#7A7A7A" d="m471.813 464h-198v-120c0-4.411 3.589-8 8-8h158c4.411 0 8 3.589 8 8v83.322c0 4.418 3.582 8 8 8s8-3.582 8-8v-83.322c0-13.233-10.767-24-24-24h-78.718c-3.733-7.116-2.393-15.929 3.674-21.649 12.832-12.099 14.283-32.387 3.304-46.188l-11.516-14.478c-3.69-4.64-4.892-10.805-3.214-16.491l7.445-25.229c4.984-16.891-3.546-34.663-19.841-41.339l-9.827-4.026c-6.869-2.814-11.307-9.427-11.307-16.846v-25.754c0-59.552-48.449-108-108-108h-48c-59.551 0-108 48.45-108 108.004v25.749c0 7.419-4.438 14.031-11.307 16.846l-9.827 4.026c-16.295 6.676-24.825 24.448-19.841 41.338l7.445 25.23c1.678 5.687.476 11.852-3.214 16.491l-11.516 14.478c-10.979 13.802-9.528 34.09 3.304 46.188 6.919 6.524 7.693 17.071 1.8 24.537l-.68.861c-7.646 9.685-9.482 22.793-4.792 34.21 1.679 4.087 6.353 6.038 10.439 4.36 4.087-1.68 6.039-6.354 4.36-10.44-2.497-6.079-1.519-13.059 2.552-18.218 12.654-16.034 9.489-35.456-2.703-46.951-6.831-6.44-7.604-17.24-1.759-24.587l11.516-14.478c6.933-8.717 9.19-20.298 6.039-30.979l-7.445-25.231c-2.653-8.99 1.888-18.45 10.562-22.005l9.827-4.026c12.903-5.286 21.24-17.71 21.24-31.65v-25.749c0-50.731 41.271-92.004 92-92.004h48c50.729 0 92 41.271 92 92v25.753c0 13.94 8.337 26.364 21.24 31.65l9.827 4.026c8.674 3.555 13.215 13.015 10.562 22.006l-7.445 25.23c-3.152 10.682-.895 22.263 6.039 30.979l11.516 14.478c5.844 7.347 5.072 18.146-1.759 24.587-9.371 8.835-12.739 21.6-9.742 33.29h-62.237c-13.233 0-24 10.767-24 24v120h-8c-4.418 0-8 3.582-8 8s3.582 8 8 8h222c4.418 0 8-3.582 8-8s-3.582-7.999-8.001-7.999z" />
        <path fill="#7A7A7A" d="m333.296 377.175c-3.217-3.028-8.28-2.874-11.309.342l-16 17c-2.899 3.081-2.899 7.886 0 10.967l16 17c3.029 3.217 8.092 3.37 11.309.342 3.217-3.027 3.371-8.091.343-11.309l-10.84-11.517 10.84-11.517c3.028-3.217 2.874-8.281-.343-11.308z" />
        <path fill="#7A7A7A" d="m387.33 422.825c3.218 3.029 8.28 2.875 11.309-.342l16-17c2.899-3.081 2.899-7.886 0-10.967l-16-17c-3.028-3.216-8.092-3.37-11.309-.342-3.217 3.027-3.371 8.091-.343 11.309l10.84 11.517-10.84 11.517c-3.027 3.217-2.874 8.281.343 11.308z" />
        <path fill="#7A7A7A" d="m357.026 381.168-8 34c-1.012 4.301 1.654 8.607 5.955 9.619 4.272 1.008 8.602-1.628 9.62-5.955l8-34c1.012-4.301-1.654-8.607-5.955-9.619-4.304-1.014-8.608 1.654-9.62 5.955z" />
    </g>
</svg>