<?xml version="1.0" encoding="iso-8859-1"?>
<!-- Generator: Adobe Illustrator 19.0.0, SVG Export Plug-In . SVG Version: 6.00 Build 0)  -->
<svg version="1.1" id="Capa_1" xmlns="http://www.w3.org/2000/svg" xmlns:xlink="http://www.w3.org/1999/xlink" x="0px" y="0px" viewBox="0 0 60.021 60.021" style="enable-background:new 0 0 60.021 60.021;" xml:space="preserve">
	<g fill="#7A7A7A">
		<g fill="#7A7A7A">
			<path fill="#7A7A7A" d="M58.539,31.921c-1.984-7.332-5.439-14.481-6.443-16.482c-0.045-0.107-0.147-0.508-0.223-0.801
			c-0.412-1.61-0.683-2.534-1.463-2.818l-7.675-2.791c-0.967-0.354-2.058-0.222-2.898,0.339c-0.883,0.564-1.876,1.117-2.194,1.226
			H22.826c-0.364-0.106-1.561-0.719-2.439-1.215c-0.857-0.57-1.947-0.703-2.914-0.35L9.797,11.82
			c-0.775,0.282-1.042,1.191-1.447,2.774c-0.077,0.304-0.184,0.718-0.222,0.809c-0.446,0.843-4.425,8.463-6.65,16.583
			c-2.644,9.647-1.737,15.961,2.694,18.765c1.035,0.656,2.421,0.545,3.371-0.27l9.127-7.827c1.109-0.951,2.525-1.475,3.987-1.475
			h18.892c1.461,0,2.877,0.523,3.987,1.475l9.127,7.827c0.544,0.468,1.221,0.707,1.89,0.707c0.527,0,1.052-0.149,1.503-0.452
			C60.311,47.88,61.147,41.55,58.539,31.921z M29.48,12.594c0.207,0.033,0.487,0.034,0.566-0.001h1.749c0,0.01,0,0.021,0,0.03
			c0,0.59-0.259,1.147-0.711,1.529c-0.458,0.386-1.041,0.545-1.649,0.438c-0.774-0.131-1.43-0.763-1.594-1.534
			c-0.033-0.156-0.048-0.311-0.045-0.464L29.48,12.594z M54.942,49.075c-0.274,0.186-0.685,0.137-0.975-0.112l-9.128-7.827
			c-1.472-1.262-3.351-1.957-5.289-1.957H20.657c-1.939,0-3.817,0.695-5.289,1.957l-9.127,7.827
			c-0.287,0.246-0.697,0.288-0.999,0.098c-4.486-2.839-3.474-10.565-1.835-16.547C5.575,24.602,9.46,17.162,9.895,16.34
			c0.134-0.252,0.227-0.603,0.393-1.25c0.099-0.389,0.291-1.141,0.438-1.48l7.431-2.702c0.373-0.138,0.791-0.085,1.181,0.173
			c2.666,1.513,3.21,1.513,3.415,1.513h3.045c-0.002,0.292,0.025,0.585,0.088,0.878c0.334,1.58,1.627,2.822,3.214,3.092
			c0.23,0.04,0.46,0.059,0.689,0.059c0.943,0,1.858-0.328,2.584-0.94c0.903-0.763,1.421-1.877,1.421-3.058
			c0-0.01-0.003-0.02-0.003-0.03h3.935c0.232,0,0.777,0,3.204-1.551c0.33-0.221,0.748-0.269,1.12-0.135l7.433,2.703
			c0.151,0.346,0.35,1.122,0.452,1.522c0.156,0.614,0.244,0.946,0.365,1.187C51.679,19.067,63.514,43.321,54.942,49.075z" />
			<path fill="#7A7A7A" d="M37.795,26.179c-2.757,0-5,2.243-5,5s2.243,5,5,5s5-2.243,5-5S40.551,26.179,37.795,26.179z M37.795,34.179
			c-1.654,0-3-1.346-3-3c0-1.654,1.346-3,3-3s3,1.346,3,3C40.795,32.833,39.449,34.179,37.795,34.179z" />
			<path fill="#7A7A7A" d="M19.795,21.179c0-2.757-2.243-5-5-5s-5,2.243-5,5s2.243,5,5,5S19.795,23.936,19.795,21.179z M14.795,24.179
			c-1.654,0-3-1.346-3-3s1.346-3,3-3s3,1.346,3,3S16.449,24.179,14.795,24.179z" />
			<circle fill="#7A7A7A" cx="44.795" cy="17.179" r="2" />
			<circle fill="#7A7A7A" cx="40.795" cy="21.179" r="2" />
			<circle fill="#7A7A7A" cx="48.795" cy="21.179" r="2" />
			<circle fill="#7A7A7A" cx="44.795" cy="25.179" r="2" />
			<path fill="#7A7A7A" d="M28.295,27.832h-2.286v-2.285c0-0.945-0.769-1.715-1.714-1.715h-2.571c-0.945,0-1.714,0.77-1.714,1.715v2.285h-2.286
			c-0.945,0-1.714,0.77-1.714,1.715v2.57c0,0.945,0.769,1.715,1.714,1.715h2.286v2.285c0,0.945,0.769,1.715,1.714,1.715h2.571
			c0.945,0,1.714-0.77,1.714-1.715v-2.285h2.286c0.945,0,1.714-0.77,1.714-1.715v-2.57C30.009,28.602,29.24,27.832,28.295,27.832z
			 M28.009,31.832h-4v4h-2v-4h-4v-2h4v-4h2v4h4V31.832z" />
		</g>
	</g>
	<g></g>
	<g></g>
	<g></g>
	<g></g>
	<g></g>
	<g></g>
	<g></g>
	<g></g>
	<g></g>
	<g></g>
	<g></g>
	<g></g>
	<g></g>
	<g></g>
	<g></g>
</svg>