<?xml version="1.0" encoding="UTF-8"?>
<svg xmlns="http://www.w3.org/2000/svg" id="Icons" viewBox="0 0 60 60" width="512" height="512">
    <path fill="#7A7A7A" d="M8.081,49.389l16,9.052a12.014,12.014,0,0,0,11.837,0l16-9.052A12,12,0,0,0,58,38.972V21.029a11.99,11.99,0,0,0-6.082-10.417l-16-9.053a12.219,12.219,0,0,0-11.839,0l-16,9.053A11.991,11.991,0,0,0,2,21.029V38.972A11.993,11.993,0,0,0,8.081,49.389ZM4,21.029a9.989,9.989,0,0,1,5.066-8.677l16-9.053a10.024,10.024,0,0,1,9.87,0l16,9.054A9.987,9.987,0,0,1,56,21.029V38.972a9.99,9.99,0,0,1-5.065,8.676l-16,9.053a10.188,10.188,0,0,1-9.867,0l-16-9.053A9.988,9.988,0,0,1,4,38.972Z" />
    <path fill="#7A7A7A" d="M10.543,45.037l16,9.053a7.053,7.053,0,0,0,6.913,0l16-9.053A6.982,6.982,0,0,0,53,38.972V21.029a6.982,6.982,0,0,0-3.544-6.066l-16-9.053a7.052,7.052,0,0,0-6.913,0l-16,9.053A6.985,6.985,0,0,0,7,21.029V38.972A6.985,6.985,0,0,0,10.543,45.037ZM9,21.029A4.98,4.98,0,0,1,11.529,16.7l16-9.054a5.044,5.044,0,0,1,4.943,0l16,9.054A4.981,4.981,0,0,1,51,21.029V38.972A4.982,4.982,0,0,1,48.472,43.3l-16,9.053a5.053,5.053,0,0,1-4.943,0l-16-9.053A4.981,4.981,0,0,1,9,38.972Z" />
    <path fill="#7A7A7A" d="M14,39a1,1,0,0,0,1-1V26.236l6.105,12.211A1,1,0,0,0,22,39a1.067,1.067,0,0,0,.23-.026A1,1,0,0,0,23,38V22a1,1,0,0,0-2,0V33.764L14.9,21.553A1,1,0,0,0,13,22V38A1,1,0,0,0,14,39Z" />
    <path fill="#7A7A7A" d="M27,39a1,1,0,0,0,1-1V31h4a1,1,0,0,0,0-2H28V23h7a1,1,0,0,0,0-2H27a1,1,0,0,0-1,1V38A1,1,0,0,0,27,39Z" />
    <path fill="#7A7A7A" d="M38,23h3V38a1,1,0,0,0,2,0V23h3a1,1,0,0,0,0-2H38a1,1,0,0,0,0,2Z" />
</svg>