<svg id="Icons" height="512" viewBox="0 0 60 60" width="512" xmlns="http://www.w3.org/2000/svg"><path d="m30 59a11.033 11.033 0 0 1 -5.426-1.429l-16-9.052a10.992 10.992 0 0 1 -5.574-9.547v-17.943a10.989 10.989 0 0 1 5.574-9.547l16-9.053a11.02 11.02 0 0 1 10.854 0l16 9.053a10.989 10.989 0 0 1 5.572 9.547v17.943a11 11 0 0 1 -5.573 9.547l-16 9.052a11.033 11.033 0 0 1 -5.427 1.429z" fill="#30e5e5"/><path d="m52 21.029v17.942a5.971 5.971 0 0 1 -3.036 5.2l-16 9.053a6.022 6.022 0 0 1 -5.928 0l-16-9.053a5.971 5.971 0 0 1 -3.036-5.2v-17.942a5.968 5.968 0 0 1 3.036-5.195l16-9.054a6.022 6.022 0 0 1 5.928 0l16 9.054a5.968 5.968 0 0 1 3.036 5.195z" fill="#1584e8"/><g fill="#fff"><path d="m22 21a1 1 0 0 0 -1 1v11.764l-6.1-12.211a1 1 0 0 0 -1.9.447v16a1 1 0 0 0 2 0v-11.764l6.105 12.211a1 1 0 0 0 .895.553 1.067 1.067 0 0 0 .23-.026 1 1 0 0 0 .77-.974v-16a1 1 0 0 0 -1-1z"/><path d="m35 21h-8a1 1 0 0 0 -1 1v16a1 1 0 0 0 2 0v-7h4a1 1 0 0 0 0-2h-4v-6h7a1 1 0 0 0 0-2z"/><path d="m46 21h-8a1 1 0 0 0 0 2h3v15a1 1 0 0 0 2 0v-15h3a1 1 0 0 0 0-2z"/></g></svg>