<svg height="512pt" viewBox="0 -39 512 512" width="512pt" xmlns="http://www.w3.org/2000/svg">
    <path fill="#7A7A7A" d="m464.570312 312.246094c-.898437-1.359375-2.222656-2.429688-3.84375-2.976563l-18.046874-6.074219v-6.707031c6.5625-2.480469 12.710937-5.898437 18.316406-10.234375 3.277344-2.535156 3.878906-7.246094 1.347656-10.523437-2.535156-3.273438-7.242188-3.878907-10.523438-1.34375-22.300781 17.242187-54.027343 15.261719-74.039062-4.75-22.433594-22.433594-14.96875-47.71875-16.441406-60.238281 11.890625-1.929688 20.894531-13.09375 24.007812-29.84375 6.003906-2.09375 13.140625-3.066407 20.917969-2.785157 16.082031.582031 28.558594-2.6875 37.289063-9.753906 3.011718 5.242187 6.214843 8.210937 8.992187 10.78125 3.476563 3.226563 5.992187 5.554687 8.308594 12.722656 2.910156 8.972657 8.996093 11.546875 12.355469 12.28125.152343.03125.300781.054688.449218.082031v27.050782c0 7.773437-1.558594 15.296875-4.628906 22.359375-1.648438 3.800781.089844 8.21875 3.890625 9.867187 3.789063 1.648438 8.214844-.082031 9.867187-3.886718 2.675782-6.152344 4.421876-12.578126 5.265626-19.183594 15.949218 1.019531 23.945312-16.179688 23.945312-32.417969 0-11.394531-3.699219-20.277344-10.058594-25.167969 3.398438-8.480468 2.953125-17.585937-1.394531-26.445312 1.140625-43.402344-28.570313-53.0625-38.398437-55.0625-6.402344-6.007813-26.945313-20.5625-68.273438-10.574219-8.304688 2.011719-15.835938 4.597656-22.539062 7.699219-.332032-.730469-.667969-1.460938-1.039063-2.191406 1.144531-36.164063-13.613281-54.875-26.335937-64.234376-10.476563-7.703124-21.230469-10.375-26.375-11.265624-7.207032-7.046876-32.171876-26.21875-83.597657-16.949219-4.078125.734375-6.789062 4.636719-6.050781 8.710937.734375 4.078125 4.636719 6.785156 8.710938 6.054688 51.613281-9.300782 70.65625 12.996094 71.390624 13.886718 1.28125 1.699219 3.164063 2.652344 5.289063 2.835938 1.824219.15625 44.667969 4.507812 41.902344 62.34375-.195313 4.050781 2.832031 5.527344 4.582031 13.140625.003906.019531.007812.035156.011719.050781 3.140625 13.636719-5.929688 26.558594-17.761719 34.121094-4.234375 1.332031-6.175781-.773438-7.539062-4.980469-4.734376-14.566406-11.074219-20.429687-16.671876-25.601562-5.558593-5.132813-10.359374-9.566407-14.722656-23.988281-.871094-2.875-3.375-4.953126-6.363281-5.28125-2.992187-.324219-5.882813 1.164062-7.355469 3.785156-2.859375 5.089844-11.566406 20.578125-48.628906 19.246094-31.054688-1.125-56.589844 9.855468-66.609375 28.664062-2.796875 5.246094-5.242187 7.109375-6.351563 7.570312-12.582031-7.34375-18.714843-18.054687-15.492187-32.386718.878906-3.9375 2.175781-6.550782 2.175781-6.550782.828125-1.601562 1.042969-3.488281.617188-5.242187-.492188-2.023437-11.269532-49.800781 52.03125-73.574219 3.875-1.457031 5.839844-5.777344 4.382812-9.65625-1.457031-3.878906-5.78125-5.839844-9.65625-4.382812-39.40625 14.800781-54.058594 38.609375-59.40625 55.976562-4.035156 13.09375-3.503906 24.515625-2.71875 30.605469-7.878906-3.082031-16.070312-3.78125-23.511718-1.921875-8.746094-5.640625-26.121094-7.675781-42.898438-4.226562-14.03125 2.882812-34.046875 10.90625-49.691406 32.75-15.695313 21.910156-23.652344 53.054687-23.652344 92.570312 0 34.703125 22.890625 66.855469 23.867188 68.207031 3.5625 4.941407 11.289062 3.804688 13.210937-2.050781.886719-2.710938 1.679687-5.410156 2.410156-8.089844 1.476563 1.792969 3.035157 3.523438 4.6875 5.179688 7.148438 7.148437 15.761719 12.691406 25.144531 16.246094v6.703124l-18.046874 6.078126c-1.621094.542968-2.945313 1.617187-3.84375 2.972656-25.636719 9.269531-43.191407 36.242187-43.191407 67.265625v11.988281c0 4.140625 3.359375 7.5 7.5 7.5h120.375c-.398437 3.8125-.613281 7.679688-.613281 11.601562v16.898438c0 4.140625 3.355469 7.5 7.5 7.5h234c4.140625 0 7.5-3.359375 7.5-7.5v-16.898438c0-3.921874-.21875-7.789062-.617188-11.601562h120.375c4.140626 0 7.5-3.359375 7.5-7.5v-11.988281c.003907-31.023438-17.550781-57.996094-43.1875-67.265625zm-80.402343 9.523437 8.429687-2.839843 11.136719 46.996093-19.566406-20.796875zm25.019531 2.109375h16.625l-8.3125 35.085938zm33.210938-4.949218 8.433593 2.839843v23.359375l-19.566406 20.796875zm-14.71875-18.566407v8.515625h-20.359376v-8.515625c6.757813.96875 13.59375.96875 20.359376 0zm-35.359376-3.871093v6.703124l-18.046874 6.074219c-1.621094.546875-2.949219 1.621094-3.847657 2.984375-10.082031 3.664063-19.171875 10.199219-26.40625 18.972656-7.085937-5.570312-15.003906-9.960937-23.566406-12.914062-.863281-1.753906-2.398437-3.148438-4.335937-3.800781l-27.617188-9.269531v-13.796876c25.171875-8.902343 45.734375-27.933593 56.605469-52.320312.449219.011719.601562.039062 1.835937-.039062 3.378906 26.480468 21.246094 48.265624 45.378906 57.40625zm-175.019531 74.382812-11.53125-8.363281v-35.492188l17.265625-5.796875 20.984375 88.296875-23.621093-17.167969v-15.40625c0-2.402343-1.152344-4.660156-3.097657-6.070312zm-21.417969-56.359375c-1.9375.652344-3.472656 2.046875-4.335937 3.800781-8.5625 2.949219-16.480469 7.339844-23.566406 12.910156-7.234375-8.769531-16.324219-15.308593-26.40625-18.972656-.898438-1.359375-2.226563-2.433594-3.847657-2.980468l-18.046874-6.074219v-6.71875c11.050781-4.183594 20.84375-11.03125 28.53125-19.871094 1.117187 5.1875 1.859374 8.363281 1.917968 8.605469 1.417969 6.0625 9.207032 7.847656 13.128906 3.011718 6.488282-8.007812 11.257813-17.917968 14.585938-30.441406 2.800781 3.75 5.867188 7.316406 9.210938 10.664063 10.300781 10.296875 22.808593 18.171875 36.445312 22.996093v13.804688zm-134.714843 7.253906 8.429687-2.839843 11.136719 46.996093-19.566406-20.796875zm43.511719-21.40625v8.515625h-20.359376v-8.515625c6.757813.96875 13.59375.96875 20.359376 0zm-1.867188 23.515625-8.3125 35.089844-8.3125-35.085938h16.625zm16.585938-4.949218 8.433593 2.839843v23.359375l-19.566406 20.796875zm39.101562-125.023438c-4.5625 1.78125-8.160156.570312-11.132812-2.929688-8.640626-10.171874-9.722657-37.128906.207031-44.988281 3.039062 3.289063 6.695312 6.269531 10.925781 8.921875zm.488281 15.371094c.984375 9.984375 3.492188 19.664062 7.492188 28.894531-1.359375 9.375-3.300781 17.464844-5.882813 24.332031-.40625-2.015625-.824218-4.140625-1.25-6.355468-.011718-.054688-.023437-.113282-.03125-.171876-3.039062-15.707031-5.269531-29.703124-6.632812-41.59375-.1875-1.621093-.402344-3.21875-.628906-4.804687 2.15625.21875 4.371093.160156 6.933593-.300781zm114.511719 104.84375h-35v-18.695313c11.375 2.0625 23.210938 2.136719 35 0zm-1.828125 15-15.671875 65.941406-15.671875-65.941406zm17.292969-7.898438 17.265625 5.796875v35.492188l-11.53125 8.363281c-1.945313 1.410156-3.097657 3.667969-3.097657 6.070312v15.40625l-23.621093 17.167969zm64.535156-127.332031v-39.957031c2.703125-2.011719 6.222656-4.957032 9.664062-8.808594 6.070313 3.515625 8.335938 13.113281 8.335938 21.875 0 12.832031-5.398438 31.804688-18 26.890625zm135.859375 30.25c-.234375 0-.464844-.03125-.699219-.0625v-25.613281c1.457032-1.140625 3.140625-2.597656 4.855469-4.351563 6.621094 7.078125 3.011719 30.027344-4.15625 30.027344zm-91.957031-120.140625c39.441406-9.535156 54.152344 6.433594 55.207031 7.652344 1.292969 1.734375 3.085937 2.640625 5.25 2.804687.074219.003907 7.683594.753907 14.753906 6.199219 9.332031 7.1875 13.664063 19.21875 12.875 35.757812-.066406 1.398438.257813 2.789063.941407 4.011719 4.046874 7.253907 3.726562 13.648438-1.015626 20.121094-2.859374 3.914063-6.511718 6.570313-7.976562 7.550781-1.042969.195313-1.515625.242188-2.308594-2.203125-3.519531-10.882812-8.230468-15.25-12.386718-19.101562-3.847657-3.566407-6.886719-6.382813-9.800782-16.042969-.871094-2.882812-3.375-4.964844-6.367187-5.292969-2.984375-.324219-5.886719 1.164063-7.355469 3.789063-1.863281 3.324218-7.527344 13.433594-32.410156 12.53125-7.230469-.261719-14.117188.378906-20.398438 1.855468-.71875-14.496093-6.113281-25.5-14.863281-31.007812 3.125-6.683594 4.398437-13.703125 3.785156-20.785156 6.328125-3.179688 13.71875-5.816406 22.070313-7.839844zm-209.992188 38.527344c7.191406-13.5 27.929688-21.636719 52.828125-20.730469 23.742188.855469 41.664063-4.378906 53.480469-15.582031 4.488281 9.101562 9.4375 13.675781 13.953125 17.847656 5.0625 4.679688 9.0625 8.375 12.585937 19.210938 2.800782 8.652343 7.859376 12.445312 11.609376 14.105468 2.28125 1.011719 4.542968 1.460938 6.632812 1.582032v40.539062c0 9.726562-1.675781 19.253906-4.976562 28.308594-9.003907 24.644531-29.417969 43.699218-54.605469 50.96875-14.824219 4.277344-31.011719 4.28125-45.839844-.003906-13.308594-3.835938-25.554687-11.074219-35.414063-20.933594-6.964843-6.964844-12.5625-14.992188-16.644531-23.875-4.988281-10.835938-7.519531-22.429688-7.519531-34.460938v-42.601562c4.273438-1.757813 9.3125-5.757813 13.910156-14.375zm-143.253906 112.320312c.296875-1.460937.597656-2.917968.894531-4.382812 3.753907-18.546875 7.296875-36.070313 17.121094-53.441406 2.039063-3.605469.769531-8.179688-2.835937-10.21875-3.605469-2.039063-8.183594-.769532-10.222657 2.835937-13.675781 24.183594-16.300781 48.019531-21.75 72.058594-5.796875-11.386719-12.363281-27.972657-12.363281-44.699219 0-69.355469 25.480469-95.835938 46.859375-105.835938 21.328125-9.976562 42.074219-5.609374 46.289063-2.71875 1.929687 3.007813 5.792968 4.28125 9.199218 2.851563 4.492188-1.878906 11.652344-2.230469 19.425782 1.601563-.652344 5.980468-.28125 13.109374 2.660156 20.382812-6.449219 4.476562-10.886719 12.027344-12.828125 21.828125-9.625-8.191406-18.234375-9.515625-18.757813-9.585937-1.402344-.195313-2.828125.007812-4.117187.589843-.640625.289063-15.875 7.199219-30.570313 18.003907-3.335937 2.453124-4.050781 7.148437-1.597656 10.484374 2.453125 3.339844 7.148438 4.054688 10.484375 1.601563 10.175781-7.484375 20.910156-13.046875 25.519531-15.308594 3.628906 1.261719 11.738282 5.289063 18.828125 17.183594 1.375 8.429687 4.242188 15.667969 8.359375 21.121094 1.316406 5.238281 2.339844 10.894531 3.023438 16.882812 1.332031 11.621094 3.464844 25.140625 6.324218 40.1875-7.136718 13.40625-19.402343 23.414063-34.003906 27.625-10.089844 2.910157-21.105468 2.914063-31.203125-.003906-9.058593-2.609375-17.394531-7.539063-24.113281-14.253906-4.347656-4.351563-7.914062-9.320313-10.625-14.789063zm-24.917969 124.664063c0-21.945313 10.6875-41.246094 26.929688-50.273438v18.863281c0 1.910157.726562 3.75 2.035156 5.140626l28.941406 30.757812h-57.90625zm92.617188 4.488281 28.941406-30.757812c1.308594-1.390626 2.035156-3.230469 2.035156-5.140626v-18.828124c5.304688 2.984374 10.113281 7.136718 14.164063 12.234374-10.453125 11.609376-18.167969 26.222657-22.234375 42.492188zm34.644531 26.601562c0-34.496093 18.1875-63.976562 44.269531-75.851562v31.585938c0 2.402343 1.152344 4.660156 3.097657 6.070312l11.53125 8.363281v15.402344c0 2.402344 1.148437 4.65625 3.089843 6.066406l24.4375 17.761719h-86.425781zm219 9.398438h-86.425781l24.4375-17.761719c1.941406-1.410156 3.089843-3.664062 3.089843-6.066406v-15.402344l11.53125-8.363281c1.945313-1.410156 3.097657-3.667969 3.097657-6.070312v-31.585938c26.09375 11.878906 44.269531 41.371094 44.269531 75.851562zm-10.496094-78.492188c4.054688-5.097656 8.859375-9.25 14.164063-12.230468v18.824218c0 1.910157.730469 3.75 2.039062 5.140626l28.9375 30.757812h-22.90625c-4.066406-16.269531-11.78125-30.878906-22.234375-42.492188zm137.757813 42.492188h-57.90625l28.941406-30.757812c1.308594-1.390626 2.035156-3.230469 2.035156-5.140626v-18.867187c16.242188 9.03125 26.929688 28.332031 26.929688 50.273437zm0 0" />
    <path fill="#7A7A7A" d="m222.195312 216.074219c-1.835937-3.6875-6.304687-5.210938-10.007812-3.402344-3.71875 1.820313-5.265625 6.308594-3.449219 10.03125.523438 1.066406 13.140625 26.089844 48.160157 26.089844 35.378906 0 46.132812-25.472657 46.574218-26.558594 1.558594-3.839844-.277344-8.246094-4.113281-9.808594-3.835937-1.558593-8.199219.253907-9.757813 4.09375-.300781.703125-7.734374 17.273438-32.703124 17.273438-25.261719 0-34.269532-16.875-34.703126-17.71875zm0 0" />
    <path fill="#7A7A7A" d="m275.5 172.503906c.835938 0 1.683594-.140625 2.515625-.4375 16.480469-5.867187 30.617187-2.699218 30.722656-2.675781 4.023438.972656 8.078125-1.5 9.050781-5.527344.972657-4.027343-1.5-8.078125-5.527343-9.050781-.742188-.179688-18.414063-4.308594-39.277344 3.121094-3.902344 1.390625-5.9375 5.683594-4.550781 9.582031 1.09375 3.074219 3.984375 4.988281 7.066406 4.988281zm0 0" />
    <path fill="#7A7A7A" d="m203.261719 169.390625c.136719-.03125 14.289062-3.179687 30.722656 2.675781.832031.296875 1.679687.4375 2.515625.4375 3.082031 0 5.972656-1.917968 7.066406-4.984375 1.386719-3.902343-.648437-8.191406-4.550781-9.582031-20.867187-7.433594-38.535156-3.304688-39.277344-3.125-4.027343.972656-6.503906 5.027344-5.527343 9.050781.972656 4.027344 5.019531 6.5 9.050781 5.527344zm0 0" />
</svg>