<svg width="46" height="26" viewBox="0 0 46 26" fill="none" xmlns="http://www.w3.org/2000/svg">
<path d="M13.2764 24.6167H18.2364V8.6167H7.38839V7.3367C7.38839 5.9607 7.80439 4.9047 9.50039 4.9047H10.8764V0.680698C10.1084 0.552698 9.34039 0.488699 8.66839 0.488699C4.92439 0.488699 2.46039 2.5687 2.46039 7.3367V8.6167H0.252391V12.7127H2.46039V24.6167H7.38839V12.7127H13.2764V24.6167ZM15.7724 6.1207C17.3084 6.1207 18.5564 4.8727 18.5564 3.3047C18.5564 1.7367 17.3084 0.520699 15.7724 0.520699C14.2044 0.520699 12.9564 1.7367 12.9564 3.3047C12.9564 4.8727 14.2044 6.1207 15.7724 6.1207ZM26.9031 24.6167V0.488699H21.9751V24.6167H26.9031ZM35.4321 25.0327C37.8321 25.0327 39.9441 23.9767 40.4561 22.5047L40.7761 24.6167H45.1281V15.2727C45.1281 10.6967 42.5041 8.1047 37.8641 8.1047C33.2881 8.1047 30.3121 10.4727 30.3121 14.0887H34.4081C34.4081 12.6487 35.5281 11.8487 37.6081 11.8487C39.3681 11.8487 40.3281 12.6807 40.3281 14.2487V14.5047L35.8481 14.8567C32.0081 15.1447 29.9281 16.9687 29.9281 19.9127C29.9281 23.0487 32.0401 25.0327 35.4321 25.0327ZM37.1601 21.3847C35.6561 21.3847 34.9521 20.8407 34.9521 19.6887C34.9521 18.6647 35.7201 18.1847 37.8641 17.9927L40.3601 17.7687V18.6327C40.3601 20.4567 39.0481 21.3847 37.1601 21.3847Z" fill="black"/>
</svg>
