<svg width="130" height="24" viewBox="0 0 130 24" fill="none" xmlns="http://www.w3.org/2000/svg">
<path d="M3.54839 23.6167L5.59639 17.8567H15.3244L17.4044 23.6167H20.7004L12.2204 0.480698H8.73239L0.284391 23.6167H3.54839ZM10.0764 5.4727C10.2364 4.9927 10.3964 4.4487 10.4604 4.1287C10.5244 4.4807 10.6844 5.0247 10.8444 5.4727L14.3964 15.1367H6.55639L10.0764 5.4727ZM28.9421 24.0007C31.4381 24.0007 33.5501 22.9127 34.5741 20.7687L34.8301 23.6167H37.5181V0.0646973H34.5421V10.4967C33.4861 8.5767 31.4701 7.5207 29.0701 7.5207C24.4301 7.5207 21.6461 11.0407 21.6461 15.8407C21.6461 20.6087 24.3981 24.0007 28.9421 24.0007ZM29.5501 21.2807C26.4781 21.2807 24.6861 18.9767 24.6861 15.7447C24.6861 12.5447 26.4781 10.2407 29.5501 10.2407C32.6221 10.2407 34.5101 12.5447 34.5101 15.7447C34.5101 19.0087 32.6221 21.2807 29.5501 21.2807ZM40.8336 15.7767C40.8336 20.6087 44.2896 24.0007 48.9936 24.0007C53.6656 24.0007 57.1216 20.6087 57.1216 15.7767C57.1216 10.9447 53.6656 7.5527 48.9936 7.5527C44.2896 7.5527 40.8336 10.9447 40.8336 15.7767ZM43.8736 15.7767C43.8736 12.5127 45.9536 10.2407 48.9936 10.2407C52.0016 10.2407 54.1136 12.5127 54.1136 15.7767C54.1136 19.0407 52.0016 21.3127 48.9936 21.3127C45.9536 21.3127 43.8736 19.0407 43.8736 15.7767ZM64.0354 23.6167V13.7287C64.0354 10.4967 63.9714 8.1287 63.8114 7.0087L70.5314 23.6167H73.4754L80.2274 6.9447C80.0674 8.5767 80.0354 10.1447 80.0354 14.4647V23.6167H83.1074V0.480698H79.9714L72.0034 19.9367L64.0354 0.480698H60.9634V23.6167H64.0354ZM98.7986 7.9687V16.2247C98.7986 19.5847 97.2946 21.3447 94.5426 21.3447C92.2386 21.3447 90.7986 20.0647 90.7986 16.7047V7.9687H87.7906V17.6967C87.7906 21.5367 89.8386 24.0007 93.4866 24.0007C95.7906 24.0007 97.8706 22.8807 98.7666 21.2487L99.0866 23.6167H101.775V7.9687H98.7986ZM109.147 23.6167V14.3367C109.147 11.8407 110.651 10.2727 112.923 10.2727C115.035 10.2727 116.379 11.6167 116.379 14.0807V23.6167H119.355V14.3367C119.355 11.8407 120.859 10.2407 123.131 10.2407C125.243 10.2407 126.619 11.6487 126.619 14.1127V23.6167H129.563V13.3767C129.563 9.7607 127.387 7.5207 123.803 7.5207C121.371 7.5207 119.483 8.7367 118.747 10.6887C117.947 8.7367 116.219 7.5207 113.787 7.5207C111.579 7.5207 109.915 8.5447 109.115 10.0167L108.827 7.9687H106.139V23.6167H109.147Z" fill="black"/>
</svg>
