<svg width="112" height="39" viewBox="0 0 112 39" fill="none" xmlns="http://www.w3.org/2000/svg">
<path d="M13.7324 17.6807C16.5484 17.6807 18.9164 18.9607 19.6524 21.7127H23.9724C23.3004 16.9447 19.1724 13.8407 13.8284 13.8407C6.78839 13.8407 2.14839 18.8967 2.14839 26.0007C2.14839 33.2007 6.72439 37.9687 13.2844 37.9687C16.4524 37.9687 19.1084 36.7207 20.3884 34.9287L20.6444 37.6167H24.1004V24.4647H13.2204V28.0807H20.2924V28.1767C20.2924 31.9207 17.8284 34.1607 13.7644 34.1607C9.44439 34.1607 6.43639 31.3127 6.43639 26.0967C6.43639 21.0407 9.09239 17.6807 13.7324 17.6807ZM32.6516 38.0327C35.1156 38.0327 37.2596 36.9127 37.9316 35.2807L38.2196 37.6167H41.6436V28.0167C41.6436 23.6327 39.0196 21.3287 34.7636 21.3287C30.4756 21.3287 27.6596 23.5687 27.6596 26.9927H30.9876C30.9876 25.3287 32.2676 24.3687 34.5716 24.3687C36.5556 24.3687 37.8356 25.2327 37.8356 27.3767V27.7287L33.0996 28.0807C29.3556 28.3687 27.2436 30.1927 27.2436 33.1047C27.2436 36.0807 29.2916 38.0327 32.6516 38.0327ZM33.9316 35.0887C32.1716 35.0887 31.2116 34.3847 31.2116 32.9447C31.2116 31.6647 32.1396 30.8647 34.5716 30.6407L37.8676 30.3847V31.2167C37.8676 33.6487 36.3316 35.0887 33.9316 35.0887ZM55.3989 21.7447C54.7589 21.5847 54.2149 21.5207 53.6709 21.5207C51.5589 21.5207 50.0549 22.5767 49.3829 24.1447L49.1589 21.8407H45.4789V37.6167H49.3829V29.9367C49.3829 26.8647 51.1429 25.3607 53.9589 25.3607H55.3989V21.7447ZM61.9454 37.6167V28.6567C61.9454 26.0967 63.4494 24.8807 65.3054 24.8807C67.1614 24.8807 68.3454 26.0647 68.3454 28.2727V37.6167H72.2494V28.6567C72.2494 26.0647 73.6894 24.8487 75.5774 24.8487C77.4334 24.8487 78.6494 26.0327 78.6494 28.3047V37.6167H82.5214V27.2807C82.5214 23.6327 80.4094 21.3287 76.5694 21.3287C74.1694 21.3287 72.3134 22.5127 71.5134 24.3367C70.6814 22.5127 69.0174 21.3287 66.6174 21.3287C64.3454 21.3287 62.7454 22.3527 61.9454 23.6647L61.6254 21.8087H58.0414V37.6167H61.9454ZM88.3059 18.6407C89.5859 18.6407 90.6419 17.5847 90.6419 16.2727C90.6419 14.9607 89.5859 13.9367 88.3059 13.9367C86.9619 13.9367 85.9059 14.9607 85.9059 16.2727C85.9059 17.5847 86.9619 18.6407 88.3059 18.6407ZM86.3539 37.6167H90.2579V21.8087H86.3539V37.6167ZM98.1954 37.6167V29.1047C98.1954 26.5447 99.6674 24.8807 102.067 24.8807C104.083 24.8807 105.395 26.1607 105.395 28.8167V37.6167H109.299V27.8887C109.299 23.7927 107.251 21.3287 103.283 21.3287C101.139 21.3287 99.2194 22.2567 98.2274 23.8567L97.9074 21.8087H94.2914V37.6167H98.1954Z" fill="black"/>
<path d="M101.347 0.938965L107.702 11.9472H94.991L101.347 0.938965Z" fill="#017DC2"/>
</svg>
