<svg width="174" height="24" viewBox="0 0 174 24" fill="none" xmlns="http://www.w3.org/2000/svg">
<path d="M9.26039 15.0727C13.5484 15.0727 16.2364 11.9367 16.2364 7.9367C16.2364 3.7127 13.5804 0.896698 9.26039 0.896698H0.780391V23.6167H2.31639V15.0727H9.26039ZM9.19639 2.3047C12.5244 2.3047 14.6684 4.4487 14.6684 7.8727C14.6684 11.2647 12.5564 13.6647 9.00439 13.6647H2.31639V2.3047H9.19639ZM19.9016 15.9047C19.9016 20.9927 22.9416 24.0007 28.0616 24.0007C33.1176 24.0007 36.1256 20.9607 36.1256 15.9047V0.896698H34.5896V15.8727C34.5896 20.1287 32.2536 22.4967 28.0616 22.4967C23.7736 22.4967 21.4376 20.1607 21.4376 15.8727V0.896698H19.9016V15.9047ZM40.3099 6.6247C40.3099 9.5687 42.1339 11.5207 45.5579 12.3847L49.4939 13.3767C52.1819 14.0487 53.4939 15.5527 53.4939 17.7927C53.4939 20.7047 51.1579 22.5607 47.5419 22.5607C44.1499 22.5607 41.8139 20.8327 41.6859 18.2407H40.0539C40.4059 21.7927 43.2859 24.0007 47.5419 24.0007C52.0859 24.0007 55.0299 21.5687 55.0299 17.7607C55.0299 14.8487 53.2059 12.8007 49.7819 11.9367L45.7499 10.9127C43.1579 10.2407 41.8459 8.8007 41.8459 6.6247C41.8459 3.7767 44.1819 1.9207 47.7019 1.9207C50.8059 1.9207 52.7259 3.5207 53.0459 6.3367H54.6459C54.1979 2.6887 51.6059 0.512697 47.7019 0.512697C43.2219 0.512697 40.3099 2.9127 40.3099 6.6247ZM60.8789 23.6167V12.7687H74.0949V23.6167H75.6309V0.896698H74.0949V11.3607H60.8789V0.896698H59.3429V23.6167H60.8789ZM79.9974 6.6247C79.9974 9.5687 81.8214 11.5207 85.2454 12.3847L89.1814 13.3767C91.8694 14.0487 93.1814 15.5527 93.1814 17.7927C93.1814 20.7047 90.8454 22.5607 87.2294 22.5607C83.8374 22.5607 81.5014 20.8327 81.3734 18.2407H79.7414C80.0934 21.7927 82.9734 24.0007 87.2294 24.0007C91.7734 24.0007 94.7174 21.5687 94.7174 17.7607C94.7174 14.8487 92.8934 12.8007 89.4694 11.9367L85.4374 10.9127C82.8454 10.2407 81.5334 8.8007 81.5334 6.6247C81.5334 3.7767 83.8694 1.9207 87.3894 1.9207C90.4934 1.9207 92.4134 3.5207 92.7334 6.3367H94.3334C93.8854 2.6887 91.2934 0.512697 87.3894 0.512697C82.9094 0.512697 79.9974 2.9127 79.9974 6.6247ZM100.566 0.896698H99.0304V23.6167H100.566V0.896698ZM107.848 0.896698H106.312V23.6167H118.664V22.2087H107.848V0.896698ZM126.456 23.6167H128.088L136.792 0.896698H135.224L128.696 17.8567C128.408 18.5927 127.8 20.2567 127.32 21.7607C126.84 20.2887 126.392 19.1047 125.912 17.8887L119.352 0.896698H117.72L126.456 23.6167ZM153.375 23.6167V22.2087H141.535V12.9287H152.287V11.5207H141.535V2.3047H153.343V0.896698H139.999V23.6167H153.375ZM159.723 23.6167V13.7927H167.115L172.075 23.6167H173.803L168.715 13.6007C171.755 12.9607 173.611 10.5927 173.611 7.2647C173.611 3.3927 170.891 0.896698 166.571 0.896698H158.187V23.6167H159.723ZM159.723 2.3047H166.571C169.899 2.3047 172.043 4.0967 172.043 7.3287C172.043 10.4647 170.059 12.3847 166.635 12.3847H159.723V2.3047Z" fill="black"/>
</svg>
