<svg width="71" height="24" viewBox="0 0 71 24" fill="none" xmlns="http://www.w3.org/2000/svg">
<path d="M0.212391 23.6167H3.73239V14.0167H4.94839C6.54839 14.0167 7.15639 14.6887 7.15639 16.7687V20.8647C7.15639 22.6887 7.28439 23.0407 7.47639 23.6167H11.0604C10.7084 22.7847 10.6764 21.9847 10.6764 20.8967V16.9607C10.6764 14.4327 10.1004 12.7687 8.34039 12.2247V12.1607C9.90839 11.5207 10.6444 10.0487 10.6444 7.7447V6.3687C10.6444 2.9127 9.07639 1.2167 5.42839 1.2167H0.212391V23.6167ZM3.73239 10.8167V4.4167H5.33239C6.58039 4.4167 7.12439 5.1207 7.12439 6.7207V8.4487C7.12439 10.2407 6.32439 10.8167 5.01239 10.8167H3.73239ZM13.1186 23.6167H22.7186V20.4167H16.6386V13.5367H21.4706V10.3367H16.6386V4.4167H22.7186V1.2167H13.1186V23.6167ZM24.7436 23.6167H34.0556V20.4167H28.2636V1.2167H24.7436V23.6167ZM34.9406 23.6167H38.2046L38.8446 19.2327H42.8446V19.1687L43.4846 23.6167H47.0046L43.3566 1.2167H38.5886L34.9406 23.6167ZM39.2606 16.1927L40.7966 5.1207H40.8606L42.4286 16.1927H39.2606ZM53.1946 23.9367C56.6506 23.9367 58.5066 21.8887 58.5066 18.2407C58.5066 15.4567 57.5786 13.6647 54.6346 11.0727C52.3306 9.0567 51.5946 7.8727 51.5946 6.2407C51.5946 4.7047 52.2346 4.0967 53.3546 4.0967C54.4746 4.0967 55.1146 4.7047 55.1146 6.3047V7.4567H58.4426V6.5287C58.4426 2.9447 56.7466 0.896698 53.3226 0.896698C49.8986 0.896698 48.0746 2.9447 48.0746 6.4647C48.0746 9.0247 49.0346 10.8487 51.9786 13.4407C54.2826 15.4567 54.9866 16.6407 54.9866 18.4967C54.9866 20.1607 54.2826 20.7367 53.1626 20.7367C52.0426 20.7367 51.3386 20.1607 51.3386 18.5607V17.0247H48.0106V18.3047C48.0106 21.8887 49.7386 23.9367 53.1946 23.9367ZM60.5249 23.6167H70.1249V20.4167H64.0449V13.5367H68.8769V10.3367H64.0449V4.4167H70.1249V1.2167H60.5249V23.6167Z" fill="black"/>
</svg>
