<svg width="586" height="236" viewBox="0 0 586 236" fill="none" xmlns="http://www.w3.org/2000/svg">
<path fill-rule="evenodd" clip-rule="evenodd" d="M126.764 2H51.2361C33.7679 2 27.4335 3.8188 21.0474 7.23413C14.6613 10.6495 9.64946 15.6613 6.23413 22.0474C2.8188 28.4335 1 34.7679 1 52.2361V127.764C1 145.232 2.8188 151.566 6.23413 157.953C9.64946 164.339 14.6613 169.351 21.0474 172.766C27.4335 176.181 33.7679 178 51.2361 178H126.764C144.232 178 150.566 176.181 156.953 172.766C163.339 169.351 168.351 164.339 171.766 157.953C175.181 151.566 177 145.232 177 127.764V52.2361C177 34.7679 175.181 28.4335 171.766 22.0474C168.351 15.6613 163.339 10.6495 156.953 7.23413C150.566 3.8188 144.232 2 126.764 2Z" fill="#E9EAFC"/>
<path opacity="0.78" d="M113.715 60.3143C116.562 60.3143 118.979 60.7447 120.965 61.6055C123.018 62.4001 124.673 63.5589 125.931 65.0818C127.189 66.5385 128.116 68.227 128.712 70.1473C129.308 72.0675 129.606 74.087 129.606 76.2059C129.606 78.7221 129.374 81.3376 128.911 84.0524C128.514 86.7672 127.918 89.6807 127.123 92.7928L125.931 97.5603L114.013 144.738L106.166 142.553L112.92 115.736L114.311 110.174L118.482 93.6867C119.343 90.1773 119.972 87.0652 120.369 84.3504C120.767 81.5693 120.965 78.9538 120.965 76.5039C120.965 73.5904 120.336 71.3722 119.078 69.8493C117.82 68.2601 116.032 67.4655 113.715 67.4655C111 67.4655 108.815 68.3926 107.159 70.2466C105.504 72.1006 104.676 74.8816 104.676 78.5897C104.676 81.5693 105.372 84.0193 106.762 85.9395C108.153 87.8598 110.073 89.2834 112.523 90.2104C115.039 91.0712 117.919 91.5016 121.164 91.5016H122.852C127.487 91.5016 131.295 90.6739 134.274 89.0185C137.254 87.2969 139.638 85.6085 141.426 83.9531H149.471V116.531H100.902L102.69 109.38H141.426V101.335C141.426 99.8116 141.459 98.2224 141.525 96.567C141.591 94.9117 141.69 93.3887 141.823 91.9982C139.903 93.6536 137.32 95.1434 134.076 96.4677C130.831 97.792 127.024 98.4542 122.654 98.4542H121.164C117.588 98.4542 114.311 98.0569 111.331 97.2623C108.351 96.4677 105.736 95.2427 103.484 93.5874C101.233 91.932 99.4784 89.8462 98.2203 87.33C97.0284 84.8139 96.4325 81.8342 96.4325 78.391C96.4325 75.0141 97.0946 71.9682 98.4189 69.2534C99.8094 66.5385 101.796 64.3865 104.378 62.7974C106.961 61.142 110.073 60.3143 113.715 60.3143ZM48.1617 117.723C44.6523 117.723 41.4409 116.862 38.5274 115.14C35.614 113.353 33.2965 110.605 31.5749 106.897C29.9195 103.189 29.0918 98.3549 29.0918 92.3955C29.0918 85.3105 30.4823 79.3843 33.2633 74.6168C36.1106 69.8493 39.8517 66.2737 44.4868 63.8899C49.1218 61.5062 54.1542 60.3143 59.5838 60.3143C64.6162 60.3143 68.9201 61.0758 72.4958 62.5987C76.1376 64.0555 79.0841 66.1081 81.3354 68.7567C83.653 71.3391 85.3415 74.3519 86.4009 77.7951C87.5266 81.1721 88.0894 84.8139 88.0894 88.7206C88.0894 92.9583 87.6259 96.7326 86.6989 100.043C85.7719 103.354 84.6462 106.466 83.3219 109.38H109.742L109.543 116.531H74.5815L74.1842 110.274C75.7072 107.956 76.9322 105.109 77.8592 101.732C78.8524 98.2886 79.349 94.3157 79.349 89.8131C79.349 85.1119 78.5213 81.1058 76.8659 77.7951C75.2106 74.4843 72.8599 71.9682 69.814 70.2466C66.8344 68.525 63.2919 67.6642 59.1865 67.6642C54.5515 67.6642 50.5786 68.7898 47.2678 71.0412C43.9571 73.2262 41.4078 76.239 39.62 80.0795C37.8322 83.8538 36.9383 88.1577 36.9383 92.9914C36.9383 97.4278 37.4349 100.97 38.4281 103.619C39.4876 106.201 40.8781 108.088 42.5997 109.28C44.3875 110.406 46.3739 110.969 48.559 110.969C50.2806 110.969 51.7704 110.605 53.0285 109.876C54.3528 109.082 55.3792 107.956 56.1075 106.499C56.8359 105.043 57.2001 103.255 57.2001 101.136C57.2001 97.8251 56.3393 95.309 54.6177 93.5874C52.8961 91.7996 50.6779 90.9057 47.9631 90.9057C45.3145 90.9057 42.8314 91.6009 40.5139 92.9914C38.1964 94.3819 36.0775 96.1367 34.1572 98.2555L32.6674 91.8989C34.6539 89.5814 37.1038 87.6942 40.0173 86.2375C42.997 84.7146 46.1091 83.9531 49.3536 83.9531C54.1211 83.9531 57.9615 85.3767 60.875 88.224C63.8547 91.005 65.3445 94.9779 65.3445 100.143C65.3445 103.784 64.6493 106.93 63.2588 109.578C61.8682 112.227 59.8818 114.246 57.2994 115.637C54.7832 117.027 51.7373 117.723 48.1617 117.723ZM89.0826 49.1902C87.1624 49.1902 85.5732 48.5943 84.3151 47.4024C83.057 46.1443 82.428 44.522 82.428 42.5356C82.428 40.6154 83.057 39.0262 84.3151 37.7681C85.5732 36.51 87.1624 35.881 89.0826 35.881C91.0028 35.881 92.592 36.51 93.8501 37.7681C95.1082 39.0262 95.7372 40.6154 95.7372 42.5356C95.7372 44.522 95.1082 46.1443 93.8501 47.4024C92.592 48.5943 91.0028 49.1902 89.0826 49.1902Z" fill="#4150EA"/>
<path fill-rule="evenodd" clip-rule="evenodd" d="M331.764 30H256.236C238.768 30 232.434 31.8188 226.047 35.2341C219.661 38.6495 214.649 43.6613 211.234 50.0474C207.819 56.4335 206 62.7679 206 80.2361V155.764C206 173.232 207.819 179.566 211.234 185.953C214.649 192.339 219.661 197.351 226.047 200.766C232.434 204.181 238.768 206 256.236 206H331.764C349.232 206 355.566 204.181 361.953 200.766C368.339 197.351 373.351 192.339 376.766 185.953C380.181 179.566 382 173.232 382 155.764V80.2361C382 62.7679 380.181 56.4335 376.766 50.0474C373.351 43.6613 368.339 38.6495 361.953 35.2341C355.566 31.8188 349.232 30 331.764 30Z" fill="#FCF4E9"/>
<path d="M258.981 99.1659C258.981 113.449 267.601 122.777 283.963 126.712L301.64 131.085C312.889 133.708 318.148 139.83 318.148 149.158C318.148 161.109 308.36 168.542 293.02 168.542C278.704 168.542 269.062 161.401 268.477 150.47H257.667C258.981 167.522 272.714 178.162 293.02 178.162C314.642 178.162 328.667 166.648 328.667 148.575C328.667 134.437 320.193 125.109 303.831 121.174L285.862 116.802C274.905 114.032 269.5 108.202 269.5 99.0201C269.5 87.2145 279.142 79.6355 293.897 79.6355C307.045 79.6355 315.08 86.34 316.249 98.1456H326.913C325.306 80.6558 312.889 70.1618 294.043 70.1618C273.006 70.1618 258.981 81.676 258.981 99.1659Z" fill="#EF7449"/>
<path fill-rule="evenodd" clip-rule="evenodd" d="M535.763 57.9998H460.236C442.767 57.9998 436.433 59.8186 430.047 63.2339C423.661 66.6493 418.649 71.6611 415.234 78.0472C411.818 84.4334 410 90.7677 410 108.236V183.764C410 201.232 411.818 207.566 415.234 213.952C418.649 220.339 423.661 225.35 430.047 228.766C436.433 232.181 442.767 234 460.236 234H535.763C553.232 234 559.566 232.181 565.952 228.766C572.338 225.35 577.35 220.339 580.765 213.952C584.181 207.566 586 201.232 586 183.764V108.236C586 90.7677 584.181 84.4334 580.765 78.0472C577.35 71.6611 572.338 66.6493 565.952 63.2339C559.566 59.8186 553.232 57.9998 535.763 57.9998Z" fill="#D7F6EE"/>
<path opacity="0.8" d="M450.236 150.617V158.175H544.774V150.617H450.236ZM493.198 101.166V192.619H501.705V101.166H493.198ZM490.291 153.856C481.246 165.734 463.48 177.179 447.544 182.469C449.267 184.089 451.851 187.112 453.036 189.056C469.187 182.901 487.061 170.592 497.075 156.772L490.291 153.856ZM504.181 153.533L497.721 156.448C508.057 169.729 526.362 182.361 541.975 188.624C543.267 186.572 545.743 183.441 547.574 181.822C531.853 176.531 513.549 165.086 504.181 153.533ZM468.972 123.192H526.254V134.529H468.972V123.192ZM468.972 105.484H526.254V116.606H468.972V105.484ZM460.681 98.5742V141.44H534.868V98.5742H460.681Z" fill="#4EB59A"/>
</svg>
