<svg width="423" height="455" viewBox="-40 -40 503 535" fill="none" xmlns="http://www.w3.org/2000/svg">
<path fill-rule="evenodd" clip-rule="evenodd" d="M150.059 0H59.9408C39.0981 0 31.54 2.17016 23.9202 6.24527C16.3004 10.3204 10.3204 16.3004 6.24527 23.9202C2.17016 31.54 0 39.0981 0 59.9408V150.059C0 170.902 2.17016 178.46 6.24527 186.08C10.3204 193.7 16.3004 199.68 23.9202 203.755C31.54 207.83 39.0981 210 59.9408 210H150.059C170.902 210 178.46 207.83 186.08 203.755C193.7 199.68 199.68 193.7 203.755 186.08C207.83 178.46 210 170.902 210 150.059V59.9408C210 39.0981 207.83 31.54 203.755 23.9202C199.68 16.3004 193.7 10.3204 186.08 6.24527C178.46 2.17016 170.902 0 150.059 0Z" fill="#E9EAFC"/>
<path opacity="0.78" d="M133.959 69.3056C137.343 69.3056 140.215 69.8171 142.576 70.8401C145.015 71.7845 146.983 73.1617 148.478 74.9717C149.973 76.703 151.075 78.7097 151.783 80.9919C152.491 83.274 152.846 85.6742 152.846 88.1925C152.846 91.1829 152.57 94.2914 152.019 97.5179C151.547 100.744 150.839 104.207 149.894 107.906L148.478 113.572L134.313 169.642L124.987 167.045L133.014 135.174L134.667 128.563L139.625 108.968C140.648 104.797 141.395 101.099 141.868 97.872C142.34 94.5668 142.576 91.4583 142.576 88.5466C142.576 85.084 141.828 82.4477 140.333 80.6377C138.838 78.749 136.713 77.8047 133.959 77.8047C130.732 77.8047 128.135 78.9064 126.168 81.1099C124.2 83.3134 123.217 86.6186 123.217 91.0255C123.217 94.5668 124.043 97.4785 125.696 99.7607C127.348 102.043 129.63 103.735 132.542 104.837C135.533 105.86 138.956 106.371 142.812 106.371H144.819C150.327 106.371 154.852 105.387 158.394 103.42C161.935 101.374 164.768 99.3672 166.893 97.3998H176.454V136.118H118.731L120.856 127.619H166.893V118.057C166.893 116.247 166.932 114.359 167.011 112.391C167.089 110.424 167.207 108.614 167.365 106.961C165.083 108.929 162.014 110.699 158.157 112.273C154.301 113.847 149.776 114.634 144.583 114.634H142.812C138.562 114.634 134.667 114.162 131.126 113.218C127.584 112.273 124.476 110.817 121.8 108.85C119.125 106.883 117.039 104.404 115.544 101.413C114.127 98.4229 113.419 94.8816 113.419 90.7894C113.419 86.776 114.206 83.156 115.78 79.9295C117.433 76.703 119.794 74.1454 122.863 72.2567C125.932 70.2893 129.63 69.3056 133.959 69.3056ZM56.0503 137.534C51.8794 137.534 48.0627 136.511 44.6001 134.465C41.1375 132.341 38.3831 129.075 36.3371 124.668C34.3697 120.261 33.386 114.516 33.386 107.433C33.386 99.0131 35.0386 91.9699 38.3438 86.3038C41.7277 80.6377 46.174 76.3882 51.6827 73.5551C57.1913 70.7221 63.1722 69.3056 69.6252 69.3056C75.606 69.3056 80.7213 70.2106 84.9708 72.0206C89.299 73.7519 92.801 76.1914 95.4766 79.3392C98.231 82.4084 100.238 85.989 101.497 90.0812C102.835 94.0946 103.504 98.4229 103.504 103.066C103.504 108.102 102.953 112.588 101.851 116.523C100.749 120.458 99.4114 124.156 97.8375 127.619H129.237L129.001 136.118H87.4497L86.9775 128.681C88.7875 125.927 90.2434 122.543 91.3451 118.53C92.5256 114.437 93.1158 109.716 93.1158 104.364C93.1158 98.777 92.1321 94.0159 90.1647 90.0812C88.1973 86.1464 85.4036 83.156 81.7836 81.1099C78.2423 79.0638 74.0321 78.0408 69.153 78.0408C63.6444 78.0408 58.9226 79.3786 54.9879 82.0542C51.0531 84.6512 48.0233 88.2318 45.8986 92.7962C43.7738 97.2818 42.7114 102.397 42.7114 108.142C42.7114 113.414 43.3016 117.625 44.482 120.772C45.7412 123.841 47.3938 126.084 49.4398 127.501C51.5646 128.839 53.9255 129.508 56.5224 129.508C58.5685 129.508 60.3391 129.075 61.8344 128.209C63.4083 127.265 64.628 125.927 65.4937 124.196C66.3593 122.464 66.7922 120.34 66.7922 117.821C66.7922 113.887 65.7691 110.896 63.7231 108.85C61.677 106.725 59.0407 105.663 55.8142 105.663C52.6664 105.663 49.7153 106.489 46.9609 108.142C44.2066 109.794 41.6883 111.88 39.4062 114.398L37.6355 106.843C39.9964 104.089 42.9081 101.846 46.3707 100.115C49.912 98.3048 53.6107 97.3998 57.4668 97.3998C63.1328 97.3998 67.6972 99.0918 71.1598 102.476C74.7011 105.781 76.4717 110.503 76.4717 116.641C76.4717 120.969 75.6454 124.707 73.9928 127.855C72.3402 131.003 69.9793 133.403 66.9102 135.056C63.9198 136.708 60.2998 137.534 56.0503 137.534ZM104.684 56.0848C102.402 56.0848 100.513 55.3765 99.0179 53.96C97.5227 52.4648 96.7751 50.5367 96.7751 48.1759C96.7751 45.8937 97.5227 44.005 99.0179 42.5098C100.513 41.0146 102.402 40.267 104.684 40.267C106.966 40.267 108.855 41.0146 110.35 42.5098C111.845 44.005 112.593 45.8937 112.593 48.1759C112.593 50.5367 111.845 52.4648 110.35 53.96C108.855 55.3765 106.966 56.0848 104.684 56.0848Z" fill="#4150EA"/>
<path fill-rule="evenodd" clip-rule="evenodd" d="M368.482 132H286.518C267.561 132 260.686 133.974 253.756 137.68C246.826 141.387 241.387 146.826 237.68 153.756C233.974 160.686 232 167.561 232 186.518V268.482C232 287.439 233.974 294.314 237.68 301.244C241.387 308.174 246.826 313.613 253.756 317.32C260.686 321.026 267.561 323 286.518 323H368.482C387.439 323 394.314 321.026 401.244 317.32C408.174 313.613 413.613 308.174 417.32 301.244C421.026 294.314 423 287.439 423 268.482V186.518C423 167.561 421.026 160.686 417.32 153.756C413.613 146.826 408.174 141.387 401.244 137.68C394.314 133.974 387.439 132 368.482 132Z" fill="#FCF4E9"/>
<path fill-rule="evenodd" clip-rule="evenodd" d="M150.059 245H59.9408C39.0981 245 31.54 247.17 23.9202 251.245C16.3004 255.32 10.3204 261.3 6.24527 268.92C2.17016 276.54 0 284.098 0 304.941V395.059C0 415.902 2.17016 423.46 6.24527 431.08C10.3204 438.7 16.3004 444.68 23.9202 448.755C31.54 452.83 39.0981 455 59.9408 455H150.059C170.902 455 178.46 452.83 186.08 448.755C193.7 444.68 199.68 438.7 203.755 431.08C207.83 423.46 210 415.902 210 395.059V304.941C210 284.098 207.83 276.54 203.755 268.92C199.68 261.3 193.7 255.32 186.08 251.245C178.46 247.17 170.902 245 150.059 245Z" fill="#D7F6EE"/>
<path opacity="0.8" d="M49.1485 355.873V364.713H159.726V355.873H49.1485ZM99.3994 298.031V405H109.349V298.031H99.3994ZM95.9989 359.661C85.4198 373.553 64.6394 386.94 46 393.129C48.0151 395.023 51.0377 398.559 52.423 400.832C71.3143 393.634 92.2207 379.237 103.933 363.071L95.9989 359.661ZM112.245 359.282L104.689 362.692C116.779 378.226 138.189 393.002 156.451 400.327C157.962 397.928 160.859 394.265 163 392.371C144.612 386.183 123.202 372.796 112.245 359.282ZM71.0624 323.794H138.064V337.055H71.0624V323.794ZM71.0624 303.083H138.064V316.091H71.0624V303.083ZM61.3649 295V345.138H148.139V295H61.3649Z" fill="#4EB59A"/>
<path d="M297.13 207.977C297.13 220.278 304.535 228.311 318.593 231.7L333.78 235.465C343.444 237.724 347.963 242.996 347.963 251.029C347.963 261.321 339.554 267.722 326.374 267.722C314.074 267.722 305.79 261.572 305.288 252.158H296C297.13 266.844 308.928 276.006 326.374 276.006C344.951 276.006 357 266.091 357 250.527C357 238.352 349.72 230.319 335.663 226.93L320.224 223.165C310.811 220.78 306.167 215.759 306.167 207.852C306.167 197.685 314.451 191.158 327.128 191.158C338.424 191.158 345.327 196.932 346.331 207.099H355.494C354.113 192.037 343.444 183 327.253 183C309.179 183 297.13 192.916 297.13 207.977Z" fill="#EF7449"/>
</svg>
