<?xml version="1.0" standalone="no"?>
<!DOCTYPE svg PUBLIC "-//W3C//DTD SVG 20010904//EN"
 "http://www.w3.org/TR/2001/REC-SVG-20010904/DTD/svg10.dtd">
<svg version="1.0" xmlns="http://www.w3.org/2000/svg"
 width="300.000000pt" height="300.000000pt" viewBox="0 0 300.000000 300.000000"
 preserveAspectRatio="xMidYMid meet">
<metadata>
Created by potrace 1.14, written by Peter Selinger 2001-2017
</metadata>
<g transform="translate(0.000000,300.000000) scale(0.100000,-0.100000)"
fill="#000000" stroke="none">
<path d="M0 1500 l0 -1500 1500 0 1500 0 0 1500 0 1500 -1500 0 -1500 0 0
-1500z m1350 950 c78 -135 144 -248 148 -252 4 -4 74 110 157 252 82 143 152
256 156 252 3 -4 194 -333 424 -732 230 -399 448 -777 485 -840 36 -63 79
-136 94 -162 l27 -48 -301 0 c-165 0 -300 -2 -300 -5 0 -3 66 -120 147 -260
80 -141 144 -256 142 -258 -2 -1 -466 0 -1030 3 l-1026 5 147 255 147 255
-300 3 c-261 2 -298 4 -293 17 3 9 166 293 362 633 197 339 425 735 508 879
83 144 154 259 157 255 4 -4 71 -117 149 -252z"/>
<path d="M1354 1932 c-78 -136 -239 -415 -358 -621 -119 -205 -216 -377 -216
-382 0 -5 309 -9 725 -9 399 0 725 2 725 3 0 2 -103 181 -228 398 -126 217
-288 499 -362 627 -74 127 -136 232 -139 232 -3 -1 -70 -112 -147 -248z m259
-302 c70 -26 125 -75 162 -141 27 -49 30 -62 30 -149 0 -110 -17 -153 -86
-220 -66 -64 -120 -85 -219 -85 -72 0 -92 4 -135 27 -138 72 -206 234 -159
375 29 87 106 166 191 198 57 21 153 18 216 -5z"/>
</g>
</svg>
