<svg width="30" height="30" viewBox="0 0 30 30" fill="none" xmlns="http://www.w3.org/2000/svg">
<path fill-rule="evenodd" clip-rule="evenodd" d="M0.333252 2.78398C0.333252 2.13403 0.591447 1.51069 1.05104 1.0511C1.51063 0.591511 2.13396 0.333316 2.78392 0.333316H27.2133C27.5354 0.33279 27.8544 0.3958 28.1521 0.518739C28.4498 0.641677 28.7204 0.822129 28.9482 1.04976C29.1761 1.2774 29.3569 1.54775 29.4801 1.84533C29.6034 2.14291 29.6668 2.46188 29.6666 2.78398V27.2133C29.6669 27.5355 29.6038 27.8545 29.4807 28.1523C29.3576 28.45 29.177 28.7205 28.9493 28.9484C28.7215 29.1763 28.4511 29.357 28.1534 29.4802C27.8558 29.6035 27.5367 29.6668 27.2146 29.6666H2.78392C2.46198 29.6666 2.1432 29.6032 1.84578 29.48C1.54837 29.3567 1.27815 29.1761 1.05056 28.9484C0.822982 28.7207 0.642495 28.4504 0.519415 28.1529C0.396336 27.8554 0.333077 27.5366 0.333252 27.2146V2.78398ZM11.9439 11.5173H15.9159V13.512C16.4893 12.3653 17.9559 11.3333 20.1599 11.3333C24.3853 11.3333 25.3866 13.6173 25.3866 17.808V25.5706H21.1106V18.7626C21.1106 16.376 20.5373 15.0293 19.0813 15.0293C17.0613 15.0293 16.2213 16.4813 16.2213 18.7626V25.5706H11.9439V11.5173ZM4.61059 25.388H8.88792V11.3333H4.61059V25.3867V25.388ZM9.49992 6.74932C9.50798 7.11555 9.44282 7.4797 9.30824 7.8204C9.17366 8.16111 8.97239 8.4715 8.71623 8.73336C8.46007 8.99522 8.15418 9.20328 7.81653 9.34533C7.47887 9.48737 7.11624 9.56054 6.74992 9.56054C6.3836 9.56054 6.02097 9.48737 5.68331 9.34533C5.34565 9.20328 5.03977 8.99522 4.78361 8.73336C4.52745 8.4715 4.32618 8.16111 4.1916 7.8204C4.05702 7.4797 3.99185 7.11555 3.99992 6.74932C4.01575 6.03046 4.31243 5.34637 4.82643 4.84356C5.34043 4.34076 6.03088 4.05921 6.74992 4.05921C7.46895 4.05921 8.1594 4.34076 8.67341 4.84356C9.18741 5.34637 9.48409 6.03046 9.49992 6.74932Z" fill="black"/>
</svg>
