<svg width="32" height="32" viewBox="0 0 32 32" fill="none" xmlns="http://www.w3.org/2000/svg">
<path fill-rule="evenodd" clip-rule="evenodd" d="M32 16C32 24.836 24.836 32 16 32C7.164 32 0 24.836 0 16C0 7.164 7.164 0 16 0C24.836 0 32 7.164 32 16ZM26.2507 14.744C26.5093 15.1133 26.656 15.5493 26.672 16C26.679 16.4409 26.561 16.8747 26.3316 17.2513C26.1022 17.6279 25.7709 17.9319 25.376 18.128C25.3947 18.3627 25.3947 18.5973 25.376 18.832C25.376 22.416 21.2 25.328 16.048 25.328C10.896 25.328 6.72 22.416 6.72 18.832C6.70199 18.5977 6.70199 18.3623 6.72 18.128C6.4149 17.9852 6.14434 17.778 5.92692 17.5207C5.7095 17.2633 5.55038 16.962 5.4605 16.6373C5.37062 16.3126 5.3521 15.9724 5.40623 15.6399C5.46035 15.3074 5.58583 14.9905 5.77405 14.7111C5.96226 14.4317 6.20874 14.1964 6.49655 14.0213C6.78435 13.8462 7.10666 13.7355 7.44131 13.6968C7.77596 13.6582 8.11502 13.6924 8.43518 13.7972C8.75534 13.902 9.04901 14.0749 9.296 14.304C11.1396 13.0536 13.3086 12.3696 15.536 12.336L16.72 6.784C16.7333 6.71973 16.7592 6.65873 16.7963 6.60455C16.8333 6.55036 16.8807 6.50407 16.9358 6.46835C16.9909 6.43264 17.0525 6.4082 17.117 6.39647C17.1816 6.38474 17.2479 6.38594 17.312 6.4L21.232 7.184C21.4234 6.8551 21.7258 6.6052 22.0849 6.47916C22.444 6.35313 22.8362 6.3592 23.1912 6.4963C23.5462 6.6334 23.8407 6.89254 24.0219 7.22721C24.2031 7.56188 24.259 7.95016 24.1797 8.32236C24.1004 8.69455 23.891 9.02629 23.5891 9.25802C23.2872 9.48975 22.9127 9.6063 22.5326 9.58675C22.1526 9.5672 21.7919 9.41282 21.5154 9.15133C21.2389 8.88985 21.0647 8.53837 21.024 8.16L17.6 7.44L16.56 12.432C18.7603 12.4792 20.8999 13.1627 22.72 14.4C22.963 14.1664 23.2537 13.9882 23.5721 13.8776C23.8905 13.767 24.229 13.7266 24.5645 13.7593C24.9 13.792 25.2244 13.8969 25.5155 14.0669C25.8065 14.2369 26.0574 14.4679 26.2507 14.744ZM10.9413 16.7107C10.8245 16.8854 10.7433 17.0815 10.7023 17.2876C10.6613 17.4937 10.6612 17.7059 10.7022 17.9121C10.785 18.3284 11.0298 18.6948 11.3827 18.9307C11.7356 19.1665 12.1677 19.2525 12.5841 19.1698C12.7902 19.1288 12.9863 19.0476 13.161 18.9309C13.3358 18.8141 13.4859 18.6641 13.6027 18.4893C13.8385 18.1364 13.9245 17.7043 13.8418 17.2879C13.759 16.8716 13.5142 16.5052 13.1613 16.2693C12.8084 16.0335 12.3763 15.9475 11.9599 16.0302C11.5436 16.113 11.1772 16.3578 10.9413 16.7107ZM16.016 23.232C17.436 23.2907 18.8333 22.92 19.968 22.064C20.0529 21.9813 20.1014 21.8682 20.1029 21.7497C20.1044 21.6311 20.0587 21.5169 19.976 21.432C19.935 21.39 19.8862 21.3564 19.8322 21.3333C19.7783 21.3101 19.7203 21.2979 19.6617 21.2971C19.5431 21.2956 19.4289 21.3413 19.344 21.424C18.373 22.1206 17.1933 22.4649 16 22.4C14.8082 22.4533 13.634 22.0976 12.672 21.392C12.5891 21.324 12.4839 21.2892 12.3767 21.2945C12.2696 21.2997 12.1683 21.3446 12.0925 21.4205C12.0166 21.4963 11.9717 21.5976 11.9665 21.7047C11.9612 21.8119 11.996 21.9171 12.064 22C13.1992 22.8554 14.5958 23.2908 16.016 23.232ZM18.7907 18.9947C19.0547 19.1707 19.348 19.328 19.664 19.328C19.881 19.3305 20.0963 19.2889 20.2966 19.2055C20.497 19.1222 20.6783 18.9989 20.8295 18.8432C20.9807 18.6875 21.0986 18.5027 21.1761 18.2999C21.2535 18.0972 21.2889 17.8808 21.28 17.664C21.2799 17.3876 21.2082 17.116 21.0719 16.8756C20.9356 16.6351 20.7394 16.4341 20.5023 16.2921C20.2652 16.15 19.9954 16.0718 19.7191 16.0651C19.4428 16.0583 19.1695 16.1233 18.9257 16.2535C18.682 16.3838 18.4762 16.575 18.3283 16.8085C18.1804 17.042 18.0955 17.3098 18.0819 17.5859C18.0683 17.8619 18.1265 18.1368 18.2507 18.3836C18.3749 18.6305 18.5609 18.841 18.7907 18.9947Z" fill="black"/>
</svg>
