<svg id="Group_103" data-name="Group 103" xmlns="http://www.w3.org/2000/svg" width="32" height="32" viewBox="0 0 32 32">
  <path id="Path_29" data-name="Path 29" d="M0,0H32V32H0Z" fill="none"/>
  <path id="Path_30" data-name="Path 30" d="M16,30A14,14,0,1,1,30,16,14,14,0,0,1,16,30ZM11.646,17.638l.018-.01,1.218,4.018c.157.435.372.514.634.477a.968.968,0,0,0,.574-.342l1.663-1.607,3.57,2.643c.652.36,1.121.174,1.284-.6l2.32-10.951c.256-1.019-.192-1.428-.983-1.1L8.318,15.423c-.93.372-.924.893-.168,1.124l3.5,1.092Z" fill="#212121"/>
</svg>
