<svg id="Group_102" data-name="Group 102" xmlns="http://www.w3.org/2000/svg" width="32" height="32" viewBox="0 0 32 32">
  <path id="Path_25" data-name="Path 25" d="M0,0H32V32H0Z" fill="none"/>
  <path id="Path_26" data-name="Path 26" d="M28.956,6.312a11.179,11.179,0,0,1-3.2.877A5.6,5.6,0,0,0,28.207,4.1a11.144,11.144,0,0,1-3.541,1.353,5.576,5.576,0,0,0-9.5,5.085A15.832,15.832,0,0,1,3.671,4.716,5.584,5.584,0,0,0,5.4,12.161a5.557,5.557,0,0,1-2.525-.7v.069A5.58,5.58,0,0,0,7.343,17a5.613,5.613,0,0,1-2.519.1,5.58,5.58,0,0,0,5.209,3.873A11.192,11.192,0,0,1,1.779,23.28a15.773,15.773,0,0,0,8.547,2.507A15.758,15.758,0,0,0,26.192,9.92c0-.24-.007-.483-.017-.72a11.328,11.328,0,0,0,2.783-2.887Z" transform="translate(0.593 1.229)" fill="#212121"/>
</svg>
