<svg id="Group_107" data-name="Group 107" xmlns="http://www.w3.org/2000/svg" width="32" height="32" viewBox="0 0 32 32">
  <path id="Path_127" data-name="Path 127" d="M0,0H32V32H0Z" fill="none"/>
  <path id="Path_128" data-name="Path 128" d="M28.057,7.331a41.411,41.411,0,0,1,.609,7.336A41.411,41.411,0,0,1,28.057,22a3.748,3.748,0,0,1-2.584,2.7c-2.279.635-10.14.635-10.14.635s-7.857,0-10.14-.635A3.748,3.748,0,0,1,2.609,22,41.411,41.411,0,0,1,2,14.667a41.411,41.411,0,0,1,.609-7.336,3.748,3.748,0,0,1,2.584-2.7C7.476,4,15.333,4,15.333,4s7.861,0,10.14.635A3.748,3.748,0,0,1,28.057,7.331Zm-15.391,12,8-4.667-8-4.667Z" transform="translate(0.667 1.333)" fill="#212121"/>
</svg>
