<svg id="Group_201" data-name="Group 201" xmlns="http://www.w3.org/2000/svg" xmlns:xlink="http://www.w3.org/1999/xlink" width="48" height="34" viewBox="0 0 48 34">
  <defs>
    <clipPath id="clip-path">
      <rect id="Rectangle_189" data-name="Rectangle 189" width="48" height="34" fill="none"/>
    </clipPath>
  </defs>
  <g id="Group_200" data-name="Group 200" clip-path="url(#clip-path)">
    <path id="Path_194" data-name="Path 194" d="M7.039,34A24.047,24.047,0,0,1,7,.036l1.41,1.407A22.052,22.052,0,0,0,8.446,32.59Z" fill="#bdbdbd"/>
    <path id="Path_195" data-name="Path 195" d="M7.039,34A24.047,24.047,0,0,1,7,.036l1.41,1.407A22.052,22.052,0,0,0,8.446,32.59Z" fill="#bdbdbd"/>
    <path id="Path_196" data-name="Path 196" d="M41,33.963l-1.41-1.407A22.053,22.053,0,0,0,39.554,1.41L40.96,0A24.046,24.046,0,0,1,41,33.963" fill="#bdbdbd"/>
    <path id="Path_197" data-name="Path 197" d="M41,33.963l-1.41-1.407A22.053,22.053,0,0,0,39.554,1.41L40.96,0A24.046,24.046,0,0,1,41,33.963" fill="#bdbdbd"/>
    <path id="Path_198" data-name="Path 198" d="M13.5,6.5h21a1.166,1.166,0,0,1,1.167,1.167V26.333A1.166,1.166,0,0,1,34.5,27.5h-21a1.166,1.166,0,0,1-1.167-1.167V7.667A1.166,1.166,0,0,1,13.5,6.5m19.833,8.167H14.666v10.5H33.333Zm-17.5-2.334h2.333V10H15.833Zm4.667,0h2.333V10H20.5Z" fill="#ec5b29"/>
  </g>
</svg>
