<svg id="Group_203" data-name="Group 203" xmlns="http://www.w3.org/2000/svg" xmlns:xlink="http://www.w3.org/1999/xlink" width="48" height="34" viewBox="0 0 48 34">
  <defs>
    <clipPath id="clip-path">
      <rect id="Rectangle_190" data-name="Rectangle 190" width="48" height="34" fill="none"/>
    </clipPath>
  </defs>
  <g id="Group_202" data-name="Group 202" clip-path="url(#clip-path)">
    <path id="Path_199" data-name="Path 199" d="M7.039,34A24.047,24.047,0,0,1,7,.036l1.41,1.407A22.052,22.052,0,0,0,8.446,32.59Z" fill="#bdbdbd"/>
    <path id="Path_200" data-name="Path 200" d="M7.039,34A24.047,24.047,0,0,1,7,.036l1.41,1.407A22.052,22.052,0,0,0,8.446,32.59Z" fill="#bdbdbd"/>
    <path id="Path_201" data-name="Path 201" d="M41,33.963l-1.41-1.407A22.053,22.053,0,0,0,39.554,1.41L40.96,0A24.046,24.046,0,0,1,41,33.963" fill="#bdbdbd"/>
    <path id="Path_202" data-name="Path 202" d="M41,33.963l-1.41-1.407A22.053,22.053,0,0,0,39.554,1.41L40.96,0A24.046,24.046,0,0,1,41,33.963" fill="#bdbdbd"/>
    <path id="Path_203" data-name="Path 203" d="M13.2,6.2H34.8A1.2,1.2,0,0,1,36,7.4V26.6a1.2,1.2,0,0,1-1.2,1.2H13.2A1.2,1.2,0,0,1,12,26.6V7.4a1.2,1.2,0,0,1,1.2-1.2m1.2,19.2H33.6V8.6H14.4ZM33.6,17l-4.243,4.243-1.7-1.7L30.207,17,27.66,14.455l1.7-1.7ZM17.794,17l2.546,2.545-1.7,1.7L14.4,17l4.243-4.243,1.7,1.7Zm5.3,6H20.539l4.368-12h2.554L23.093,23" fill="#ec5b29"/>
  </g>
</svg>
