<svg xmlns="http://www.w3.org/2000/svg" xmlns:xlink="http://www.w3.org/1999/xlink" width="48" height="34" viewBox="0 0 48 34">
  <defs>
    <clipPath id="clip-path">
      <rect id="Rectangle_185" data-name="Rectangle 185" width="48" height="34" transform="translate(0 0)" fill="none"/>
    </clipPath>
  </defs>
  <g id="Group_193" data-name="Group 193" transform="translate(0 0)">
    <g id="Group_192" data-name="Group 192" clip-path="url(#clip-path)">
      <path id="Path_173" data-name="Path 173" d="M7.039,34A24.047,24.047,0,0,1,7,.036l1.41,1.407a22.052,22.052,0,0,0,.033,31.147Z" transform="translate(0 0)" fill="#bdbdbd"/>
      <path id="Path_174" data-name="Path 174" d="M7.039,34A24.047,24.047,0,0,1,7,.036l1.41,1.407a22.052,22.052,0,0,0,.033,31.147Z" transform="translate(0 0)" fill="#bdbdbd"/>
      <path id="Path_175" data-name="Path 175" d="M41,33.963l-1.41-1.407A22.054,22.054,0,0,0,39.554,1.41L40.96,0A24.047,24.047,0,0,1,41,33.963" transform="translate(0 0)" fill="#bdbdbd"/>
      <path id="Path_176" data-name="Path 176" d="M41,33.963l-1.41-1.407A22.054,22.054,0,0,0,39.554,1.41L40.96,0A24.047,24.047,0,0,1,41,33.963" transform="translate(0 0)" fill="#bdbdbd"/>
      <path id="Path_177" data-name="Path 177" d="M17.275,10.541A9.326,9.326,0,0,0,27.561,25.625a4.028,4.028,0,0,0-.28-2.007A14.334,14.334,0,0,0,24.653,20.3c-.394-.414-.369-.732-.227-1.674l.015-.106c.1-.645.257-1.028,2.432-1.373a1.5,1.5,0,0,1,1.8.877l.135.2a2.134,2.134,0,0,0,1.094.881c.193.087.432.2.753.379.761.435.761.925.761,2v.122a6.087,6.087,0,0,1-.114,1.2A9.324,9.324,0,0,0,27.679,8.427,9.191,9.191,0,0,0,25.834,9.9c-.158.216-.382,1.32-1.108,1.411a4.273,4.273,0,0,1-.715-.01c-.726-.047-1.717-.111-2.035.75a3.409,3.409,0,0,0,.415,2.8.681.681,0,0,1,.054.605,1.179,1.179,0,0,1-.341.58,3.349,3.349,0,0,1-.489-.5A3.2,3.2,0,0,0,20.2,14.419c-.215-.059-.45-.109-.68-.158-.641-.134-1.365-.287-1.534-.645a2.517,2.517,0,0,1-.122-1.008,3.7,3.7,0,0,0-.232-1.567,1.491,1.491,0,0,0-.357-.5ZM24,28.66A11.655,11.655,0,1,1,35.667,17,11.66,11.66,0,0,1,24,28.66Z" transform="translate(0 -0.006)" fill="#ec5b29"/>
    </g>
  </g>
</svg>
