<svg id="Group_205" data-name="Group 205" xmlns="http://www.w3.org/2000/svg" xmlns:xlink="http://www.w3.org/1999/xlink" width="48" height="34" viewBox="0 0 48 34">
  <defs>
    <clipPath id="clip-path">
      <rect id="Rectangle_191" data-name="Rectangle 191" width="48" height="34" fill="none"/>
    </clipPath>
  </defs>
  <g id="Group_204" data-name="Group 204" clip-path="url(#clip-path)">
    <path id="Path_204" data-name="Path 204" d="M7.039,34A24.047,24.047,0,0,1,7,.036l1.41,1.407A22.052,22.052,0,0,0,8.446,32.59Z" fill="#bdbdbd"/>
    <path id="Path_205" data-name="Path 205" d="M7.039,34A24.047,24.047,0,0,1,7,.036l1.41,1.407A22.052,22.052,0,0,0,8.446,32.59Z" fill="#bdbdbd"/>
    <path id="Path_206" data-name="Path 206" d="M41,33.963l-1.41-1.407A22.053,22.053,0,0,0,39.554,1.41L40.96,0A24.046,24.046,0,0,1,41,33.963" fill="#bdbdbd"/>
    <path id="Path_207" data-name="Path 207" d="M41,33.963l-1.41-1.407A22.053,22.053,0,0,0,39.554,1.41L40.96,0A24.046,24.046,0,0,1,41,33.963" fill="#bdbdbd"/>
    <path id="Path_208" data-name="Path 208" d="M14.519,5.667V25.814H34.666v2.518H12V5.667Zm18.812,3.7L36,12.038l-7.63,7.634-3.778-3.778-4.961,4.961-2.669-2.672,7.63-7.63L28.37,14.33l4.961-4.961" fill="#ec5b29"/>
  </g>
</svg>
